{"glyphs":{"0":{"ha":833,"x_min":89,"x_max":744,"o":"m 417 -17 q 177 103 265 -17 q 89 446 89 222 q 177 785 89 671 q 417 900 265 900 q 656 785 568 900 q 744 446 744 671 q 656 103 744 222 q 417 -17 568 -17 m 417 775 q 343 758 376 775 q 285 701 310 740 q 247 599 261 663 q 233 446 233 536 q 247 291 233 356 q 285 186 261 226 q 343 127 310 146 q 417 108 376 108 q 490 127 456 108 q 548 186 524 146 q 586 291 572 226 q 600 446 600 356 q 586 599 600 536 q 548 701 572 663 q 490 758 524 740 q 417 775 456 775 m 417 353 q 349 379 376 353 q 321 451 321 406 q 349 524 321 497 q 417 550 376 550 q 485 524 457 550 q 513 451 513 497 q 485 379 513 406 q 417 353 457 353 z "},"1":{"ha":833,"x_min":125,"x_max":740,"o":"m 740 131 l 740 0 l 125 0 l 125 131 l 364 131 l 364 711 l 179 711 l 179 811 q 308 841 254 824 q 407 883 361 858 l 524 883 l 524 131 l 740 131 z "},"2":{"ha":833,"x_min":83,"x_max":733,"o":"m 90 93 q 276 256 194 182 q 416 394 358 331 q 504 514 474 458 q 535 621 535 569 q 492 733 535 692 q 365 774 449 774 q 259 744 307 774 q 171 675 211 715 l 83 764 q 218 865 147 829 q 386 900 289 900 q 510 881 454 900 q 605 826 565 861 q 666 740 644 790 q 688 629 688 690 q 659 510 688 571 q 582 388 631 450 q 466 261 533 326 q 322 126 399 196 q 404 133 361 129 q 483 136 447 136 l 733 136 l 733 0 l 90 0 l 90 93 z "},"3":{"ha":833,"x_min":69,"x_max":729,"o":"m 144 211 q 248 142 189 171 q 379 114 307 114 q 515 149 461 114 q 568 247 568 185 q 553 310 568 282 q 503 357 538 338 q 413 387 469 376 q 275 397 357 397 l 275 514 q 396 524 346 514 q 477 553 446 535 q 523 599 508 572 q 538 656 538 625 q 495 742 538 711 q 382 774 453 774 q 274 751 324 774 q 181 690 225 728 l 97 789 q 231 869 158 839 q 389 900 303 900 q 514 885 457 900 q 612 840 571 869 q 676 766 653 810 q 699 667 699 722 q 650 542 699 592 q 519 464 601 492 l 519 458 q 601 428 563 447 q 667 382 639 410 q 713 318 696 354 q 729 239 729 282 q 702 131 729 178 q 629 51 675 83 q 522 1 583 18 q 393 -17 461 -17 q 199 19 279 -17 q 69 108 118 56 l 144 211 z "},"4":{"ha":833,"x_min":51,"x_max":767,"o":"m 492 351 l 492 563 q 495 650 493 603 q 500 738 497 697 l 493 738 q 447 668 471 703 q 400 597 424 633 l 214 351 l 492 351 m 767 228 l 642 228 l 642 0 l 492 0 l 492 228 l 51 228 l 51 336 l 457 885 l 642 885 l 642 351 l 767 351 l 767 228 z "},"5":{"ha":833,"x_min":71,"x_max":732,"o":"m 144 208 q 244 142 189 171 q 375 114 299 114 q 515 158 458 114 q 571 283 571 203 q 519 406 571 363 q 382 449 467 449 q 299 437 333 449 q 218 399 264 425 l 142 447 l 169 883 l 690 883 l 690 749 l 308 749 l 289 535 q 356 556 324 549 q 428 564 388 564 q 546 547 490 564 q 642 497 601 531 q 708 410 683 463 q 732 288 732 358 q 704 158 732 215 q 629 63 676 101 q 522 3 582 24 q 394 -17 461 -17 q 201 20 278 -17 q 71 106 124 57 l 144 208 z "},"6":{"ha":833,"x_min":94,"x_max":750,"o":"m 442 106 q 503 117 475 106 q 554 149 532 128 q 589 202 576 171 q 601 274 601 233 q 559 392 601 353 q 442 431 517 431 q 347 408 397 431 q 249 328 297 385 q 315 158 264 210 q 442 106 367 106 m 649 703 q 574 751 618 732 q 483 769 531 769 q 394 753 436 769 q 319 697 351 736 q 266 595 286 658 q 243 440 246 532 q 356 519 294 490 q 475 547 417 547 q 585 531 535 547 q 672 480 635 514 q 729 394 708 446 q 750 274 750 343 q 725 153 750 207 q 658 63 700 100 q 560 4 615 25 q 443 -17 504 -17 q 310 9 374 -17 q 199 88 247 35 q 123 222 151 140 q 94 415 94 304 q 126 636 94 544 q 210 786 157 728 q 330 872 263 844 q 471 900 397 900 q 624 871 558 900 q 735 800 690 842 l 649 703 z "},"7":{"ha":833,"x_min":92,"x_max":744,"o":"m 290 0 q 313 216 296 118 q 363 402 331 314 q 446 574 396 490 q 568 749 496 658 l 92 749 l 92 883 l 744 883 l 744 786 q 604 603 658 690 q 518 426 550 517 q 472 233 486 336 q 453 0 458 129 l 290 0 l 290 0 z "},"8":{"ha":833,"x_min":89,"x_max":744,"o":"m 231 243 q 283 137 231 176 q 421 97 336 97 q 547 132 501 97 q 593 229 593 167 q 574 293 593 267 q 523 339 556 319 q 446 374 490 358 q 349 408 401 390 q 264 338 297 378 q 231 243 231 299 m 483 499 q 571 651 571 569 q 532 748 571 710 q 419 786 493 786 q 317 755 357 786 q 278 665 278 724 q 293 607 278 632 q 336 563 308 582 q 401 528 364 544 q 483 499 439 513 m 89 226 q 103 304 89 269 q 143 366 118 339 q 201 415 168 393 q 268 453 233 436 l 268 458 q 174 544 213 494 q 136 665 136 594 q 158 763 136 719 q 217 836 179 806 q 308 883 256 867 q 422 900 360 900 q 630 835 554 900 q 706 661 706 769 q 667 547 706 599 q 574 460 628 496 l 574 454 q 641 415 610 436 q 695 367 672 394 q 731 305 718 340 q 744 224 744 269 q 723 128 744 172 q 660 52 701 85 q 557 1 618 19 q 418 -17 496 -17 q 281 1 342 -17 q 177 51 219 19 q 112 128 135 83 q 89 226 89 172 z "},"9":{"ha":833,"x_min":83,"x_max":738,"o":"m 390 453 q 486 476 436 453 q 585 557 536 500 q 518 726 569 674 q 392 778 467 778 q 329 767 358 778 q 278 735 300 756 q 244 683 257 714 q 231 611 231 651 q 273 492 231 532 q 390 453 315 453 m 183 181 q 258 133 215 151 q 350 114 301 114 q 438 131 396 114 q 513 186 481 147 q 567 288 546 225 q 590 443 588 351 q 477 366 538 394 q 358 338 417 338 q 248 354 299 338 q 161 405 197 371 q 104 490 125 439 q 83 611 83 542 q 108 731 83 678 q 175 822 133 785 q 272 880 217 860 q 389 900 328 900 q 523 874 460 900 q 634 796 586 849 q 710 662 682 743 q 738 469 738 581 q 706 249 738 340 q 623 98 675 157 q 503 11 571 39 q 363 -17 435 -17 q 208 13 275 -17 q 97 83 142 42 l 183 181 z "},"\u0000":{"ha":0,"x_min":0,"x_max":0,"o":""},"\r":{"ha":833,"x_min":0,"x_max":0,"o":""}," ":{"ha":833,"x_min":0,"x_max":0,"o":""},"A":{"ha":833,"x_min":28,"x_max":806,"o":"m 529 372 l 497 483 q 457 632 478 556 q 417 783 436 708 l 411 783 q 372 631 392 707 q 331 483 351 556 l 299 372 l 529 372 m 565 246 l 263 246 l 192 0 l 28 0 l 322 908 l 511 908 l 806 0 l 635 0 l 565 246 z "},"B":{"ha":833,"x_min":129,"x_max":765,"o":"m 129 908 l 397 908 q 526 897 467 908 q 628 859 585 885 q 695 790 671 833 q 719 685 719 747 q 681 564 719 619 q 561 488 642 508 l 561 482 q 713 412 661 465 q 765 267 765 358 q 740 149 765 199 q 667 65 714 99 q 558 16 621 32 q 419 0 494 0 l 129 0 l 129 908 m 382 532 q 519 567 478 532 q 561 665 561 601 q 517 756 561 728 q 386 783 474 783 l 290 783 l 290 532 l 382 532 m 403 125 q 556 163 503 125 q 608 278 608 200 q 403 417 608 417 l 290 417 l 290 125 l 403 125 z "},"C":{"ha":833,"x_min":83,"x_max":779,"o":"m 83 451 q 115 651 83 563 q 203 800 147 739 q 337 893 260 861 q 504 925 414 925 q 653 890 588 925 q 763 811 718 856 l 672 711 q 598 765 639 744 q 504 785 557 785 q 400 762 447 785 q 319 697 353 739 q 267 593 286 654 q 249 456 249 532 q 267 316 249 378 q 320 212 286 254 q 402 147 354 169 q 508 124 450 124 q 608 147 564 124 q 690 214 651 171 l 779 115 q 654 17 724 51 q 499 -17 585 -17 q 335 14 411 -17 q 203 104 260 44 q 115 251 147 164 q 83 451 83 339 z "},"D":{"ha":833,"x_min":104,"x_max":767,"o":"m 104 908 l 339 908 q 653 796 540 908 q 767 458 767 683 q 738 260 767 346 q 654 116 708 174 q 522 29 600 58 q 347 0 444 0 l 104 0 l 104 908 m 329 131 q 531 210 460 131 q 601 458 601 290 q 531 701 601 625 q 329 778 460 778 l 265 778 l 265 131 l 329 131 z "},"E":{"ha":833,"x_min":144,"x_max":739,"o":"m 144 908 l 725 908 l 725 772 l 306 772 l 306 540 l 661 540 l 661 404 l 306 404 l 306 136 l 739 136 l 739 0 l 144 0 l 144 908 z "},"F":{"ha":833,"x_min":168,"x_max":746,"o":"m 168 908 l 746 908 l 746 772 l 329 772 l 329 515 l 683 515 l 683 379 l 329 379 l 329 0 l 168 0 l 168 908 z "},"G":{"ha":833,"x_min":67,"x_max":750,"o":"m 67 451 q 98 651 67 564 q 184 800 129 739 q 315 893 239 861 q 479 925 390 925 q 633 890 569 925 q 736 811 696 854 l 647 711 q 577 764 615 743 q 479 785 539 785 q 380 762 425 785 q 302 697 335 739 q 251 593 269 654 q 233 456 233 532 q 297 212 233 300 q 482 124 360 124 q 551 134 518 124 q 604 164 585 144 l 604 360 l 447 360 l 447 492 l 750 492 l 750 92 q 633 15 706 47 q 472 -17 560 -17 q 312 14 386 -17 q 183 104 238 44 q 98 251 129 164 q 67 451 67 339 z "},"H":{"ha":833,"x_min":100,"x_max":733,"o":"m 100 908 l 261 908 l 261 543 l 572 543 l 572 908 l 733 908 l 733 0 l 572 0 l 572 403 l 261 403 l 261 0 l 100 0 l 100 908 z "},"I":{"ha":833,"x_min":117,"x_max":717,"o":"m 117 136 l 336 136 l 336 772 l 117 772 l 117 908 l 717 908 l 717 772 l 497 772 l 497 136 l 717 136 l 717 0 l 117 0 l 117 136 z "},"J":{"ha":833,"x_min":97,"x_max":701,"o":"m 194 232 q 281 150 233 178 q 376 122 328 122 q 500 166 460 122 q 540 314 540 210 l 540 774 l 172 774 l 172 908 l 701 908 l 701 300 q 685 177 701 235 q 631 76 668 119 q 531 8 593 33 q 381 -17 469 -17 q 303 -8 343 -17 q 227 18 264 0 q 157 65 190 36 q 97 133 124 93 l 194 232 z "},"K":{"ha":833,"x_min":115,"x_max":815,"o":"m 115 908 l 278 908 l 278 496 l 282 496 l 606 908 l 785 908 l 506 554 l 815 0 l 636 0 l 410 428 l 278 265 l 278 0 l 115 0 l 115 908 z "},"L":{"ha":833,"x_min":167,"x_max":753,"o":"m 167 908 l 326 908 l 326 136 l 753 136 l 753 0 l 167 0 l 167 908 z "},"M":{"ha":833,"x_min":101,"x_max":732,"o":"m 101 908 l 268 908 l 378 556 l 417 418 l 421 418 l 458 556 l 565 908 l 732 908 l 732 0 l 600 0 l 600 403 q 602 481 600 435 q 607 576 604 526 q 613 671 610 625 q 619 749 617 717 l 615 749 l 550 526 l 454 244 l 376 244 l 279 526 l 215 749 l 211 749 q 217 671 214 717 q 224 576 221 625 q 230 481 228 526 q 232 403 232 435 l 232 0 l 101 0 l 101 908 z "},"N":{"ha":833,"x_min":103,"x_max":731,"o":"m 103 908 l 267 908 l 510 397 l 594 204 l 599 204 q 585 356 593 275 q 576 514 576 438 l 576 908 l 731 908 l 731 0 l 567 0 l 324 513 l 239 704 l 235 704 q 249 553 240 632 q 257 397 257 474 l 257 0 l 103 0 l 103 908 z "},"O":{"ha":833,"x_min":60,"x_max":774,"o":"m 417 -17 q 272 16 338 -17 q 159 110 206 49 q 86 260 113 172 q 60 458 60 347 q 86 655 60 568 q 159 801 113 742 q 272 893 206 861 q 417 925 338 925 q 562 893 496 925 q 674 801 628 861 q 747 655 721 742 q 774 458 774 568 q 747 260 774 347 q 674 110 721 172 q 562 16 628 49 q 417 -17 496 -17 m 417 124 q 495 147 460 124 q 556 215 531 171 q 594 320 581 258 q 608 458 608 382 q 556 698 608 611 q 417 785 504 785 q 277 698 329 785 q 225 458 225 611 q 238 320 225 382 q 276 215 251 258 q 337 147 301 171 q 417 124 372 124 z "},"P":{"ha":833,"x_min":121,"x_max":772,"o":"m 121 908 l 426 908 q 565 894 501 908 q 674 847 628 881 q 747 760 721 814 q 772 628 772 707 q 746 497 772 553 q 673 405 719 442 q 563 351 626 368 q 426 333 500 333 l 282 333 l 282 0 l 121 0 l 121 908 m 414 463 q 614 628 614 463 q 564 747 614 714 q 414 779 514 779 l 282 779 l 282 463 l 414 463 z "},"Q":{"ha":833,"x_min":60,"x_max":788,"o":"m 224 458 q 237 319 224 382 q 274 213 250 257 q 334 146 299 169 q 414 122 369 122 q 492 146 457 122 q 552 213 528 169 q 590 319 576 257 q 603 458 603 382 q 552 699 603 611 q 414 786 501 786 q 274 699 325 786 q 224 458 224 611 m 788 -212 q 735 -230 764 -224 q 669 -236 706 -236 q 459 -172 542 -236 q 338 -8 376 -108 q 224 44 275 6 q 135 143 172 83 q 79 283 99 203 q 60 458 60 363 q 85 655 60 568 q 158 801 111 742 q 269 893 204 861 q 414 925 335 925 q 558 893 493 925 q 670 801 624 861 q 742 655 717 742 q 768 458 768 568 q 697 151 768 271 q 507 -4 626 31 q 579 -81 531 -57 q 688 -106 628 -106 q 726 -101 708 -106 q 758 -89 744 -96 l 788 -212 z "},"R":{"ha":833,"x_min":117,"x_max":790,"o":"m 278 483 l 403 483 q 547 522 497 483 q 596 639 596 561 q 547 749 596 718 q 403 779 497 779 l 278 779 l 278 483 m 608 0 l 414 356 l 278 356 l 278 0 l 117 0 l 117 908 l 419 908 q 551 894 490 908 q 658 849 613 881 q 728 767 703 818 q 754 639 754 715 q 705 471 754 535 q 574 379 656 407 l 790 0 l 608 0 z "},"S":{"ha":833,"x_min":81,"x_max":756,"o":"m 175 226 q 291 152 226 181 q 422 124 356 124 q 549 156 506 124 q 592 240 592 188 q 581 288 592 268 q 549 322 569 307 q 501 349 529 336 q 439 374 472 361 l 315 428 q 244 463 279 442 q 182 513 210 483 q 138 581 154 542 q 121 669 121 619 q 144 770 121 724 q 210 851 168 817 q 309 906 251 886 q 436 925 367 925 q 595 894 519 925 q 728 810 671 863 l 644 707 q 549 764 599 743 q 436 785 499 785 q 324 756 365 785 q 283 678 283 728 q 296 633 283 651 q 330 599 308 614 q 380 574 351 585 q 439 550 408 563 l 558 499 q 638 460 601 482 q 700 408 674 438 q 741 341 726 379 q 756 253 756 303 q 733 149 756 197 q 667 63 710 100 q 561 5 624 26 q 419 -17 499 -17 q 236 18 324 -17 q 81 117 149 53 l 175 226 z "},"T":{"ha":833,"x_min":50,"x_max":783,"o":"m 336 772 l 50 772 l 50 908 l 783 908 l 783 772 l 497 772 l 497 0 l 336 0 l 336 772 z "},"U":{"ha":833,"x_min":100,"x_max":733,"o":"m 100 908 l 261 908 l 261 335 q 303 173 261 222 q 418 124 344 124 q 536 173 493 124 q 579 335 579 222 l 579 908 l 733 908 l 733 347 q 651 72 733 160 q 418 -17 569 -17 q 185 72 269 -17 q 100 347 100 161 l 100 908 z "},"V":{"ha":833,"x_min":39,"x_max":794,"o":"m 39 908 l 210 908 l 338 451 q 377 304 360 374 q 418 156 394 235 l 424 156 q 465 304 447 235 q 503 451 482 374 l 629 908 l 794 908 l 513 0 l 322 0 l 39 908 z "},"W":{"ha":833,"x_min":10,"x_max":824,"o":"m 10 908 l 172 908 l 222 382 q 229 268 225 324 q 236 154 233 213 l 240 154 q 266 269 251 213 q 293 382 281 325 l 372 676 l 475 676 l 553 382 q 578 269 564 326 q 604 154 593 213 l 610 154 q 617 269 613 213 q 624 382 621 326 l 671 908 l 824 908 l 700 0 l 529 0 l 449 332 q 432 418 439 375 q 419 501 425 461 l 415 501 q 401 418 408 461 q 385 332 394 375 l 308 0 l 140 0 l 10 908 z "},"X":{"ha":833,"x_min":50,"x_max":783,"o":"m 317 468 l 67 908 l 246 908 l 353 707 q 386 642 369 675 q 424 568 403 608 l 429 568 q 463 642 447 608 q 493 707 478 675 l 596 908 l 767 908 l 517 461 l 783 0 l 606 0 l 488 214 q 450 285 468 250 q 411 363 432 321 l 406 363 q 369 285 386 321 q 335 214 353 250 l 221 0 l 50 0 l 317 468 z "},"Y":{"ha":833,"x_min":38,"x_max":796,"o":"m 336 315 l 38 908 l 208 908 l 322 664 q 369 560 346 611 q 415 454 392 510 l 421 454 q 469 561 446 510 q 517 665 493 613 l 629 908 l 796 908 l 497 315 l 497 0 l 336 0 l 336 315 z "},"Z":{"ha":833,"x_min":85,"x_max":754,"o":"m 85 97 l 550 774 l 126 774 l 126 908 l 749 908 l 749 811 l 282 136 l 754 136 l 754 0 l 85 0 l 85 97 z "},"a":{"ha":833,"x_min":99,"x_max":729,"o":"m 99 183 q 125 284 99 240 q 208 358 151 328 q 354 408 265 389 q 569 436 443 428 q 528 532 565 494 q 407 569 490 569 q 292 548 349 569 q 183 497 236 526 l 125 604 q 268 669 188 640 q 436 699 349 699 q 654 623 579 699 q 729 404 729 547 l 729 0 l 599 0 l 586 85 l 582 85 q 462 13 528 43 q 326 -17 396 -17 q 235 -2 276 -17 q 163 39 193 13 q 115 102 132 65 q 99 183 99 139 m 253 196 q 288 129 253 150 q 375 108 324 108 q 474 131 426 108 q 569 192 522 154 l 569 336 q 417 317 478 329 q 319 288 356 306 q 268 247 283 269 q 253 196 253 224 z "},"b":{"ha":833,"x_min":114,"x_max":760,"o":"m 114 981 l 275 981 l 275 728 l 269 608 q 369 674 314 650 q 481 699 425 699 q 599 674 547 699 q 686 605 650 650 q 741 496 722 560 q 760 353 760 432 q 735 197 760 265 q 667 81 710 128 q 570 8 625 33 q 457 -17 515 -17 q 356 7 408 -17 q 258 75 303 31 l 254 75 l 240 0 l 114 0 l 114 981 m 275 178 q 353 129 313 143 q 425 115 393 115 q 546 174 497 115 q 594 350 594 233 q 557 510 594 453 q 436 567 519 567 q 357 547 397 567 q 275 485 317 528 l 275 178 z "},"c":{"ha":833,"x_min":101,"x_max":754,"o":"m 101 340 q 133 492 101 425 q 217 604 164 558 q 340 674 269 650 q 489 699 411 699 q 635 671 572 699 q 742 603 699 643 l 665 503 q 584 551 625 535 q 497 568 543 568 q 331 506 394 568 q 267 340 267 444 q 283 247 267 289 q 330 176 300 206 q 401 130 360 146 q 493 114 443 114 q 599 136 551 114 q 688 189 647 158 l 754 86 q 624 9 696 35 q 478 -17 551 -17 q 328 7 397 -17 q 209 76 260 31 q 130 189 158 122 q 101 340 101 256 z "},"d":{"ha":833,"x_min":74,"x_max":719,"o":"m 74 340 q 99 490 74 424 q 166 603 124 557 q 263 674 208 649 q 375 699 317 699 q 480 677 436 699 q 565 618 524 656 l 558 733 l 558 981 l 719 981 l 719 0 l 588 0 l 575 79 l 571 79 q 477 11 531 39 q 365 -17 424 -17 q 246 8 300 -17 q 153 78 192 32 q 94 190 115 124 q 74 340 74 256 m 239 342 q 282 173 239 231 q 404 115 325 115 q 558 197 489 115 l 558 504 q 486 553 522 539 q 413 567 450 567 q 345 551 376 567 q 290 508 314 536 q 253 438 267 479 q 239 342 239 396 z "},"e":{"ha":833,"x_min":86,"x_max":753,"o":"m 86 340 q 116 490 86 424 q 194 603 146 557 q 306 674 243 650 q 436 699 369 699 q 572 674 513 699 q 671 608 631 650 q 732 506 711 565 q 753 375 753 446 q 751 331 753 351 q 746 297 749 310 l 250 297 q 322 156 258 206 q 479 107 386 107 q 578 122 532 107 q 671 163 624 136 l 725 63 q 601 6 669 28 q 458 -17 533 -17 q 313 8 381 -17 q 194 78 244 32 q 115 190 144 124 q 86 340 86 256 m 606 406 q 564 530 606 485 q 440 575 522 575 q 317 532 371 575 q 249 406 263 489 l 606 406 z "},"f":{"ha":833,"x_min":128,"x_max":808,"o":"m 775 842 q 702 864 738 857 q 625 871 667 871 q 510 833 546 871 q 475 722 475 794 l 475 682 l 735 682 l 735 556 l 475 556 l 475 0 l 317 0 l 317 556 l 128 556 l 128 675 l 317 682 l 317 719 q 333 831 317 779 q 385 919 350 882 q 476 976 421 956 q 606 997 531 997 q 712 988 661 997 q 808 960 763 978 l 775 842 z "},"g":{"ha":833,"x_min":86,"x_max":790,"o":"m 219 -99 q 270 -171 219 -144 q 417 -197 321 -197 q 507 -188 467 -197 q 576 -164 547 -179 q 621 -128 606 -149 q 636 -86 636 -108 q 601 -33 636 -46 q 499 -19 567 -19 l 390 -19 q 331 -17 357 -19 q 286 -8 306 -15 q 235 -53 250 -31 q 219 -99 219 -75 m 86 -119 q 114 -42 86 -79 q 194 24 142 -4 l 194 29 q 146 72 167 44 q 125 143 125 100 q 147 212 125 178 q 207 272 169 246 l 207 278 q 145 347 171 303 q 119 453 119 392 q 142 557 119 511 q 203 634 165 603 q 292 682 242 665 q 400 699 343 699 q 507 682 461 699 l 786 682 l 786 564 l 626 564 q 658 513 644 543 q 672 447 672 483 q 651 347 672 390 q 594 275 631 304 q 507 231 557 246 q 400 217 457 217 q 296 235 349 217 q 254 172 254 208 q 383 107 254 107 l 522 107 q 723 68 656 107 q 790 -60 790 29 q 763 -154 790 -110 q 684 -231 735 -199 q 560 -283 633 -264 q 397 -301 488 -301 q 269 -290 326 -301 q 172 -256 213 -279 q 108 -199 131 -233 q 86 -119 86 -165 m 400 317 q 492 352 453 317 q 531 453 531 388 q 492 552 531 515 q 400 589 453 589 q 309 552 347 589 q 271 453 271 515 q 309 352 271 388 q 400 317 347 317 z "},"h":{"ha":833,"x_min":114,"x_max":739,"o":"m 114 981 l 275 981 l 275 728 l 265 582 q 372 664 313 629 q 510 699 431 699 q 683 627 628 699 q 739 422 739 556 l 739 0 l 578 0 l 578 401 q 549 523 578 485 q 450 561 521 561 q 361 538 400 561 q 275 465 322 514 l 275 0 l 114 0 l 114 981 z "},"i":{"ha":833,"x_min":117,"x_max":594,"o":"m 117 682 l 572 682 l 572 0 l 413 0 l 413 556 l 117 556 l 117 682 m 481 801 q 399 831 432 801 q 367 908 367 860 q 399 987 367 957 q 481 1017 432 1017 q 563 987 531 1017 q 594 908 594 957 q 563 831 594 860 q 481 801 531 801 z "},"j":{"ha":833,"x_min":68,"x_max":594,"o":"m 117 682 l 572 682 l 572 13 q 558 -104 572 -50 q 509 -199 543 -158 q 417 -263 475 -240 q 271 -286 358 -286 q 160 -273 211 -286 q 68 -240 110 -260 l 117 -125 q 192 -151 156 -143 q 263 -160 229 -160 q 381 -118 350 -160 q 413 4 413 -76 l 413 556 l 117 556 l 117 682 m 481 801 q 399 831 432 801 q 367 908 367 860 q 399 987 367 957 q 481 1017 432 1017 q 563 987 531 1017 q 594 908 594 957 q 563 831 594 860 q 481 801 531 801 z "},"k":{"ha":833,"x_min":125,"x_max":806,"o":"m 125 981 l 286 981 l 286 367 l 292 367 l 599 682 l 776 682 l 513 407 l 806 0 l 631 0 l 417 308 l 286 178 l 286 0 l 125 0 l 125 981 z "},"l":{"ha":833,"x_min":99,"x_max":750,"o":"m 99 981 l 474 981 l 474 240 q 508 142 474 171 q 596 114 543 114 q 713 140 646 114 l 750 22 q 659 -6 701 6 q 557 -17 617 -17 q 375 53 436 -17 q 314 249 314 122 l 314 854 l 99 854 l 99 981 z "},"m":{"ha":833,"x_min":67,"x_max":785,"o":"m 67 682 l 188 682 l 200 594 l 204 594 q 262 669 228 639 q 354 699 296 699 q 479 585 454 699 q 540 666 503 633 q 633 699 576 699 q 745 642 706 699 q 785 483 785 586 l 785 0 l 633 0 l 633 471 q 576 561 633 561 q 528 540 549 561 q 488 476 507 519 l 488 0 l 363 0 l 363 471 q 304 561 363 561 q 257 540 276 561 q 218 476 238 519 l 218 0 l 67 0 l 67 682 z "},"n":{"ha":833,"x_min":114,"x_max":739,"o":"m 114 682 l 246 682 l 258 579 l 264 579 q 372 663 313 628 q 510 699 431 699 q 683 627 628 699 q 739 422 739 556 l 739 0 l 578 0 l 578 401 q 549 523 578 485 q 450 561 521 561 q 361 538 400 561 q 275 465 322 514 l 275 0 l 114 0 l 114 682 z "},"o":{"ha":833,"x_min":74,"x_max":760,"o":"m 74 340 q 102 492 74 425 q 178 604 131 558 q 288 674 225 650 q 417 699 350 699 q 546 674 483 699 q 656 604 608 650 q 731 492 703 558 q 760 340 760 425 q 731 189 760 256 q 656 76 703 122 q 546 7 608 31 q 417 -17 483 -17 q 288 7 350 -17 q 178 76 225 31 q 102 189 131 122 q 74 340 74 256 m 239 340 q 286 176 239 238 q 417 114 333 114 q 547 176 500 114 q 594 340 594 238 q 547 506 594 444 q 417 568 500 568 q 286 506 333 568 q 239 340 239 444 z "},"p":{"ha":833,"x_min":114,"x_max":760,"o":"m 275 -56 l 275 -269 l 114 -269 l 114 682 l 246 682 l 258 604 l 263 604 q 365 672 307 644 q 481 699 422 699 q 599 674 547 699 q 687 604 651 650 q 741 494 722 558 q 760 351 760 431 q 735 195 760 264 q 667 80 710 126 q 570 8 625 33 q 457 -17 515 -17 q 360 4 410 -17 q 269 64 311 25 l 275 -56 m 275 178 q 352 129 313 143 q 424 115 392 115 q 546 174 497 115 q 594 350 594 233 q 557 510 594 453 q 436 567 519 567 q 357 547 397 567 q 275 485 317 528 l 275 178 z "},"q":{"ha":833,"x_min":74,"x_max":719,"o":"m 74 340 q 99 490 74 424 q 166 603 124 557 q 263 674 208 649 q 375 699 317 699 q 483 676 435 699 q 575 610 531 654 l 579 610 l 593 682 l 719 682 l 719 -269 l 558 -269 l 558 -40 l 565 74 q 473 9 525 35 q 365 -17 421 -17 q 246 8 300 -17 q 153 78 192 32 q 94 190 115 124 q 74 340 74 256 m 239 342 q 282 173 239 231 q 404 115 325 115 q 558 197 489 115 l 558 504 q 486 553 522 539 q 413 567 450 567 q 345 551 376 567 q 290 508 314 536 q 253 438 267 479 q 239 342 239 396 z "},"r":{"ha":833,"x_min":181,"x_max":753,"o":"m 181 682 l 313 682 l 326 528 l 331 528 q 458 655 383 611 q 621 699 532 699 q 692 692 663 699 q 753 671 722 686 l 719 536 q 660 552 686 547 q 596 557 635 557 q 460 517 525 557 q 342 376 394 476 l 342 0 l 181 0 l 181 682 z "},"s":{"ha":833,"x_min":86,"x_max":740,"o":"m 161 190 q 283 127 219 150 q 425 104 346 104 q 543 127 506 104 q 581 186 581 150 q 532 247 581 222 q 379 299 483 271 q 285 329 331 311 q 204 371 239 347 q 149 425 169 394 q 128 494 128 456 q 206 642 128 585 q 429 699 283 699 q 586 671 513 699 q 713 608 660 643 l 639 510 q 541 559 593 540 q 431 578 489 578 q 319 556 351 578 q 288 503 288 535 q 302 470 288 485 q 342 444 317 456 q 403 421 368 432 q 479 400 438 410 q 587 366 539 385 q 669 324 635 347 q 722 268 703 300 q 740 194 740 236 q 719 112 740 150 q 658 45 699 74 q 558 0 618 17 q 421 -17 499 -17 q 238 14 325 -17 q 86 89 150 44 l 161 190 z "},"t":{"ha":833,"x_min":82,"x_max":761,"o":"m 264 556 l 82 556 l 82 675 l 271 682 l 292 868 l 424 868 l 424 682 l 735 682 l 735 556 l 424 556 l 424 275 q 458 151 424 190 q 581 111 493 111 q 661 119 625 111 q 731 139 697 126 l 761 22 q 660 -5 715 7 q 542 -17 604 -17 q 411 4 464 -17 q 326 63 358 25 q 278 156 293 101 q 264 275 264 210 l 264 556 z "},"u":{"ha":833,"x_min":97,"x_max":715,"o":"m 715 0 l 585 0 l 572 108 l 567 108 q 460 17 518 51 q 325 -17 401 -17 q 151 55 206 -17 q 97 260 97 126 l 97 682 l 257 682 l 257 281 q 285 159 257 197 q 385 121 314 121 q 472 143 433 121 q 556 222 510 165 l 556 682 l 715 682 l 715 0 z "},"v":{"ha":833,"x_min":57,"x_max":776,"o":"m 57 682 l 218 682 l 350 328 q 385 226 369 276 q 418 122 401 175 l 424 122 q 456 226 440 175 q 492 328 472 276 l 624 682 l 776 682 l 511 0 l 329 0 l 57 682 z "},"w":{"ha":833,"x_min":8,"x_max":825,"o":"m 8 682 l 167 682 l 229 328 q 244 231 238 279 q 257 132 250 182 l 263 132 q 278 231 269 182 q 297 328 286 279 l 361 615 l 481 615 l 544 328 q 565 231 556 279 q 582 132 574 182 l 588 132 q 602 231 596 182 q 615 328 608 279 l 678 682 l 825 682 l 699 0 l 511 0 l 451 285 q 435 382 443 333 q 419 483 428 431 l 414 483 q 401 397 407 443 q 383 283 394 350 l 325 0 l 140 0 l 8 682 z "},"x":{"ha":833,"x_min":71,"x_max":763,"o":"m 318 354 l 88 682 l 261 682 l 350 553 q 386 495 367 525 q 425 436 406 465 l 431 436 q 464 496 446 465 q 497 554 482 526 l 578 682 l 746 682 l 514 338 l 763 0 l 589 0 l 490 135 q 449 194 471 163 q 407 256 428 226 l 401 256 q 365 195 382 225 q 328 133 347 165 l 239 0 l 71 0 l 318 354 z "},"y":{"ha":833,"x_min":56,"x_max":779,"o":"m 124 -142 q 151 -149 138 -146 q 181 -151 165 -151 q 285 -119 246 -151 q 344 -35 324 -86 l 361 8 l 56 682 l 215 682 l 356 347 q 393 250 375 301 q 431 147 411 199 l 436 147 q 469 247 451 196 q 504 347 488 299 l 628 682 l 779 682 l 494 -31 q 445 -135 472 -89 q 382 -213 418 -181 q 299 -263 346 -246 q 190 -281 251 -281 q 138 -277 163 -281 q 93 -267 113 -274 l 124 -142 l 124 -142 z "},"z":{"ha":833,"x_min":99,"x_max":746,"o":"m 99 86 l 508 556 l 146 556 l 146 682 l 733 682 l 733 597 l 322 128 l 746 128 l 746 0 l 99 0 l 99 86 z "},"À":{"ha":833,"x_min":28,"x_max":806,"o":"m 529 372 l 497 483 q 457 632 478 556 q 417 783 436 708 l 411 783 q 372 631 392 707 q 331 483 351 556 l 299 372 l 529 372 m 565 246 l 263 246 l 192 0 l 28 0 l 322 908 l 511 908 l 806 0 l 635 0 l 565 246 m 213 1139 l 388 1139 l 504 978 l 375 978 l 213 1139 z "},"Á":{"ha":833,"x_min":28,"x_max":806,"o":"m 529 372 l 497 483 q 457 632 478 556 q 417 783 436 708 l 411 783 q 372 631 392 707 q 331 483 351 556 l 299 372 l 529 372 m 565 246 l 263 246 l 192 0 l 28 0 l 322 908 l 511 908 l 806 0 l 635 0 l 565 246 m 458 978 l 329 978 l 446 1139 l 621 1139 l 458 978 z "},"Â":{"ha":833,"x_min":28,"x_max":806,"o":"m 529 372 l 497 483 q 457 632 478 556 q 417 783 436 708 l 411 783 q 372 631 392 707 q 331 483 351 556 l 299 372 l 529 372 m 565 246 l 263 246 l 192 0 l 28 0 l 322 908 l 511 908 l 806 0 l 635 0 l 565 246 m 206 978 l 339 1139 l 494 1139 l 628 978 l 503 978 l 419 1067 l 414 1067 l 331 978 l 206 978 z "},"Ã":{"ha":833,"x_min":28,"x_max":806,"o":"m 529 372 l 497 483 q 457 632 478 556 q 417 783 436 708 l 411 783 q 372 631 392 707 q 331 483 351 556 l 299 372 l 529 372 m 565 246 l 263 246 l 192 0 l 28 0 l 322 908 l 511 908 l 806 0 l 635 0 l 565 246 m 503 982 q 452 992 475 982 q 409 1016 429 1003 q 372 1040 389 1029 q 336 1050 354 1050 q 303 1033 317 1050 q 282 982 289 1017 l 197 982 q 242 1107 206 1063 q 331 1151 278 1151 q 381 1141 358 1151 q 424 1118 404 1131 q 462 1095 444 1106 q 497 1085 479 1085 q 531 1101 517 1085 q 551 1151 544 1117 l 636 1151 q 592 1027 628 1072 q 503 982 556 982 z "},"Ä":{"ha":833,"x_min":28,"x_max":806,"o":"m 529 372 l 497 483 q 457 632 478 556 q 417 783 436 708 l 411 783 q 372 631 392 707 q 331 483 351 556 l 299 372 l 529 372 m 565 246 l 263 246 l 192 0 l 28 0 l 322 908 l 511 908 l 806 0 l 635 0 l 565 246 m 288 983 q 228 1006 251 983 q 206 1065 206 1029 q 228 1125 206 1101 q 288 1149 251 1149 q 347 1125 324 1149 q 371 1065 371 1101 q 347 1006 371 1029 q 288 983 324 983 m 546 983 q 486 1006 510 983 q 463 1065 463 1029 q 486 1125 463 1101 q 546 1149 510 1149 q 605 1125 582 1149 q 628 1065 628 1101 q 605 1006 628 1029 q 546 983 582 983 z "},"Ā":{"ha":833,"x_min":28,"x_max":806,"o":"m 529 372 l 497 483 q 457 632 478 556 q 417 783 436 708 l 411 783 q 372 631 392 707 q 331 483 351 556 l 299 372 l 529 372 m 565 246 l 263 246 l 192 0 l 28 0 l 322 908 l 511 908 l 806 0 l 635 0 l 565 246 m 232 1111 l 601 1111 l 601 1006 l 232 1006 l 232 1111 z "},"Ă":{"ha":833,"x_min":28,"x_max":806,"o":"m 529 372 l 497 483 q 457 632 478 556 q 417 783 436 708 l 411 783 q 372 631 392 707 q 331 483 351 556 l 299 372 l 529 372 m 565 246 l 263 246 l 192 0 l 28 0 l 322 908 l 511 908 l 806 0 l 635 0 l 565 246 m 417 979 q 286 1026 329 979 q 236 1139 243 1072 l 328 1139 q 355 1086 335 1108 q 417 1064 375 1064 q 478 1086 458 1064 q 506 1139 499 1108 l 597 1139 q 547 1026 590 1072 q 417 979 504 979 z "},"Å":{"ha":833,"x_min":28,"x_max":806,"o":"m 529 372 l 497 483 q 457 632 478 556 q 417 783 436 708 l 411 783 q 372 631 392 707 q 331 483 351 556 l 299 372 l 529 372 m 565 246 l 263 246 l 192 0 l 28 0 l 322 908 l 511 908 l 806 0 l 635 0 l 565 246 m 417 969 q 313 1004 353 969 q 274 1099 274 1039 q 313 1192 274 1157 q 417 1228 353 1228 q 519 1192 479 1228 q 560 1099 560 1157 q 519 1004 560 1039 q 417 969 479 969 m 417 1033 q 460 1050 442 1033 q 478 1099 478 1067 q 460 1147 478 1129 q 417 1164 442 1164 q 373 1147 390 1164 q 356 1099 356 1129 q 373 1050 356 1067 q 417 1033 390 1033 z "},"Ǎ":{"ha":833,"x_min":28,"x_max":806,"o":"m 529 372 l 497 483 q 457 632 478 556 q 417 783 436 708 l 411 783 q 372 631 392 707 q 331 483 351 556 l 299 372 l 529 372 m 565 246 l 263 246 l 192 0 l 28 0 l 322 908 l 511 908 l 806 0 l 635 0 l 565 246 m 628 1139 l 494 978 l 339 978 l 206 1139 l 331 1139 l 414 1050 l 419 1050 l 503 1139 l 628 1139 z "},"Ạ":{"ha":833,"x_min":28,"x_max":806,"o":"m 529 372 l 497 483 q 457 632 478 556 q 417 783 436 708 l 411 783 q 372 631 392 707 q 331 483 351 556 l 299 372 l 529 372 m 565 246 l 263 246 l 192 0 l 28 0 l 322 908 l 511 908 l 806 0 l 635 0 l 565 246 m 417 -333 q 335 -304 368 -333 q 303 -226 303 -275 q 335 -148 303 -178 q 417 -118 368 -118 q 498 -148 465 -118 q 531 -226 531 -178 q 498 -304 531 -275 q 417 -333 465 -333 z "},"Ả":{"ha":833,"x_min":28,"x_max":806,"o":"m 529 372 l 497 483 q 457 632 478 556 q 417 783 436 708 l 411 783 q 372 631 392 707 q 331 483 351 556 l 299 372 l 529 372 m 565 246 l 263 246 l 192 0 l 28 0 l 322 908 l 511 908 l 806 0 l 635 0 l 565 246 m 358 1032 q 408 1050 388 1039 q 428 1083 428 1061 q 401 1120 428 1107 q 315 1136 375 1133 l 333 1221 q 496 1187 444 1218 q 547 1101 547 1156 q 533 1044 547 1068 q 494 1004 518 1021 q 439 978 471 988 q 372 964 407 968 l 358 1032 z "},"Ấ":{"ha":833,"x_min":28,"x_max":806,"o":"m 529 372 l 497 483 q 457 632 478 556 q 417 783 436 708 l 411 783 q 372 631 392 707 q 331 483 351 556 l 299 372 l 529 372 m 565 246 l 263 246 l 192 0 l 28 0 l 322 908 l 511 908 l 806 0 l 635 0 l 565 246 m 656 1231 l 785 1231 l 653 1069 l 558 1069 l 656 1231 m 347 1131 l 486 1131 l 617 978 l 500 978 l 419 1058 l 414 1058 l 333 978 l 217 978 l 347 1131 z "},"Ầ":{"ha":833,"x_min":28,"x_max":806,"o":"m 529 372 l 497 483 q 457 632 478 556 q 417 783 436 708 l 411 783 q 372 631 392 707 q 331 483 351 556 l 299 372 l 529 372 m 565 246 l 263 246 l 192 0 l 28 0 l 322 908 l 511 908 l 806 0 l 635 0 l 565 246 m 710 1069 l 615 1069 l 485 1231 l 614 1231 l 710 1069 m 347 1131 l 486 1131 l 617 978 l 500 978 l 419 1058 l 414 1058 l 333 978 l 217 978 l 347 1131 z "},"Ẩ":{"ha":833,"x_min":28,"x_max":806,"o":"m 529 372 l 497 483 q 457 632 478 556 q 417 783 436 708 l 411 783 q 372 631 392 707 q 331 483 351 556 l 299 372 l 529 372 m 565 246 l 263 246 l 192 0 l 28 0 l 322 908 l 511 908 l 806 0 l 635 0 l 565 246 m 576 1101 q 615 1117 600 1107 q 631 1146 631 1126 q 609 1181 631 1169 q 536 1194 588 1192 l 551 1267 q 693 1235 650 1263 q 736 1160 736 1207 q 694 1076 736 1103 q 592 1044 651 1050 l 576 1101 m 347 1131 l 486 1131 l 617 978 l 500 978 l 419 1058 l 414 1058 l 333 978 l 217 978 l 347 1131 z "},"Ẫ":{"ha":833,"x_min":28,"x_max":806,"o":"m 529 372 l 497 483 q 457 632 478 556 q 417 783 436 708 l 411 783 q 372 631 392 707 q 331 483 351 556 l 299 372 l 529 372 m 565 246 l 263 246 l 192 0 l 28 0 l 322 908 l 511 908 l 806 0 l 635 0 l 565 246 m 347 1131 l 486 1131 l 617 978 l 500 978 l 419 1058 l 414 1058 l 333 978 l 217 978 l 347 1131 m 221 1181 q 260 1286 228 1250 q 339 1322 292 1322 q 386 1313 365 1322 q 424 1294 407 1304 q 457 1275 442 1283 q 488 1267 472 1267 q 520 1280 507 1267 q 539 1322 533 1293 l 613 1322 q 574 1217 606 1253 q 494 1181 542 1181 q 447 1189 467 1181 q 409 1208 426 1197 q 376 1227 392 1218 q 346 1236 361 1236 q 313 1223 326 1236 q 294 1181 300 1210 l 221 1181 z "},"Ậ":{"ha":833,"x_min":28,"x_max":806,"o":"m 529 372 l 497 483 q 457 632 478 556 q 417 783 436 708 l 411 783 q 372 631 392 707 q 331 483 351 556 l 299 372 l 529 372 m 565 246 l 263 246 l 192 0 l 28 0 l 322 908 l 511 908 l 806 0 l 635 0 l 565 246 m 206 978 l 339 1139 l 494 1139 l 628 978 l 503 978 l 419 1067 l 414 1067 l 331 978 l 206 978 m 417 -333 q 335 -304 368 -333 q 303 -226 303 -275 q 335 -148 303 -178 q 417 -118 368 -118 q 498 -148 465 -118 q 531 -226 531 -178 q 498 -304 531 -275 q 417 -333 465 -333 z "},"Ắ":{"ha":833,"x_min":28,"x_max":806,"o":"m 529 372 l 497 483 q 457 632 478 556 q 417 783 436 708 l 411 783 q 372 631 392 707 q 331 483 351 556 l 299 372 l 529 372 m 565 246 l 263 246 l 192 0 l 28 0 l 322 908 l 511 908 l 806 0 l 635 0 l 565 246 m 454 1274 l 582 1274 l 444 1118 l 358 1118 l 454 1274 m 417 979 q 288 1025 331 979 q 238 1136 244 1071 l 315 1136 q 346 1079 324 1103 q 417 1056 368 1056 q 488 1079 465 1056 q 518 1136 510 1103 l 596 1136 q 545 1025 589 1071 q 417 979 501 979 z "},"Ằ":{"ha":833,"x_min":28,"x_max":806,"o":"m 529 372 l 497 483 q 457 632 478 556 q 417 783 436 708 l 411 783 q 372 631 392 707 q 331 483 351 556 l 299 372 l 529 372 m 565 246 l 263 246 l 192 0 l 28 0 l 322 908 l 511 908 l 806 0 l 635 0 l 565 246 m 475 1118 l 389 1118 l 251 1274 l 379 1274 l 475 1118 m 417 979 q 288 1025 331 979 q 238 1136 244 1071 l 315 1136 q 346 1079 324 1103 q 417 1056 368 1056 q 488 1079 465 1056 q 518 1136 510 1103 l 596 1136 q 545 1025 589 1071 q 417 979 501 979 z "},"Ẳ":{"ha":833,"x_min":28,"x_max":806,"o":"m 529 372 l 497 483 q 457 632 478 556 q 417 783 436 708 l 411 783 q 372 631 392 707 q 331 483 351 556 l 299 372 l 529 372 m 565 246 l 263 246 l 192 0 l 28 0 l 322 908 l 511 908 l 806 0 l 635 0 l 565 246 m 363 1172 q 401 1188 386 1178 q 417 1217 417 1197 q 395 1251 417 1240 q 322 1267 374 1263 l 338 1338 q 479 1307 436 1335 q 522 1231 522 1279 q 480 1148 522 1174 q 378 1115 438 1122 l 363 1172 m 417 979 q 288 1025 331 979 q 238 1136 244 1071 l 315 1136 q 346 1079 324 1103 q 417 1056 368 1056 q 488 1079 465 1056 q 518 1136 510 1103 l 596 1136 q 545 1025 589 1071 q 417 979 501 979 z "},"Ẵ":{"ha":833,"x_min":28,"x_max":806,"o":"m 529 372 l 497 483 q 457 632 478 556 q 417 783 436 708 l 411 783 q 372 631 392 707 q 331 483 351 556 l 299 372 l 529 372 m 565 246 l 263 246 l 192 0 l 28 0 l 322 908 l 511 908 l 806 0 l 635 0 l 565 246 m 417 979 q 288 1025 331 979 q 238 1136 244 1071 l 315 1136 q 346 1079 324 1103 q 417 1056 368 1056 q 488 1079 465 1056 q 518 1136 510 1103 l 596 1136 q 545 1025 589 1071 q 417 979 501 979 m 218 1179 q 258 1286 225 1249 q 338 1324 290 1324 q 381 1315 361 1324 q 417 1294 400 1306 q 451 1274 435 1283 q 482 1265 467 1265 q 536 1324 524 1265 l 611 1324 q 572 1217 604 1254 q 492 1179 539 1179 q 447 1188 467 1179 q 410 1208 428 1197 q 377 1228 393 1219 q 346 1238 361 1238 q 312 1222 326 1238 q 293 1179 297 1207 l 218 1179 z "},"Ặ":{"ha":833,"x_min":28,"x_max":806,"o":"m 529 372 l 497 483 q 457 632 478 556 q 417 783 436 708 l 411 783 q 372 631 392 707 q 331 483 351 556 l 299 372 l 529 372 m 565 246 l 263 246 l 192 0 l 28 0 l 322 908 l 511 908 l 806 0 l 635 0 l 565 246 m 417 979 q 286 1026 329 979 q 236 1139 243 1072 l 328 1139 q 355 1086 335 1108 q 417 1064 375 1064 q 478 1086 458 1064 q 506 1139 499 1108 l 597 1139 q 547 1026 590 1072 q 417 979 504 979 m 417 -333 q 335 -304 368 -333 q 303 -226 303 -275 q 335 -148 303 -178 q 417 -118 368 -118 q 498 -148 465 -118 q 531 -226 531 -178 q 498 -304 531 -275 q 417 -333 465 -333 z "},"Ą":{"ha":833,"x_min":28,"x_max":842,"o":"m 529 372 l 497 483 q 456 632 476 556 q 417 783 436 708 l 411 783 q 372 631 392 707 q 331 483 351 556 l 299 372 l 529 372 m 842 -258 q 782 -290 818 -278 q 714 -303 746 -303 q 609 -271 651 -303 q 567 -176 567 -239 q 577 -119 567 -146 q 603 -69 588 -92 q 639 -28 619 -46 q 676 0 658 -11 l 635 0 l 565 246 l 263 246 l 192 0 l 28 0 l 322 908 l 511 908 l 806 0 q 758 -21 779 -7 q 720 -53 736 -35 q 696 -94 704 -72 q 688 -136 688 -115 q 705 -180 688 -165 q 746 -194 722 -194 q 803 -175 779 -194 l 842 -258 z "},"Æ":{"ha":833,"x_min":-3,"x_max":824,"o":"m 436 363 l 436 785 l 432 785 q 385 644 408 714 q 338 508 361 575 l 288 363 l 436 363 m 824 136 l 824 0 l 436 0 l 436 236 l 244 236 l 164 0 l -3 0 l 322 908 l 811 908 l 811 772 l 581 772 l 581 542 l 764 542 l 764 406 l 581 406 l 581 136 l 824 136 z "},"Ƀ":{"ha":833,"x_min":25,"x_max":772,"o":"m 411 117 q 565 159 511 117 q 618 286 618 201 q 565 404 618 367 q 411 442 513 442 l 292 442 l 292 326 l 464 326 l 464 244 l 292 244 l 292 117 l 411 117 m 292 540 l 389 540 q 527 574 485 540 q 569 674 569 607 q 526 764 569 736 q 393 792 482 792 l 292 792 l 292 540 m 569 499 q 720 426 668 481 q 772 275 772 371 q 747 153 772 204 q 675 67 721 101 q 566 17 629 33 q 428 0 503 0 l 131 0 l 131 244 l 25 244 l 25 319 l 131 326 l 131 908 l 404 908 q 533 897 474 908 q 634 859 592 885 q 701 791 676 833 q 725 689 725 749 q 687 576 725 626 q 569 504 649 525 l 569 499 z "},"Ç":{"ha":833,"x_min":83,"x_max":779,"o":"m 83 451 q 115 651 83 563 q 203 800 147 739 q 337 893 260 861 q 504 925 414 925 q 653 890 588 925 q 763 811 718 856 l 672 711 q 598 765 639 744 q 504 785 557 785 q 400 762 447 785 q 319 697 353 739 q 267 593 286 654 q 249 456 249 532 q 267 316 249 378 q 320 212 286 254 q 402 147 354 169 q 508 124 450 124 q 608 147 564 124 q 690 214 651 171 l 779 115 q 654 17 724 51 q 499 -17 585 -17 q 335 14 411 -17 q 203 104 260 44 q 115 251 147 164 q 83 451 83 339 m 438 4 l 535 4 l 503 -64 q 561 -99 538 -76 q 585 -165 585 -122 q 567 -222 585 -199 q 517 -262 549 -246 q 445 -289 486 -279 q 360 -301 404 -299 l 347 -232 q 433 -210 400 -225 q 465 -168 465 -196 q 446 -131 465 -146 q 382 -104 426 -115 l 438 4 z "},"Ć":{"ha":833,"x_min":83,"x_max":779,"o":"m 83 451 q 115 651 83 563 q 203 800 147 739 q 337 893 260 861 q 504 925 414 925 q 653 890 588 925 q 763 811 718 856 l 672 711 q 598 765 639 744 q 504 785 557 785 q 400 762 447 785 q 319 697 353 739 q 267 593 286 654 q 249 456 249 532 q 267 316 249 378 q 320 212 286 254 q 402 147 354 169 q 508 124 450 124 q 608 147 564 124 q 690 214 651 171 l 779 115 q 654 17 724 51 q 499 -17 585 -17 q 335 14 411 -17 q 203 104 260 44 q 115 251 147 164 q 83 451 83 339 m 528 978 l 399 978 l 515 1139 l 690 1139 l 528 978 z "},"Ĉ":{"ha":833,"x_min":83,"x_max":779,"o":"m 83 451 q 115 651 83 563 q 203 800 147 739 q 337 893 260 861 q 504 925 414 925 q 653 890 588 925 q 763 811 718 856 l 672 711 q 598 765 639 744 q 504 785 557 785 q 400 762 447 785 q 319 697 353 739 q 267 593 286 654 q 249 456 249 532 q 267 316 249 378 q 320 212 286 254 q 402 147 354 169 q 508 124 450 124 q 608 147 564 124 q 690 214 651 171 l 779 115 q 654 17 724 51 q 499 -17 585 -17 q 335 14 411 -17 q 203 104 260 44 q 115 251 147 164 q 83 451 83 339 m 275 978 l 408 1139 l 564 1139 l 697 978 l 572 978 l 489 1067 l 483 1067 l 400 978 l 275 978 z "},"Č":{"ha":833,"x_min":83,"x_max":779,"o":"m 83 451 q 115 651 83 563 q 203 800 147 739 q 337 893 260 861 q 504 925 414 925 q 653 890 588 925 q 763 811 718 856 l 672 711 q 598 765 639 744 q 504 785 557 785 q 400 762 447 785 q 319 697 353 739 q 267 593 286 654 q 249 456 249 532 q 267 316 249 378 q 320 212 286 254 q 402 147 354 169 q 508 124 450 124 q 608 147 564 124 q 690 214 651 171 l 779 115 q 654 17 724 51 q 499 -17 585 -17 q 335 14 411 -17 q 203 104 260 44 q 115 251 147 164 q 83 451 83 339 m 697 1139 l 564 978 l 408 978 l 275 1139 l 400 1139 l 483 1050 l 489 1050 l 572 1139 l 697 1139 z "},"Ċ":{"ha":833,"x_min":83,"x_max":779,"o":"m 83 451 q 115 651 83 563 q 203 800 147 739 q 337 893 260 861 q 504 925 414 925 q 653 890 588 925 q 763 811 718 856 l 672 711 q 598 765 639 744 q 504 785 557 785 q 400 762 447 785 q 319 697 353 739 q 267 593 286 654 q 249 456 249 532 q 267 316 249 378 q 320 212 286 254 q 402 147 354 169 q 508 124 450 124 q 608 147 564 124 q 690 214 651 171 l 779 115 q 654 17 724 51 q 499 -17 585 -17 q 335 14 411 -17 q 203 104 260 44 q 115 251 147 164 q 83 451 83 339 m 486 982 q 415 1008 443 982 q 388 1074 388 1033 q 415 1139 388 1114 q 486 1164 443 1164 q 557 1139 529 1164 q 585 1074 585 1114 q 557 1008 585 1033 q 486 982 529 982 z "},"Ď":{"ha":833,"x_min":104,"x_max":767,"o":"m 104 908 l 339 908 q 653 796 540 908 q 767 458 767 683 q 738 260 767 346 q 654 116 708 174 q 522 29 600 58 q 347 0 444 0 l 104 0 l 104 908 m 329 131 q 531 210 460 131 q 601 458 601 290 q 531 701 601 625 q 329 778 460 778 l 265 778 l 265 131 l 329 131 m 626 1139 l 493 978 l 338 978 l 204 1139 l 329 1139 l 413 1050 l 418 1050 l 501 1139 l 626 1139 z "},"Ḍ":{"ha":833,"x_min":104,"x_max":767,"o":"m 104 908 l 339 908 q 653 796 540 908 q 767 458 767 683 q 738 260 767 346 q 654 116 708 174 q 522 29 600 58 q 347 0 444 0 l 104 0 l 104 908 m 329 131 q 531 210 460 131 q 601 458 601 290 q 531 701 601 625 q 329 778 460 778 l 265 778 l 265 131 l 329 131 m 404 -333 q 323 -304 356 -333 q 290 -226 290 -275 q 323 -148 290 -178 q 404 -118 356 -118 q 485 -148 453 -118 q 518 -226 518 -178 q 485 -304 518 -275 q 404 -333 453 -333 z "},"Ḏ":{"ha":833,"x_min":104,"x_max":767,"o":"m 104 908 l 339 908 q 653 796 540 908 q 767 458 767 683 q 738 260 767 346 q 654 116 708 174 q 522 29 600 58 q 347 0 444 0 l 104 0 l 104 908 m 329 131 q 531 210 460 131 q 601 458 601 290 q 531 701 601 625 q 329 778 460 778 l 265 778 l 265 131 l 329 131 m 585 -250 l 222 -250 l 222 -144 l 585 -144 l 585 -250 z "},"Đ":{"ha":833,"x_min":13,"x_max":775,"o":"m 113 432 l 13 432 l 13 507 l 113 514 l 113 908 l 347 908 q 661 796 547 908 q 775 458 775 683 q 746 260 775 346 q 663 116 717 174 q 531 29 608 58 q 356 0 453 0 l 113 0 l 113 432 m 338 131 q 539 210 468 131 q 610 458 610 290 q 538 701 610 625 q 338 778 467 778 l 274 778 l 274 514 l 447 514 l 447 432 l 274 432 l 274 131 l 338 131 z "},"È":{"ha":833,"x_min":144,"x_max":739,"o":"m 144 908 l 725 908 l 725 772 l 306 772 l 306 540 l 661 540 l 661 404 l 306 404 l 306 136 l 739 136 l 739 0 l 144 0 l 144 908 m 249 1139 l 424 1139 l 540 978 l 411 978 l 249 1139 z "},"É":{"ha":833,"x_min":144,"x_max":739,"o":"m 144 908 l 725 908 l 725 772 l 306 772 l 306 540 l 661 540 l 661 404 l 306 404 l 306 136 l 739 136 l 739 0 l 144 0 l 144 908 m 494 978 l 365 978 l 482 1139 l 657 1139 l 494 978 z "},"Ê":{"ha":833,"x_min":144,"x_max":739,"o":"m 144 908 l 725 908 l 725 772 l 306 772 l 306 540 l 661 540 l 661 404 l 306 404 l 306 136 l 739 136 l 739 0 l 144 0 l 144 908 m 242 978 l 375 1139 l 531 1139 l 664 978 l 539 978 l 456 1067 l 450 1067 l 367 978 l 242 978 z "},"Ě":{"ha":833,"x_min":144,"x_max":739,"o":"m 144 908 l 725 908 l 725 772 l 306 772 l 306 540 l 661 540 l 661 404 l 306 404 l 306 136 l 739 136 l 739 0 l 144 0 l 144 908 m 664 1139 l 531 978 l 375 978 l 242 1139 l 367 1139 l 450 1050 l 456 1050 l 539 1139 l 664 1139 z "},"Ë":{"ha":833,"x_min":144,"x_max":739,"o":"m 144 908 l 725 908 l 725 772 l 306 772 l 306 540 l 661 540 l 661 404 l 306 404 l 306 136 l 739 136 l 739 0 l 144 0 l 144 908 m 324 983 q 265 1006 288 983 q 242 1065 242 1029 q 265 1125 242 1101 q 324 1149 288 1149 q 383 1125 360 1149 q 407 1065 407 1101 q 383 1006 407 1029 q 324 983 360 983 m 582 983 q 522 1006 546 983 q 499 1065 499 1029 q 522 1125 499 1101 q 582 1149 546 1149 q 641 1125 618 1149 q 664 1065 664 1101 q 641 1006 664 1029 q 582 983 618 983 z "},"Ē":{"ha":833,"x_min":144,"x_max":739,"o":"m 144 908 l 725 908 l 725 772 l 306 772 l 306 540 l 661 540 l 661 404 l 306 404 l 306 136 l 739 136 l 739 0 l 144 0 l 144 908 m 268 1111 l 638 1111 l 638 1006 l 268 1006 l 268 1111 z "},"Ĕ":{"ha":833,"x_min":144,"x_max":739,"o":"m 144 908 l 725 908 l 725 772 l 306 772 l 306 540 l 661 540 l 661 404 l 306 404 l 306 136 l 739 136 l 739 0 l 144 0 l 144 908 m 453 979 q 322 1026 365 979 q 272 1139 279 1072 l 364 1139 q 391 1086 371 1108 q 453 1064 411 1064 q 515 1086 494 1064 q 542 1139 535 1108 l 633 1139 q 583 1026 626 1072 q 453 979 540 979 z "},"Ė":{"ha":833,"x_min":144,"x_max":739,"o":"m 144 908 l 725 908 l 725 772 l 306 772 l 306 540 l 661 540 l 661 404 l 306 404 l 306 136 l 739 136 l 739 0 l 144 0 l 144 908 m 453 982 q 382 1008 410 982 q 354 1074 354 1033 q 382 1139 354 1114 q 453 1164 410 1164 q 524 1139 496 1164 q 551 1074 551 1114 q 524 1008 551 1033 q 453 982 496 982 z "},"Ẹ":{"ha":833,"x_min":144,"x_max":739,"o":"m 144 908 l 725 908 l 725 772 l 306 772 l 306 540 l 661 540 l 661 404 l 306 404 l 306 136 l 739 136 l 739 0 l 144 0 l 144 908 m 453 -333 q 372 -304 404 -333 q 339 -226 339 -275 q 372 -148 339 -178 q 453 -118 404 -118 q 534 -148 501 -118 q 567 -226 567 -178 q 534 -304 567 -275 q 453 -333 501 -333 z "},"Ẻ":{"ha":833,"x_min":144,"x_max":739,"o":"m 144 908 l 725 908 l 725 772 l 306 772 l 306 540 l 661 540 l 661 404 l 306 404 l 306 136 l 739 136 l 739 0 l 144 0 l 144 908 m 394 1032 q 444 1050 424 1039 q 464 1083 464 1061 q 438 1120 464 1107 q 351 1136 411 1133 l 369 1221 q 532 1187 481 1218 q 583 1101 583 1156 q 569 1044 583 1068 q 531 1004 554 1021 q 475 978 507 988 q 408 964 443 968 l 394 1032 z "},"Ẽ":{"ha":833,"x_min":144,"x_max":739,"o":"m 144 908 l 725 908 l 725 772 l 306 772 l 306 540 l 661 540 l 661 404 l 306 404 l 306 136 l 739 136 l 739 0 l 144 0 l 144 908 m 539 982 q 488 992 511 982 q 445 1016 465 1003 q 408 1040 425 1029 q 372 1050 390 1050 q 339 1033 353 1050 q 318 982 325 1017 l 233 982 q 278 1107 242 1063 q 367 1151 314 1151 q 417 1141 394 1151 q 460 1118 440 1131 q 498 1095 481 1106 q 533 1085 515 1085 q 567 1101 553 1085 q 588 1151 581 1117 l 672 1151 q 628 1027 664 1072 q 539 982 592 982 z "},"Ế":{"ha":833,"x_min":144,"x_max":821,"o":"m 144 908 l 725 908 l 725 772 l 306 772 l 306 540 l 661 540 l 661 404 l 306 404 l 306 136 l 739 136 l 739 0 l 144 0 l 144 908 m 692 1231 l 821 1231 l 689 1069 l 594 1069 l 692 1231 m 383 1131 l 522 1131 l 653 978 l 536 978 l 456 1058 l 450 1058 l 369 978 l 253 978 l 383 1131 z "},"Ề":{"ha":833,"x_min":144,"x_max":746,"o":"m 144 908 l 725 908 l 725 772 l 306 772 l 306 540 l 661 540 l 661 404 l 306 404 l 306 136 l 739 136 l 739 0 l 144 0 l 144 908 m 746 1069 l 651 1069 l 521 1231 l 650 1231 l 746 1069 m 383 1131 l 522 1131 l 653 978 l 536 978 l 456 1058 l 450 1058 l 369 978 l 253 978 l 383 1131 z "},"Ể":{"ha":833,"x_min":144,"x_max":772,"o":"m 144 908 l 725 908 l 725 772 l 306 772 l 306 540 l 661 540 l 661 404 l 306 404 l 306 136 l 739 136 l 739 0 l 144 0 l 144 908 m 613 1101 q 651 1117 636 1107 q 667 1146 667 1126 q 645 1181 667 1169 q 572 1194 624 1192 l 588 1267 q 729 1235 686 1263 q 772 1160 772 1207 q 730 1076 772 1103 q 628 1044 688 1050 l 613 1101 m 383 1131 l 522 1131 l 653 978 l 536 978 l 456 1058 l 450 1058 l 369 978 l 253 978 l 383 1131 z "},"Ễ":{"ha":833,"x_min":144,"x_max":739,"o":"m 144 908 l 725 908 l 725 772 l 306 772 l 306 540 l 661 540 l 661 404 l 306 404 l 306 136 l 739 136 l 739 0 l 144 0 l 144 908 m 383 1131 l 522 1131 l 653 978 l 536 978 l 456 1058 l 450 1058 l 369 978 l 253 978 l 383 1131 m 257 1181 q 296 1286 264 1250 q 375 1322 328 1322 q 422 1313 401 1322 q 460 1294 443 1304 q 493 1275 478 1283 q 524 1267 508 1267 q 556 1280 543 1267 q 575 1322 569 1293 l 649 1322 q 610 1217 642 1253 q 531 1181 578 1181 q 483 1189 503 1181 q 445 1208 463 1197 q 413 1227 428 1218 q 382 1236 397 1236 q 349 1223 363 1236 q 331 1181 336 1210 l 257 1181 z "},"Ệ":{"ha":833,"x_min":144,"x_max":739,"o":"m 144 908 l 725 908 l 725 772 l 306 772 l 306 540 l 661 540 l 661 404 l 306 404 l 306 136 l 739 136 l 739 0 l 144 0 l 144 908 m 242 978 l 375 1139 l 531 1139 l 664 978 l 539 978 l 456 1067 l 450 1067 l 367 978 l 242 978 m 453 -333 q 372 -304 404 -333 q 339 -226 339 -275 q 372 -148 339 -178 q 453 -118 404 -118 q 534 -148 501 -118 q 567 -226 567 -178 q 534 -304 567 -275 q 453 -333 501 -333 z "},"Ę":{"ha":833,"x_min":144,"x_max":764,"o":"m 144 908 l 725 908 l 725 772 l 306 772 l 306 540 l 661 540 l 661 404 l 306 404 l 306 136 l 739 136 l 739 0 l 733 0 q 688 -15 710 -3 q 648 -45 665 -26 q 620 -87 631 -64 q 610 -136 610 -111 q 629 -181 610 -167 q 672 -194 649 -194 q 701 -189 688 -194 q 725 -175 714 -183 l 764 -258 q 704 -290 740 -278 q 636 -303 668 -303 q 531 -271 574 -303 q 489 -176 489 -239 q 499 -119 489 -146 q 524 -69 508 -92 q 558 -29 539 -47 q 596 0 576 -11 l 144 0 l 144 908 z "},"Ĝ":{"ha":833,"x_min":67,"x_max":750,"o":"m 67 451 q 98 651 67 564 q 184 800 129 739 q 315 893 239 861 q 479 925 390 925 q 633 890 569 925 q 736 811 696 854 l 647 711 q 577 764 615 743 q 479 785 539 785 q 380 762 425 785 q 302 697 335 739 q 251 593 269 654 q 233 456 233 532 q 297 212 233 300 q 482 124 360 124 q 551 134 518 124 q 604 164 585 144 l 604 360 l 447 360 l 447 492 l 750 492 l 750 92 q 633 15 706 47 q 472 -17 560 -17 q 312 14 386 -17 q 183 104 238 44 q 98 251 129 164 q 67 451 67 339 m 249 978 l 382 1139 l 538 1139 l 671 978 l 546 978 l 463 1067 l 457 1067 l 374 978 l 249 978 z "},"Ğ":{"ha":833,"x_min":67,"x_max":750,"o":"m 67 451 q 98 651 67 564 q 184 800 129 739 q 315 893 239 861 q 479 925 390 925 q 633 890 569 925 q 736 811 696 854 l 647 711 q 577 764 615 743 q 479 785 539 785 q 380 762 425 785 q 302 697 335 739 q 251 593 269 654 q 233 456 233 532 q 297 212 233 300 q 482 124 360 124 q 551 134 518 124 q 604 164 585 144 l 604 360 l 447 360 l 447 492 l 750 492 l 750 92 q 633 15 706 47 q 472 -17 560 -17 q 312 14 386 -17 q 183 104 238 44 q 98 251 129 164 q 67 451 67 339 m 460 979 q 329 1026 372 979 q 279 1139 286 1072 l 371 1139 q 398 1086 378 1108 q 460 1064 418 1064 q 522 1086 501 1064 q 549 1139 542 1108 l 640 1139 q 590 1026 633 1072 q 460 979 547 979 z "},"Ġ":{"ha":833,"x_min":67,"x_max":750,"o":"m 67 451 q 98 651 67 564 q 184 800 129 739 q 315 893 239 861 q 479 925 390 925 q 633 890 569 925 q 736 811 696 854 l 647 711 q 577 764 615 743 q 479 785 539 785 q 380 762 425 785 q 302 697 335 739 q 251 593 269 654 q 233 456 233 532 q 297 212 233 300 q 482 124 360 124 q 551 134 518 124 q 604 164 585 144 l 604 360 l 447 360 l 447 492 l 750 492 l 750 92 q 633 15 706 47 q 472 -17 560 -17 q 312 14 386 -17 q 183 104 238 44 q 98 251 129 164 q 67 451 67 339 m 460 982 q 389 1008 417 982 q 361 1074 361 1033 q 389 1139 361 1114 q 460 1164 417 1164 q 531 1139 503 1164 q 558 1074 558 1114 q 531 1008 558 1033 q 460 982 503 982 z "},"Ģ":{"ha":833,"x_min":67,"x_max":750,"o":"m 67 451 q 98 651 67 564 q 184 800 129 739 q 315 893 239 861 q 479 925 390 925 q 633 890 569 925 q 736 811 696 854 l 647 711 q 577 764 615 743 q 479 785 539 785 q 380 762 425 785 q 302 697 335 739 q 251 593 269 654 q 233 456 233 532 q 297 212 233 300 q 482 124 360 124 q 551 134 518 124 q 604 164 585 144 l 604 360 l 447 360 l 447 492 l 750 492 l 750 92 q 633 15 706 47 q 472 -17 560 -17 q 312 14 386 -17 q 183 104 238 44 q 98 251 129 164 q 67 451 67 339 m 421 -62 q 538 -99 503 -72 q 572 -174 572 -125 q 554 -231 572 -207 q 505 -271 536 -254 q 433 -297 474 -287 q 349 -310 393 -307 l 335 -240 q 421 -221 388 -233 q 454 -183 454 -208 q 437 -147 454 -160 q 388 -126 419 -133 l 421 -62 l 421 -62 z "},"Ǧ":{"ha":833,"x_min":67,"x_max":750,"o":"m 67 451 q 98 651 67 564 q 184 800 129 739 q 315 893 239 861 q 479 925 390 925 q 633 890 569 925 q 736 811 696 854 l 647 711 q 577 764 615 743 q 479 785 539 785 q 380 762 425 785 q 302 697 335 739 q 251 593 269 654 q 233 456 233 532 q 297 212 233 300 q 482 124 360 124 q 551 134 518 124 q 604 164 585 144 l 604 360 l 447 360 l 447 492 l 750 492 l 750 92 q 633 15 706 47 q 472 -17 560 -17 q 312 14 386 -17 q 183 104 238 44 q 98 251 129 164 q 67 451 67 339 m 671 1139 l 538 978 l 382 978 l 249 1139 l 374 1139 l 457 1050 l 463 1050 l 546 1139 l 671 1139 z "},"Ḡ":{"ha":833,"x_min":67,"x_max":750,"o":"m 67 451 q 98 651 67 564 q 184 800 129 739 q 315 893 239 861 q 479 925 390 925 q 633 890 569 925 q 736 811 696 854 l 647 711 q 577 764 615 743 q 479 785 539 785 q 380 762 425 785 q 302 697 335 739 q 251 593 269 654 q 233 456 233 532 q 297 212 233 300 q 482 124 360 124 q 551 134 518 124 q 604 164 585 144 l 604 360 l 447 360 l 447 492 l 750 492 l 750 92 q 633 15 706 47 q 472 -17 560 -17 q 312 14 386 -17 q 183 104 238 44 q 98 251 129 164 q 67 451 67 339 m 275 1111 l 644 1111 l 644 1006 l 275 1006 l 275 1111 z "},"Ĥ":{"ha":833,"x_min":100,"x_max":733,"o":"m 100 908 l 261 908 l 261 543 l 572 543 l 572 908 l 733 908 l 733 0 l 572 0 l 572 403 l 261 403 l 261 0 l 100 0 l 100 908 m 206 978 l 339 1139 l 494 1139 l 628 978 l 503 978 l 419 1067 l 414 1067 l 331 978 l 206 978 z "},"Ḥ":{"ha":833,"x_min":100,"x_max":733,"o":"m 100 908 l 261 908 l 261 543 l 572 543 l 572 908 l 733 908 l 733 0 l 572 0 l 572 403 l 261 403 l 261 0 l 100 0 l 100 908 m 417 -333 q 335 -304 368 -333 q 303 -226 303 -275 q 335 -148 303 -178 q 417 -118 368 -118 q 498 -148 465 -118 q 531 -226 531 -178 q 498 -304 531 -275 q 417 -333 465 -333 z "},"Ḫ":{"ha":833,"x_min":100,"x_max":733,"o":"m 100 908 l 261 908 l 261 543 l 572 543 l 572 908 l 733 908 l 733 0 l 572 0 l 572 403 l 261 403 l 261 0 l 100 0 l 100 908 m 417 -289 q 335 -273 369 -289 q 279 -231 301 -257 q 245 -172 257 -206 q 232 -104 233 -139 l 325 -104 q 352 -169 331 -142 q 417 -197 374 -197 q 481 -169 460 -197 q 508 -104 503 -142 l 601 -104 q 588 -172 599 -139 q 554 -231 576 -206 q 498 -273 532 -257 q 417 -289 464 -289 z "},"Ħ":{"ha":833,"x_min":8,"x_max":825,"o":"m 572 679 l 261 679 l 261 543 l 572 543 l 572 679 m 825 679 l 733 679 l 733 0 l 572 0 l 572 403 l 261 403 l 261 0 l 100 0 l 100 679 l 8 679 l 8 754 l 100 761 l 100 908 l 261 908 l 261 761 l 572 761 l 572 908 l 733 908 l 733 761 l 825 761 l 825 679 z "},"Ì":{"ha":833,"x_min":117,"x_max":717,"o":"m 117 136 l 336 136 l 336 772 l 117 772 l 117 908 l 717 908 l 717 772 l 497 772 l 497 136 l 717 136 l 717 0 l 117 0 l 117 136 m 213 1139 l 388 1139 l 504 978 l 375 978 l 213 1139 z "},"Í":{"ha":833,"x_min":117,"x_max":717,"o":"m 117 136 l 336 136 l 336 772 l 117 772 l 117 908 l 717 908 l 717 772 l 497 772 l 497 136 l 717 136 l 717 0 l 117 0 l 117 136 m 458 978 l 329 978 l 446 1139 l 621 1139 l 458 978 z "},"Î":{"ha":833,"x_min":117,"x_max":717,"o":"m 117 136 l 336 136 l 336 772 l 117 772 l 117 908 l 717 908 l 717 772 l 497 772 l 497 136 l 717 136 l 717 0 l 117 0 l 117 136 m 206 978 l 339 1139 l 494 1139 l 628 978 l 503 978 l 419 1067 l 414 1067 l 331 978 l 206 978 z "},"Ĩ":{"ha":833,"x_min":117,"x_max":717,"o":"m 117 136 l 336 136 l 336 772 l 117 772 l 117 908 l 717 908 l 717 772 l 497 772 l 497 136 l 717 136 l 717 0 l 117 0 l 117 136 m 503 982 q 452 992 475 982 q 409 1016 429 1003 q 372 1040 389 1029 q 336 1050 354 1050 q 303 1033 317 1050 q 282 982 289 1017 l 197 982 q 242 1107 206 1063 q 331 1151 278 1151 q 381 1141 358 1151 q 424 1118 404 1131 q 462 1095 444 1106 q 497 1085 479 1085 q 531 1101 517 1085 q 551 1151 544 1117 l 636 1151 q 592 1027 628 1072 q 503 982 556 982 z "},"Ï":{"ha":833,"x_min":117,"x_max":717,"o":"m 117 136 l 336 136 l 336 772 l 117 772 l 117 908 l 717 908 l 717 772 l 497 772 l 497 136 l 717 136 l 717 0 l 117 0 l 117 136 m 288 983 q 228 1006 251 983 q 206 1065 206 1029 q 228 1125 206 1101 q 288 1149 251 1149 q 347 1125 324 1149 q 371 1065 371 1101 q 347 1006 371 1029 q 288 983 324 983 m 546 983 q 486 1006 510 983 q 463 1065 463 1029 q 486 1125 463 1101 q 546 1149 510 1149 q 605 1125 582 1149 q 628 1065 628 1101 q 605 1006 628 1029 q 546 983 582 983 z "},"Ī":{"ha":833,"x_min":117,"x_max":717,"o":"m 117 136 l 336 136 l 336 772 l 117 772 l 117 908 l 717 908 l 717 772 l 497 772 l 497 136 l 717 136 l 717 0 l 117 0 l 117 136 m 232 1111 l 601 1111 l 601 1006 l 232 1006 l 232 1111 z "},"Ĭ":{"ha":833,"x_min":117,"x_max":717,"o":"m 117 136 l 336 136 l 336 772 l 117 772 l 117 908 l 717 908 l 717 772 l 497 772 l 497 136 l 717 136 l 717 0 l 117 0 l 117 136 m 417 979 q 286 1026 329 979 q 236 1139 243 1072 l 328 1139 q 355 1086 335 1108 q 417 1064 375 1064 q 478 1086 458 1064 q 506 1139 499 1108 l 597 1139 q 547 1026 590 1072 q 417 979 504 979 z "},"İ":{"ha":833,"x_min":117,"x_max":717,"o":"m 117 136 l 336 136 l 336 772 l 117 772 l 117 908 l 717 908 l 717 772 l 497 772 l 497 136 l 717 136 l 717 0 l 117 0 l 117 136 m 417 982 q 346 1008 374 982 q 318 1074 318 1033 q 346 1139 318 1114 q 417 1164 374 1164 q 488 1139 460 1164 q 515 1074 515 1114 q 488 1008 515 1033 q 417 982 460 982 z "},"Ǐ":{"ha":833,"x_min":117,"x_max":717,"o":"m 117 136 l 336 136 l 336 772 l 117 772 l 117 908 l 717 908 l 717 772 l 497 772 l 497 136 l 717 136 l 717 0 l 117 0 l 117 136 m 628 1139 l 494 978 l 339 978 l 206 1139 l 331 1139 l 414 1050 l 419 1050 l 503 1139 l 628 1139 z "},"Ỉ":{"ha":833,"x_min":117,"x_max":717,"o":"m 117 136 l 336 136 l 336 772 l 117 772 l 117 908 l 717 908 l 717 772 l 497 772 l 497 136 l 717 136 l 717 0 l 117 0 l 117 136 m 358 1032 q 408 1050 388 1039 q 428 1083 428 1061 q 401 1120 428 1107 q 315 1136 375 1133 l 333 1221 q 496 1187 444 1218 q 547 1101 547 1156 q 533 1044 547 1068 q 494 1004 518 1021 q 439 978 471 988 q 372 964 407 968 l 358 1032 z "},"Ị":{"ha":833,"x_min":117,"x_max":717,"o":"m 117 136 l 336 136 l 336 772 l 117 772 l 117 908 l 717 908 l 717 772 l 497 772 l 497 136 l 717 136 l 717 0 l 117 0 l 117 136 m 417 -333 q 335 -304 368 -333 q 303 -226 303 -275 q 335 -148 303 -178 q 417 -118 368 -118 q 498 -148 465 -118 q 531 -226 531 -178 q 498 -304 531 -275 q 417 -333 465 -333 z "},"Į":{"ha":833,"x_min":117,"x_max":717,"o":"m 117 136 l 336 136 l 336 772 l 117 772 l 117 908 l 717 908 l 717 772 l 497 772 l 497 136 l 717 136 l 717 0 l 497 0 q 424 -62 447 -28 q 400 -136 400 -97 q 419 -181 400 -167 q 461 -194 438 -194 q 490 -189 476 -194 q 515 -175 504 -183 l 554 -258 q 494 -290 531 -278 q 426 -303 458 -303 q 322 -271 364 -303 q 281 -176 281 -239 q 290 -118 281 -144 q 313 -69 299 -92 q 344 -30 328 -47 q 378 0 361 -12 l 117 0 l 117 136 z "},"Ĵ":{"ha":833,"x_min":97,"x_max":701,"o":"m 194 232 q 281 150 233 178 q 376 122 328 122 q 500 166 460 122 q 540 314 540 210 l 540 774 l 172 774 l 172 908 l 701 908 l 701 300 q 685 177 701 235 q 631 76 668 119 q 531 8 593 33 q 381 -17 469 -17 q 303 -8 343 -17 q 227 18 264 0 q 157 65 190 36 q 97 133 124 93 l 194 232 m 235 978 l 368 1139 l 524 1139 l 657 978 l 532 978 l 449 1067 l 443 1067 l 360 978 l 235 978 z "},"Ķ":{"ha":833,"x_min":115,"x_max":815,"o":"m 115 908 l 278 908 l 278 496 l 282 496 l 606 908 l 785 908 l 506 554 l 815 0 l 636 0 l 410 428 l 278 265 l 278 0 l 115 0 l 115 908 m 414 -62 q 531 -99 496 -72 q 565 -174 565 -125 q 547 -231 565 -207 q 498 -271 529 -254 q 426 -297 467 -287 q 342 -310 386 -307 l 328 -240 q 414 -221 381 -233 q 447 -183 447 -208 q 430 -147 447 -160 q 381 -126 413 -133 l 414 -62 l 414 -62 z "},"Ĺ":{"ha":833,"x_min":167,"x_max":753,"o":"m 167 908 l 326 908 l 326 136 l 753 136 l 753 0 l 167 0 l 167 908 m 311 978 l 182 978 l 299 1139 l 474 1139 l 311 978 z "},"Ľ":{"ha":833,"x_min":167,"x_max":753,"o":"m 167 908 l 326 908 l 326 136 l 753 136 l 753 0 l 167 0 l 167 908 m 539 713 l 532 1014 l 639 1014 l 638 926 l 611 713 l 539 713 z "},"Ļ":{"ha":833,"x_min":167,"x_max":753,"o":"m 167 908 l 326 908 l 326 136 l 753 136 l 753 0 l 167 0 l 167 908 m 426 -62 q 543 -99 508 -72 q 578 -174 578 -125 q 560 -231 578 -207 q 510 -271 542 -254 q 439 -297 479 -287 q 354 -310 399 -307 l 340 -240 q 426 -221 393 -233 q 460 -183 460 -208 q 442 -147 460 -160 q 393 -126 425 -133 l 426 -62 l 426 -62 z "},"Ŀ":{"ha":833,"x_min":167,"x_max":753,"o":"m 167 908 l 326 908 l 326 136 l 753 136 l 753 0 l 167 0 l 167 908 m 614 381 q 533 410 565 381 q 500 488 500 439 q 533 566 500 536 q 614 596 565 596 q 695 566 663 596 q 728 488 728 536 q 695 410 728 439 q 614 381 663 381 z "},"Ḷ":{"ha":833,"x_min":167,"x_max":753,"o":"m 167 908 l 326 908 l 326 136 l 753 136 l 753 0 l 167 0 l 167 908 m 471 -333 q 390 -304 422 -333 q 357 -226 357 -275 q 390 -148 357 -178 q 471 -118 422 -118 q 552 -148 519 -118 q 585 -226 585 -178 q 552 -304 585 -275 q 471 -333 519 -333 z "},"Ḹ":{"ha":833,"x_min":85,"x_max":753,"o":"m 167 908 l 326 908 l 326 136 l 753 136 l 753 0 l 167 0 l 167 908 m 85 1111 l 454 1111 l 454 1006 l 85 1006 l 85 1111 m 471 -333 q 390 -304 422 -333 q 357 -226 357 -275 q 390 -148 357 -178 q 471 -118 422 -118 q 552 -148 519 -118 q 585 -226 585 -178 q 552 -304 585 -275 q 471 -333 519 -333 z "},"Ḻ":{"ha":833,"x_min":167,"x_max":753,"o":"m 167 908 l 326 908 l 326 136 l 753 136 l 753 0 l 167 0 l 167 908 m 651 -250 l 289 -250 l 289 -144 l 651 -144 l 651 -250 z "},"Ł":{"ha":833,"x_min":60,"x_max":753,"o":"m 753 136 l 753 0 l 167 0 l 167 296 l 60 236 l 60 363 l 167 422 l 167 908 l 326 908 l 326 500 l 626 661 l 626 535 l 326 374 l 326 136 l 753 136 z "},"Ṃ":{"ha":833,"x_min":101,"x_max":732,"o":"m 101 908 l 268 908 l 378 556 l 417 418 l 421 418 l 458 556 l 565 908 l 732 908 l 732 0 l 600 0 l 600 403 q 602 481 600 435 q 607 576 604 526 q 613 671 610 625 q 619 749 617 717 l 615 749 l 550 526 l 454 244 l 376 244 l 279 526 l 215 749 l 211 749 q 217 671 214 717 q 224 576 221 625 q 230 481 228 526 q 232 403 232 435 l 232 0 l 101 0 l 101 908 m 417 -333 q 335 -304 368 -333 q 303 -226 303 -275 q 335 -148 303 -178 q 417 -118 368 -118 q 498 -148 465 -118 q 531 -226 531 -178 q 498 -304 531 -275 q 417 -333 465 -333 z "},"Ń":{"ha":833,"x_min":103,"x_max":731,"o":"m 103 908 l 267 908 l 510 397 l 594 204 l 599 204 q 585 356 593 275 q 576 514 576 438 l 576 908 l 731 908 l 731 0 l 567 0 l 324 513 l 239 704 l 235 704 q 249 553 240 632 q 257 397 257 474 l 257 0 l 103 0 l 103 908 m 467 978 l 338 978 l 454 1139 l 629 1139 l 467 978 z "},"Ň":{"ha":833,"x_min":103,"x_max":731,"o":"m 103 908 l 267 908 l 510 397 l 594 204 l 599 204 q 585 356 593 275 q 576 514 576 438 l 576 908 l 731 908 l 731 0 l 567 0 l 324 513 l 239 704 l 235 704 q 249 553 240 632 q 257 397 257 474 l 257 0 l 103 0 l 103 908 m 636 1139 l 503 978 l 347 978 l 214 1139 l 339 1139 l 422 1050 l 428 1050 l 511 1139 l 636 1139 z "},"Ñ":{"ha":833,"x_min":103,"x_max":731,"o":"m 103 908 l 267 908 l 510 397 l 594 204 l 599 204 q 585 356 593 275 q 576 514 576 438 l 576 908 l 731 908 l 731 0 l 567 0 l 324 513 l 239 704 l 235 704 q 249 553 240 632 q 257 397 257 474 l 257 0 l 103 0 l 103 908 m 511 982 q 460 992 483 982 q 417 1016 438 1003 q 380 1040 397 1029 q 344 1050 363 1050 q 311 1033 325 1050 q 290 982 297 1017 l 206 982 q 250 1107 214 1063 q 339 1151 286 1151 q 390 1141 367 1151 q 433 1118 413 1131 q 470 1095 453 1106 q 506 1085 488 1085 q 539 1101 525 1085 q 560 1151 553 1117 l 644 1151 q 600 1027 636 1072 q 511 982 564 982 z "},"Ņ":{"ha":833,"x_min":103,"x_max":731,"o":"m 103 908 l 267 908 l 510 397 l 594 204 l 599 204 q 585 356 593 275 q 576 514 576 438 l 576 908 l 731 908 l 731 0 l 567 0 l 324 513 l 239 704 l 235 704 q 249 553 240 632 q 257 397 257 474 l 257 0 l 103 0 l 103 908 m 372 -62 q 489 -99 454 -72 q 524 -174 524 -125 q 506 -231 524 -207 q 456 -271 488 -254 q 385 -297 425 -287 q 300 -310 344 -307 l 286 -240 q 372 -221 339 -233 q 406 -183 406 -208 q 388 -147 406 -160 q 339 -126 371 -133 l 372 -62 l 372 -62 z "},"Ṅ":{"ha":833,"x_min":103,"x_max":731,"o":"m 103 908 l 267 908 l 510 397 l 594 204 l 599 204 q 585 356 593 275 q 576 514 576 438 l 576 908 l 731 908 l 731 0 l 567 0 l 324 513 l 239 704 l 235 704 q 249 553 240 632 q 257 397 257 474 l 257 0 l 103 0 l 103 908 m 425 982 q 354 1008 382 982 q 326 1074 326 1033 q 354 1139 326 1114 q 425 1164 382 1164 q 496 1139 468 1164 q 524 1074 524 1114 q 496 1008 524 1033 q 425 982 468 982 z "},"Ṇ":{"ha":833,"x_min":103,"x_max":731,"o":"m 103 908 l 267 908 l 510 397 l 594 204 l 599 204 q 585 356 593 275 q 576 514 576 438 l 576 908 l 731 908 l 731 0 l 567 0 l 324 513 l 239 704 l 235 704 q 249 553 240 632 q 257 397 257 474 l 257 0 l 103 0 l 103 908 m 417 -333 q 335 -304 368 -333 q 303 -226 303 -275 q 335 -148 303 -178 q 417 -118 368 -118 q 498 -148 465 -118 q 531 -226 531 -178 q 498 -304 531 -275 q 417 -333 465 -333 z "},"Ṉ":{"ha":833,"x_min":103,"x_max":731,"o":"m 103 908 l 267 908 l 510 397 l 594 204 l 599 204 q 585 356 593 275 q 576 514 576 438 l 576 908 l 731 908 l 731 0 l 567 0 l 324 513 l 239 704 l 235 704 q 249 553 240 632 q 257 397 257 474 l 257 0 l 103 0 l 103 908 m 597 -250 l 235 -250 l 235 -144 l 597 -144 l 597 -250 z "},"Ò":{"ha":833,"x_min":60,"x_max":774,"o":"m 417 -17 q 272 16 338 -17 q 159 110 206 49 q 86 260 113 172 q 60 458 60 347 q 86 655 60 568 q 159 801 113 742 q 272 893 206 861 q 417 925 338 925 q 562 893 496 925 q 674 801 628 861 q 747 655 721 742 q 774 458 774 568 q 747 260 774 347 q 674 110 721 172 q 562 16 628 49 q 417 -17 496 -17 m 417 124 q 495 147 460 124 q 556 215 531 171 q 594 320 581 258 q 608 458 608 382 q 556 698 608 611 q 417 785 504 785 q 277 698 329 785 q 225 458 225 611 q 238 320 225 382 q 276 215 251 258 q 337 147 301 171 q 417 124 372 124 m 213 1139 l 388 1139 l 504 978 l 375 978 l 213 1139 z "},"Ó":{"ha":833,"x_min":60,"x_max":774,"o":"m 417 -17 q 272 16 338 -17 q 159 110 206 49 q 86 260 113 172 q 60 458 60 347 q 86 655 60 568 q 159 801 113 742 q 272 893 206 861 q 417 925 338 925 q 562 893 496 925 q 674 801 628 861 q 747 655 721 742 q 774 458 774 568 q 747 260 774 347 q 674 110 721 172 q 562 16 628 49 q 417 -17 496 -17 m 417 124 q 495 147 460 124 q 556 215 531 171 q 594 320 581 258 q 608 458 608 382 q 556 698 608 611 q 417 785 504 785 q 277 698 329 785 q 225 458 225 611 q 238 320 225 382 q 276 215 251 258 q 337 147 301 171 q 417 124 372 124 m 458 978 l 329 978 l 446 1139 l 621 1139 l 458 978 z "},"Ô":{"ha":833,"x_min":60,"x_max":774,"o":"m 417 -17 q 272 16 338 -17 q 159 110 206 49 q 86 260 113 172 q 60 458 60 347 q 86 655 60 568 q 159 801 113 742 q 272 893 206 861 q 417 925 338 925 q 562 893 496 925 q 674 801 628 861 q 747 655 721 742 q 774 458 774 568 q 747 260 774 347 q 674 110 721 172 q 562 16 628 49 q 417 -17 496 -17 m 417 124 q 495 147 460 124 q 556 215 531 171 q 594 320 581 258 q 608 458 608 382 q 556 698 608 611 q 417 785 504 785 q 277 698 329 785 q 225 458 225 611 q 238 320 225 382 q 276 215 251 258 q 337 147 301 171 q 417 124 372 124 m 206 978 l 339 1139 l 494 1139 l 628 978 l 503 978 l 419 1067 l 414 1067 l 331 978 l 206 978 z "},"Õ":{"ha":833,"x_min":60,"x_max":774,"o":"m 417 -17 q 272 16 338 -17 q 159 110 206 49 q 86 260 113 172 q 60 458 60 347 q 86 655 60 568 q 159 801 113 742 q 272 893 206 861 q 417 925 338 925 q 562 893 496 925 q 674 801 628 861 q 747 655 721 742 q 774 458 774 568 q 747 260 774 347 q 674 110 721 172 q 562 16 628 49 q 417 -17 496 -17 m 417 124 q 495 147 460 124 q 556 215 531 171 q 594 320 581 258 q 608 458 608 382 q 556 698 608 611 q 417 785 504 785 q 277 698 329 785 q 225 458 225 611 q 238 320 225 382 q 276 215 251 258 q 337 147 301 171 q 417 124 372 124 m 503 982 q 452 992 475 982 q 409 1016 429 1003 q 372 1040 389 1029 q 336 1050 354 1050 q 303 1033 317 1050 q 282 982 289 1017 l 197 982 q 242 1107 206 1063 q 331 1151 278 1151 q 381 1141 358 1151 q 424 1118 404 1131 q 462 1095 444 1106 q 497 1085 479 1085 q 531 1101 517 1085 q 551 1151 544 1117 l 636 1151 q 592 1027 628 1072 q 503 982 556 982 z "},"Ö":{"ha":833,"x_min":60,"x_max":774,"o":"m 417 -17 q 272 16 338 -17 q 159 110 206 49 q 86 260 113 172 q 60 458 60 347 q 86 655 60 568 q 159 801 113 742 q 272 893 206 861 q 417 925 338 925 q 562 893 496 925 q 674 801 628 861 q 747 655 721 742 q 774 458 774 568 q 747 260 774 347 q 674 110 721 172 q 562 16 628 49 q 417 -17 496 -17 m 417 124 q 495 147 460 124 q 556 215 531 171 q 594 320 581 258 q 608 458 608 382 q 556 698 608 611 q 417 785 504 785 q 277 698 329 785 q 225 458 225 611 q 238 320 225 382 q 276 215 251 258 q 337 147 301 171 q 417 124 372 124 m 288 983 q 228 1006 251 983 q 206 1065 206 1029 q 228 1125 206 1101 q 288 1149 251 1149 q 347 1125 324 1149 q 371 1065 371 1101 q 347 1006 371 1029 q 288 983 324 983 m 546 983 q 486 1006 510 983 q 463 1065 463 1029 q 486 1125 463 1101 q 546 1149 510 1149 q 605 1125 582 1149 q 628 1065 628 1101 q 605 1006 628 1029 q 546 983 582 983 z "},"Ō":{"ha":833,"x_min":60,"x_max":774,"o":"m 417 -17 q 272 16 338 -17 q 159 110 206 49 q 86 260 113 172 q 60 458 60 347 q 86 655 60 568 q 159 801 113 742 q 272 893 206 861 q 417 925 338 925 q 562 893 496 925 q 674 801 628 861 q 747 655 721 742 q 774 458 774 568 q 747 260 774 347 q 674 110 721 172 q 562 16 628 49 q 417 -17 496 -17 m 417 124 q 495 147 460 124 q 556 215 531 171 q 594 320 581 258 q 608 458 608 382 q 556 698 608 611 q 417 785 504 785 q 277 698 329 785 q 225 458 225 611 q 238 320 225 382 q 276 215 251 258 q 337 147 301 171 q 417 124 372 124 m 232 1111 l 601 1111 l 601 1006 l 232 1006 l 232 1111 z "},"Ŏ":{"ha":833,"x_min":60,"x_max":774,"o":"m 417 -17 q 272 16 338 -17 q 159 110 206 49 q 86 260 113 172 q 60 458 60 347 q 86 655 60 568 q 159 801 113 742 q 272 893 206 861 q 417 925 338 925 q 562 893 496 925 q 674 801 628 861 q 747 655 721 742 q 774 458 774 568 q 747 260 774 347 q 674 110 721 172 q 562 16 628 49 q 417 -17 496 -17 m 417 124 q 495 147 460 124 q 556 215 531 171 q 594 320 581 258 q 608 458 608 382 q 556 698 608 611 q 417 785 504 785 q 277 698 329 785 q 225 458 225 611 q 238 320 225 382 q 276 215 251 258 q 337 147 301 171 q 417 124 372 124 m 417 979 q 286 1026 329 979 q 236 1139 243 1072 l 328 1139 q 355 1086 335 1108 q 417 1064 375 1064 q 478 1086 458 1064 q 506 1139 499 1108 l 597 1139 q 547 1026 590 1072 q 417 979 504 979 z "},"Ő":{"ha":833,"x_min":60,"x_max":774,"o":"m 417 -17 q 272 16 338 -17 q 159 110 206 49 q 86 260 113 172 q 60 458 60 347 q 86 655 60 568 q 159 801 113 742 q 272 893 206 861 q 417 925 338 925 q 562 893 496 925 q 674 801 628 861 q 747 655 721 742 q 774 458 774 568 q 747 260 774 347 q 674 110 721 172 q 562 16 628 49 q 417 -17 496 -17 m 417 124 q 495 147 460 124 q 556 215 531 171 q 594 320 581 258 q 608 458 608 382 q 556 698 608 611 q 417 785 504 785 q 277 698 329 785 q 225 458 225 611 q 238 320 225 382 q 276 215 251 258 q 337 147 301 171 q 417 124 372 124 m 246 978 l 335 1139 l 476 1139 l 356 978 l 246 978 m 569 1139 l 711 1139 l 590 978 l 481 978 l 569 1139 z "},"Ǒ":{"ha":833,"x_min":60,"x_max":774,"o":"m 417 -17 q 272 16 338 -17 q 159 110 206 49 q 86 260 113 172 q 60 458 60 347 q 86 655 60 568 q 159 801 113 742 q 272 893 206 861 q 417 925 338 925 q 562 893 496 925 q 674 801 628 861 q 747 655 721 742 q 774 458 774 568 q 747 260 774 347 q 674 110 721 172 q 562 16 628 49 q 417 -17 496 -17 m 417 124 q 495 147 460 124 q 556 215 531 171 q 594 320 581 258 q 608 458 608 382 q 556 698 608 611 q 417 785 504 785 q 277 698 329 785 q 225 458 225 611 q 238 320 225 382 q 276 215 251 258 q 337 147 301 171 q 417 124 372 124 m 628 1139 l 494 978 l 339 978 l 206 1139 l 331 1139 l 414 1050 l 419 1050 l 503 1139 l 628 1139 z "},"Ọ":{"ha":833,"x_min":60,"x_max":774,"o":"m 417 -17 q 272 16 338 -17 q 159 110 206 49 q 86 260 113 172 q 60 458 60 347 q 86 655 60 568 q 159 801 113 742 q 272 893 206 861 q 417 925 338 925 q 562 893 496 925 q 674 801 628 861 q 747 655 721 742 q 774 458 774 568 q 747 260 774 347 q 674 110 721 172 q 562 16 628 49 q 417 -17 496 -17 m 417 124 q 495 147 460 124 q 556 215 531 171 q 594 320 581 258 q 608 458 608 382 q 556 698 608 611 q 417 785 504 785 q 277 698 329 785 q 225 458 225 611 q 238 320 225 382 q 276 215 251 258 q 337 147 301 171 q 417 124 372 124 m 417 -333 q 335 -304 368 -333 q 303 -226 303 -275 q 335 -148 303 -178 q 417 -118 368 -118 q 498 -148 465 -118 q 531 -226 531 -178 q 498 -304 531 -275 q 417 -333 465 -333 z "},"Ỏ":{"ha":833,"x_min":60,"x_max":774,"o":"m 417 -17 q 272 16 338 -17 q 159 110 206 49 q 86 260 113 172 q 60 458 60 347 q 86 655 60 568 q 159 801 113 742 q 272 893 206 861 q 417 925 338 925 q 562 893 496 925 q 674 801 628 861 q 747 655 721 742 q 774 458 774 568 q 747 260 774 347 q 674 110 721 172 q 562 16 628 49 q 417 -17 496 -17 m 417 124 q 495 147 460 124 q 556 215 531 171 q 594 320 581 258 q 608 458 608 382 q 556 698 608 611 q 417 785 504 785 q 277 698 329 785 q 225 458 225 611 q 238 320 225 382 q 276 215 251 258 q 337 147 301 171 q 417 124 372 124 m 358 1032 q 408 1050 388 1039 q 428 1083 428 1061 q 401 1120 428 1107 q 315 1136 375 1133 l 333 1221 q 496 1187 444 1218 q 547 1101 547 1156 q 533 1044 547 1068 q 494 1004 518 1021 q 439 978 471 988 q 372 964 407 968 l 358 1032 z "},"Ố":{"ha":833,"x_min":60,"x_max":785,"o":"m 417 -17 q 272 16 338 -17 q 159 110 206 49 q 86 260 113 172 q 60 458 60 347 q 86 655 60 568 q 159 801 113 742 q 272 893 206 861 q 417 925 338 925 q 562 893 496 925 q 674 801 628 861 q 747 655 721 742 q 774 458 774 568 q 747 260 774 347 q 674 110 721 172 q 562 16 628 49 q 417 -17 496 -17 m 417 124 q 495 147 460 124 q 556 215 531 171 q 594 320 581 258 q 608 458 608 382 q 556 698 608 611 q 417 785 504 785 q 277 698 329 785 q 225 458 225 611 q 238 320 225 382 q 276 215 251 258 q 337 147 301 171 q 417 124 372 124 m 656 1231 l 785 1231 l 653 1069 l 558 1069 l 656 1231 m 347 1131 l 486 1131 l 617 978 l 500 978 l 419 1058 l 414 1058 l 333 978 l 217 978 l 347 1131 z "},"Ồ":{"ha":833,"x_min":60,"x_max":774,"o":"m 417 -17 q 272 16 338 -17 q 159 110 206 49 q 86 260 113 172 q 60 458 60 347 q 86 655 60 568 q 159 801 113 742 q 272 893 206 861 q 417 925 338 925 q 562 893 496 925 q 674 801 628 861 q 747 655 721 742 q 774 458 774 568 q 747 260 774 347 q 674 110 721 172 q 562 16 628 49 q 417 -17 496 -17 m 417 124 q 495 147 460 124 q 556 215 531 171 q 594 320 581 258 q 608 458 608 382 q 556 698 608 611 q 417 785 504 785 q 277 698 329 785 q 225 458 225 611 q 238 320 225 382 q 276 215 251 258 q 337 147 301 171 q 417 124 372 124 m 710 1069 l 615 1069 l 485 1231 l 614 1231 l 710 1069 m 347 1131 l 486 1131 l 617 978 l 500 978 l 419 1058 l 414 1058 l 333 978 l 217 978 l 347 1131 z "},"Ổ":{"ha":833,"x_min":60,"x_max":774,"o":"m 417 -17 q 272 16 338 -17 q 159 110 206 49 q 86 260 113 172 q 60 458 60 347 q 86 655 60 568 q 159 801 113 742 q 272 893 206 861 q 417 925 338 925 q 562 893 496 925 q 674 801 628 861 q 747 655 721 742 q 774 458 774 568 q 747 260 774 347 q 674 110 721 172 q 562 16 628 49 q 417 -17 496 -17 m 417 124 q 495 147 460 124 q 556 215 531 171 q 594 320 581 258 q 608 458 608 382 q 556 698 608 611 q 417 785 504 785 q 277 698 329 785 q 225 458 225 611 q 238 320 225 382 q 276 215 251 258 q 337 147 301 171 q 417 124 372 124 m 576 1101 q 615 1117 600 1107 q 631 1146 631 1126 q 609 1181 631 1169 q 536 1194 588 1192 l 551 1267 q 693 1235 650 1263 q 736 1160 736 1207 q 694 1076 736 1103 q 592 1044 651 1050 l 576 1101 m 347 1131 l 486 1131 l 617 978 l 500 978 l 419 1058 l 414 1058 l 333 978 l 217 978 l 347 1131 z "},"Ỗ":{"ha":833,"x_min":60,"x_max":774,"o":"m 417 -17 q 272 16 338 -17 q 159 110 206 49 q 86 260 113 172 q 60 458 60 347 q 86 655 60 568 q 159 801 113 742 q 272 893 206 861 q 417 925 338 925 q 562 893 496 925 q 674 801 628 861 q 747 655 721 742 q 774 458 774 568 q 747 260 774 347 q 674 110 721 172 q 562 16 628 49 q 417 -17 496 -17 m 417 124 q 495 147 460 124 q 556 215 531 171 q 594 320 581 258 q 608 458 608 382 q 556 698 608 611 q 417 785 504 785 q 277 698 329 785 q 225 458 225 611 q 238 320 225 382 q 276 215 251 258 q 337 147 301 171 q 417 124 372 124 m 347 1131 l 486 1131 l 617 978 l 500 978 l 419 1058 l 414 1058 l 333 978 l 217 978 l 347 1131 m 221 1181 q 260 1286 228 1250 q 339 1322 292 1322 q 386 1313 365 1322 q 424 1294 407 1304 q 457 1275 442 1283 q 488 1267 472 1267 q 520 1280 507 1267 q 539 1322 533 1293 l 613 1322 q 574 1217 606 1253 q 494 1181 542 1181 q 447 1189 467 1181 q 409 1208 426 1197 q 376 1227 392 1218 q 346 1236 361 1236 q 313 1223 326 1236 q 294 1181 300 1210 l 221 1181 z "},"Ộ":{"ha":833,"x_min":60,"x_max":774,"o":"m 417 -17 q 272 16 338 -17 q 159 110 206 49 q 86 260 113 172 q 60 458 60 347 q 86 655 60 568 q 159 801 113 742 q 272 893 206 861 q 417 925 338 925 q 562 893 496 925 q 674 801 628 861 q 747 655 721 742 q 774 458 774 568 q 747 260 774 347 q 674 110 721 172 q 562 16 628 49 q 417 -17 496 -17 m 417 124 q 495 147 460 124 q 556 215 531 171 q 594 320 581 258 q 608 458 608 382 q 556 698 608 611 q 417 785 504 785 q 277 698 329 785 q 225 458 225 611 q 238 320 225 382 q 276 215 251 258 q 337 147 301 171 q 417 124 372 124 m 206 978 l 339 1139 l 494 1139 l 628 978 l 503 978 l 419 1067 l 414 1067 l 331 978 l 206 978 m 417 -333 q 335 -304 368 -333 q 303 -226 303 -275 q 335 -148 303 -178 q 417 -118 368 -118 q 498 -148 465 -118 q 531 -226 531 -178 q 498 -304 531 -275 q 417 -333 465 -333 z "},"Ø":{"ha":833,"x_min":53,"x_max":789,"o":"m 299 183 q 417 124 346 124 q 495 147 460 124 q 556 215 531 171 q 594 320 581 258 q 608 458 608 382 q 592 611 608 544 l 299 183 m 540 722 q 417 785 490 785 q 277 698 329 785 q 225 458 225 611 q 246 290 225 363 l 540 722 m 699 768 q 754 632 735 710 q 774 458 774 554 q 747 260 774 347 q 674 110 721 172 q 562 16 628 49 q 417 -17 496 -17 q 211 56 299 -17 l 139 -50 l 53 8 l 140 138 q 81 278 101 197 q 60 458 60 358 q 86 655 60 568 q 159 801 113 742 q 272 893 206 861 q 417 925 338 925 q 628 850 540 925 l 701 958 l 789 900 l 699 768 z "},"Œ":{"ha":833,"x_min":36,"x_max":824,"o":"m 36 458 q 63 655 36 571 q 140 795 90 739 q 258 880 189 851 q 413 908 328 908 l 810 908 l 810 774 l 564 774 l 564 540 l 750 540 l 750 404 l 564 404 l 564 136 l 824 136 l 824 0 l 406 0 q 254 29 322 0 q 138 116 186 58 q 63 260 89 174 q 36 458 36 346 m 201 458 q 251 210 201 289 q 394 131 300 131 l 419 131 l 419 778 l 394 778 q 251 703 300 778 q 201 458 201 628 z "},"Ơ":{"ha":833,"x_min":60,"x_max":804,"o":"m 417 124 q 495 147 460 124 q 556 215 531 171 q 594 320 581 258 q 608 458 608 382 q 556 698 608 611 q 417 785 504 785 q 277 698 329 785 q 225 458 225 611 q 238 320 225 382 q 276 215 251 258 q 337 147 301 171 q 417 124 372 124 m 768 1081 q 794 1036 783 1061 q 804 981 804 1011 q 763 876 804 914 q 657 822 722 838 q 743 670 713 761 q 774 458 774 579 q 747 260 774 347 q 674 110 721 172 q 562 16 628 49 q 417 -17 496 -17 q 272 16 338 -17 q 159 110 206 49 q 86 260 113 172 q 60 458 60 347 q 86 655 60 568 q 159 801 113 742 q 272 893 206 861 q 417 925 338 925 q 583 882 508 925 q 653 910 628 890 q 678 969 678 929 q 672 1003 678 988 q 657 1031 665 1018 l 768 1081 z "},"Ớ":{"ha":833,"x_min":60,"x_max":804,"o":"m 417 124 q 495 147 460 124 q 556 215 531 171 q 594 320 581 258 q 608 458 608 382 q 556 698 608 611 q 417 785 504 785 q 277 698 329 785 q 225 458 225 611 q 238 320 225 382 q 276 215 251 258 q 337 147 301 171 q 417 124 372 124 m 768 1081 q 794 1036 783 1061 q 804 981 804 1011 q 763 876 804 914 q 657 822 722 838 q 743 670 713 761 q 774 458 774 579 q 747 260 774 347 q 674 110 721 172 q 562 16 628 49 q 417 -17 496 -17 q 272 16 338 -17 q 159 110 206 49 q 86 260 113 172 q 60 458 60 347 q 86 655 60 568 q 159 801 113 742 q 272 893 206 861 q 417 925 338 925 q 583 882 508 925 q 653 910 628 890 q 678 969 678 929 q 672 1003 678 988 q 657 1031 665 1018 l 768 1081 m 458 978 l 329 978 l 446 1139 l 621 1139 l 458 978 z "},"Ờ":{"ha":833,"x_min":60,"x_max":804,"o":"m 417 124 q 495 147 460 124 q 556 215 531 171 q 594 320 581 258 q 608 458 608 382 q 556 698 608 611 q 417 785 504 785 q 277 698 329 785 q 225 458 225 611 q 238 320 225 382 q 276 215 251 258 q 337 147 301 171 q 417 124 372 124 m 768 1081 q 794 1036 783 1061 q 804 981 804 1011 q 763 876 804 914 q 657 822 722 838 q 743 670 713 761 q 774 458 774 579 q 747 260 774 347 q 674 110 721 172 q 562 16 628 49 q 417 -17 496 -17 q 272 16 338 -17 q 159 110 206 49 q 86 260 113 172 q 60 458 60 347 q 86 655 60 568 q 159 801 113 742 q 272 893 206 861 q 417 925 338 925 q 583 882 508 925 q 653 910 628 890 q 678 969 678 929 q 672 1003 678 988 q 657 1031 665 1018 l 768 1081 m 213 1139 l 388 1139 l 504 978 l 375 978 l 213 1139 z "},"Ở":{"ha":833,"x_min":60,"x_max":804,"o":"m 417 124 q 495 147 460 124 q 556 215 531 171 q 594 320 581 258 q 608 458 608 382 q 556 698 608 611 q 417 785 504 785 q 277 698 329 785 q 225 458 225 611 q 238 320 225 382 q 276 215 251 258 q 337 147 301 171 q 417 124 372 124 m 768 1081 q 794 1036 783 1061 q 804 981 804 1011 q 763 876 804 914 q 657 822 722 838 q 743 670 713 761 q 774 458 774 579 q 747 260 774 347 q 674 110 721 172 q 562 16 628 49 q 417 -17 496 -17 q 272 16 338 -17 q 159 110 206 49 q 86 260 113 172 q 60 458 60 347 q 86 655 60 568 q 159 801 113 742 q 272 893 206 861 q 417 925 338 925 q 583 882 508 925 q 653 910 628 890 q 678 969 678 929 q 672 1003 678 988 q 657 1031 665 1018 l 768 1081 m 358 1032 q 408 1050 388 1039 q 428 1083 428 1061 q 401 1120 428 1107 q 315 1136 375 1133 l 333 1221 q 496 1187 444 1218 q 547 1101 547 1156 q 533 1044 547 1068 q 494 1004 518 1021 q 439 978 471 988 q 372 964 407 968 l 358 1032 z "},"Ỡ":{"ha":833,"x_min":60,"x_max":804,"o":"m 417 124 q 495 147 460 124 q 556 215 531 171 q 594 320 581 258 q 608 458 608 382 q 556 698 608 611 q 417 785 504 785 q 277 698 329 785 q 225 458 225 611 q 238 320 225 382 q 276 215 251 258 q 337 147 301 171 q 417 124 372 124 m 768 1081 q 794 1036 783 1061 q 804 981 804 1011 q 763 876 804 914 q 657 822 722 838 q 743 670 713 761 q 774 458 774 579 q 747 260 774 347 q 674 110 721 172 q 562 16 628 49 q 417 -17 496 -17 q 272 16 338 -17 q 159 110 206 49 q 86 260 113 172 q 60 458 60 347 q 86 655 60 568 q 159 801 113 742 q 272 893 206 861 q 417 925 338 925 q 583 882 508 925 q 653 910 628 890 q 678 969 678 929 q 672 1003 678 988 q 657 1031 665 1018 l 768 1081 m 503 982 q 452 992 475 982 q 409 1016 429 1003 q 372 1040 389 1029 q 336 1050 354 1050 q 303 1033 317 1050 q 282 982 289 1017 l 197 982 q 242 1107 206 1063 q 331 1151 278 1151 q 381 1141 358 1151 q 424 1118 404 1131 q 462 1095 444 1106 q 497 1085 479 1085 q 531 1101 517 1085 q 551 1151 544 1117 l 636 1151 q 592 1027 628 1072 q 503 982 556 982 z "},"Ợ":{"ha":833,"x_min":60,"x_max":804,"o":"m 417 124 q 495 147 460 124 q 556 215 531 171 q 594 320 581 258 q 608 458 608 382 q 556 698 608 611 q 417 785 504 785 q 277 698 329 785 q 225 458 225 611 q 238 320 225 382 q 276 215 251 258 q 337 147 301 171 q 417 124 372 124 m 768 1081 q 794 1036 783 1061 q 804 981 804 1011 q 763 876 804 914 q 657 822 722 838 q 743 670 713 761 q 774 458 774 579 q 747 260 774 347 q 674 110 721 172 q 562 16 628 49 q 417 -17 496 -17 q 272 16 338 -17 q 159 110 206 49 q 86 260 113 172 q 60 458 60 347 q 86 655 60 568 q 159 801 113 742 q 272 893 206 861 q 417 925 338 925 q 583 882 508 925 q 653 910 628 890 q 678 969 678 929 q 672 1003 678 988 q 657 1031 665 1018 l 768 1081 m 417 -333 q 335 -304 368 -333 q 303 -226 303 -275 q 335 -148 303 -178 q 417 -118 368 -118 q 498 -148 465 -118 q 531 -226 531 -178 q 498 -304 531 -275 q 417 -333 465 -333 z "},"Ǫ":{"ha":833,"x_min":60,"x_max":774,"o":"m 583 -258 q 524 -290 560 -278 q 456 -303 488 -303 q 351 -271 393 -303 q 308 -176 308 -239 q 335 -85 308 -126 q 396 -15 361 -43 q 245 32 308 -10 q 141 138 182 74 q 80 285 100 203 q 60 458 60 368 q 86 655 60 568 q 159 801 113 742 q 272 893 206 861 q 417 925 338 925 q 562 893 496 925 q 674 801 628 861 q 747 655 721 742 q 774 458 774 568 q 708 162 774 272 q 531 3 642 51 q 453 -61 476 -21 q 429 -136 429 -101 q 449 -181 429 -167 q 492 -194 468 -194 q 520 -189 507 -194 q 544 -175 533 -183 l 583 -258 m 417 124 q 495 147 460 124 q 556 215 531 171 q 594 320 581 258 q 608 458 608 382 q 556 698 608 611 q 417 785 504 785 q 277 698 329 785 q 225 458 225 611 q 238 320 225 382 q 276 215 251 258 q 337 147 301 171 q 417 124 372 124 z "},"Ŕ":{"ha":833,"x_min":117,"x_max":790,"o":"m 278 483 l 403 483 q 547 522 497 483 q 596 639 596 561 q 547 749 596 718 q 403 779 497 779 l 278 779 l 278 483 m 608 0 l 414 356 l 278 356 l 278 0 l 117 0 l 117 908 l 419 908 q 551 894 490 908 q 658 849 613 881 q 728 767 703 818 q 754 639 754 715 q 705 471 754 535 q 574 379 656 407 l 790 0 l 608 0 m 464 978 l 335 978 l 451 1139 l 626 1139 l 464 978 z "},"Ř":{"ha":833,"x_min":117,"x_max":790,"o":"m 278 483 l 403 483 q 547 522 497 483 q 596 639 596 561 q 547 749 596 718 q 403 779 497 779 l 278 779 l 278 483 m 608 0 l 414 356 l 278 356 l 278 0 l 117 0 l 117 908 l 419 908 q 551 894 490 908 q 658 849 613 881 q 728 767 703 818 q 754 639 754 715 q 705 471 754 535 q 574 379 656 407 l 790 0 l 608 0 m 633 1139 l 500 978 l 344 978 l 211 1139 l 336 1139 l 419 1050 l 425 1050 l 508 1139 l 633 1139 z "},"Ŗ":{"ha":833,"x_min":117,"x_max":790,"o":"m 278 483 l 403 483 q 547 522 497 483 q 596 639 596 561 q 547 749 596 718 q 403 779 497 779 l 278 779 l 278 483 m 608 0 l 414 356 l 278 356 l 278 0 l 117 0 l 117 908 l 419 908 q 551 894 490 908 q 658 849 613 881 q 728 767 703 818 q 754 639 754 715 q 705 471 754 535 q 574 379 656 407 l 790 0 l 608 0 m 400 -62 q 517 -99 482 -72 q 551 -174 551 -125 q 533 -231 551 -207 q 484 -271 515 -254 q 413 -297 453 -287 q 328 -310 372 -307 l 314 -240 q 400 -221 367 -233 q 433 -183 433 -208 q 416 -147 433 -160 q 367 -126 399 -133 l 400 -62 l 400 -62 z "},"Ṛ":{"ha":833,"x_min":117,"x_max":790,"o":"m 278 483 l 403 483 q 547 522 497 483 q 596 639 596 561 q 547 749 596 718 q 403 779 497 779 l 278 779 l 278 483 m 608 0 l 414 356 l 278 356 l 278 0 l 117 0 l 117 908 l 419 908 q 551 894 490 908 q 658 849 613 881 q 728 767 703 818 q 754 639 754 715 q 705 471 754 535 q 574 379 656 407 l 790 0 l 608 0 m 444 -333 q 363 -304 396 -333 q 331 -226 331 -275 q 363 -148 331 -178 q 444 -118 396 -118 q 526 -148 493 -118 q 558 -226 558 -178 q 526 -304 558 -275 q 444 -333 493 -333 z "},"Ṝ":{"ha":833,"x_min":117,"x_max":790,"o":"m 278 483 l 403 483 q 547 522 497 483 q 596 639 596 561 q 547 749 596 718 q 403 779 497 779 l 278 779 l 278 483 m 608 0 l 414 356 l 278 356 l 278 0 l 117 0 l 117 908 l 419 908 q 551 894 490 908 q 658 849 613 881 q 728 767 703 818 q 754 639 754 715 q 705 471 754 535 q 574 379 656 407 l 790 0 l 608 0 m 238 1111 l 607 1111 l 607 1006 l 238 1006 l 238 1111 m 444 -333 q 363 -304 396 -333 q 331 -226 331 -275 q 363 -148 331 -178 q 444 -118 396 -118 q 526 -148 493 -118 q 558 -226 558 -178 q 526 -304 558 -275 q 444 -333 493 -333 z "},"Ṟ":{"ha":833,"x_min":117,"x_max":790,"o":"m 278 483 l 403 483 q 547 522 497 483 q 596 639 596 561 q 547 749 596 718 q 403 779 497 779 l 278 779 l 278 483 m 608 0 l 414 356 l 278 356 l 278 0 l 117 0 l 117 908 l 419 908 q 551 894 490 908 q 658 849 613 881 q 728 767 703 818 q 754 639 754 715 q 705 471 754 535 q 574 379 656 407 l 790 0 l 608 0 m 625 -250 l 263 -250 l 263 -144 l 625 -144 l 625 -250 z "},"Ś":{"ha":833,"x_min":81,"x_max":756,"o":"m 175 226 q 291 152 226 181 q 422 124 356 124 q 549 156 506 124 q 592 240 592 188 q 581 288 592 268 q 549 322 569 307 q 501 349 529 336 q 439 374 472 361 l 315 428 q 244 463 279 442 q 182 513 210 483 q 138 581 154 542 q 121 669 121 619 q 144 770 121 724 q 210 851 168 817 q 309 906 251 886 q 436 925 367 925 q 595 894 519 925 q 728 810 671 863 l 644 707 q 549 764 599 743 q 436 785 499 785 q 324 756 365 785 q 283 678 283 728 q 296 633 283 651 q 330 599 308 614 q 380 574 351 585 q 439 550 408 563 l 558 499 q 638 460 601 482 q 700 408 674 438 q 741 341 726 379 q 756 253 756 303 q 733 149 756 197 q 667 63 710 100 q 561 5 624 26 q 419 -17 499 -17 q 236 18 324 -17 q 81 117 149 53 l 175 226 m 471 978 l 342 978 l 458 1139 l 633 1139 l 471 978 z "},"Ŝ":{"ha":833,"x_min":81,"x_max":756,"o":"m 175 226 q 291 152 226 181 q 422 124 356 124 q 549 156 506 124 q 592 240 592 188 q 581 288 592 268 q 549 322 569 307 q 501 349 529 336 q 439 374 472 361 l 315 428 q 244 463 279 442 q 182 513 210 483 q 138 581 154 542 q 121 669 121 619 q 144 770 121 724 q 210 851 168 817 q 309 906 251 886 q 436 925 367 925 q 595 894 519 925 q 728 810 671 863 l 644 707 q 549 764 599 743 q 436 785 499 785 q 324 756 365 785 q 283 678 283 728 q 296 633 283 651 q 330 599 308 614 q 380 574 351 585 q 439 550 408 563 l 558 499 q 638 460 601 482 q 700 408 674 438 q 741 341 726 379 q 756 253 756 303 q 733 149 756 197 q 667 63 710 100 q 561 5 624 26 q 419 -17 499 -17 q 236 18 324 -17 q 81 117 149 53 l 175 226 m 218 978 l 351 1139 l 507 1139 l 640 978 l 515 978 l 432 1067 l 426 1067 l 343 978 l 218 978 z "},"Š":{"ha":833,"x_min":81,"x_max":756,"o":"m 175 226 q 291 152 226 181 q 422 124 356 124 q 549 156 506 124 q 592 240 592 188 q 581 288 592 268 q 549 322 569 307 q 501 349 529 336 q 439 374 472 361 l 315 428 q 244 463 279 442 q 182 513 210 483 q 138 581 154 542 q 121 669 121 619 q 144 770 121 724 q 210 851 168 817 q 309 906 251 886 q 436 925 367 925 q 595 894 519 925 q 728 810 671 863 l 644 707 q 549 764 599 743 q 436 785 499 785 q 324 756 365 785 q 283 678 283 728 q 296 633 283 651 q 330 599 308 614 q 380 574 351 585 q 439 550 408 563 l 558 499 q 638 460 601 482 q 700 408 674 438 q 741 341 726 379 q 756 253 756 303 q 733 149 756 197 q 667 63 710 100 q 561 5 624 26 q 419 -17 499 -17 q 236 18 324 -17 q 81 117 149 53 l 175 226 m 640 1139 l 507 978 l 351 978 l 218 1139 l 343 1139 l 426 1050 l 432 1050 l 515 1139 l 640 1139 z "},"Ş":{"ha":833,"x_min":81,"x_max":756,"o":"m 175 226 q 291 152 226 181 q 422 124 356 124 q 549 156 506 124 q 592 240 592 188 q 581 288 592 268 q 549 322 569 307 q 501 349 529 336 q 439 374 472 361 l 315 428 q 244 463 279 442 q 182 513 210 483 q 138 581 154 542 q 121 669 121 619 q 144 770 121 724 q 210 851 168 817 q 309 906 251 886 q 436 925 367 925 q 595 894 519 925 q 728 810 671 863 l 644 707 q 549 764 599 743 q 436 785 499 785 q 324 756 365 785 q 283 678 283 728 q 296 633 283 651 q 330 599 308 614 q 380 574 351 585 q 439 550 408 563 l 558 499 q 638 460 601 482 q 700 408 674 438 q 741 341 726 379 q 756 253 756 303 q 733 149 756 197 q 667 63 710 100 q 561 5 624 26 q 419 -17 499 -17 q 236 18 324 -17 q 81 117 149 53 l 175 226 m 383 4 l 481 4 l 449 -64 q 507 -99 483 -76 q 531 -165 531 -122 q 513 -222 531 -199 q 463 -262 494 -246 q 391 -289 432 -279 q 306 -301 350 -299 l 293 -232 q 378 -210 346 -225 q 411 -168 411 -196 q 392 -131 411 -146 q 328 -104 372 -115 l 383 4 z "},"Ș":{"ha":833,"x_min":81,"x_max":756,"o":"m 175 226 q 291 152 226 181 q 422 124 356 124 q 549 156 506 124 q 592 240 592 188 q 581 288 592 268 q 549 322 569 307 q 501 349 529 336 q 439 374 472 361 l 315 428 q 244 463 279 442 q 182 513 210 483 q 138 581 154 542 q 121 669 121 619 q 144 770 121 724 q 210 851 168 817 q 309 906 251 886 q 436 925 367 925 q 595 894 519 925 q 728 810 671 863 l 644 707 q 549 764 599 743 q 436 785 499 785 q 324 756 365 785 q 283 678 283 728 q 296 633 283 651 q 330 599 308 614 q 380 574 351 585 q 439 550 408 563 l 558 499 q 638 460 601 482 q 700 408 674 438 q 741 341 726 379 q 756 253 756 303 q 733 149 756 197 q 667 63 710 100 q 561 5 624 26 q 419 -17 499 -17 q 236 18 324 -17 q 81 117 149 53 l 175 226 m 386 -62 q 503 -99 468 -72 q 538 -174 538 -125 q 519 -231 538 -207 q 470 -271 501 -254 q 399 -297 439 -287 q 314 -310 358 -307 l 300 -240 q 386 -221 353 -233 q 419 -183 419 -208 q 402 -147 419 -160 q 353 -126 385 -133 l 386 -62 l 386 -62 z "},"Ṡ":{"ha":833,"x_min":81,"x_max":756,"o":"m 175 226 q 291 152 226 181 q 422 124 356 124 q 549 156 506 124 q 592 240 592 188 q 581 288 592 268 q 549 322 569 307 q 501 349 529 336 q 439 374 472 361 l 315 428 q 244 463 279 442 q 182 513 210 483 q 138 581 154 542 q 121 669 121 619 q 144 770 121 724 q 210 851 168 817 q 309 906 251 886 q 436 925 367 925 q 595 894 519 925 q 728 810 671 863 l 644 707 q 549 764 599 743 q 436 785 499 785 q 324 756 365 785 q 283 678 283 728 q 296 633 283 651 q 330 599 308 614 q 380 574 351 585 q 439 550 408 563 l 558 499 q 638 460 601 482 q 700 408 674 438 q 741 341 726 379 q 756 253 756 303 q 733 149 756 197 q 667 63 710 100 q 561 5 624 26 q 419 -17 499 -17 q 236 18 324 -17 q 81 117 149 53 l 175 226 m 429 982 q 358 1008 386 982 q 331 1074 331 1033 q 358 1139 331 1114 q 429 1164 386 1164 q 500 1139 472 1164 q 528 1074 528 1114 q 500 1008 528 1033 q 429 982 472 982 z "},"Ṣ":{"ha":833,"x_min":81,"x_max":756,"o":"m 175 226 q 291 152 226 181 q 422 124 356 124 q 549 156 506 124 q 592 240 592 188 q 581 288 592 268 q 549 322 569 307 q 501 349 529 336 q 439 374 472 361 l 315 428 q 244 463 279 442 q 182 513 210 483 q 138 581 154 542 q 121 669 121 619 q 144 770 121 724 q 210 851 168 817 q 309 906 251 886 q 436 925 367 925 q 595 894 519 925 q 728 810 671 863 l 644 707 q 549 764 599 743 q 436 785 499 785 q 324 756 365 785 q 283 678 283 728 q 296 633 283 651 q 330 599 308 614 q 380 574 351 585 q 439 550 408 563 l 558 499 q 638 460 601 482 q 700 408 674 438 q 741 341 726 379 q 756 253 756 303 q 733 149 756 197 q 667 63 710 100 q 561 5 624 26 q 419 -17 499 -17 q 236 18 324 -17 q 81 117 149 53 l 175 226 m 431 -333 q 349 -304 382 -333 q 317 -226 317 -275 q 349 -148 317 -178 q 431 -118 382 -118 q 512 -148 479 -118 q 544 -226 544 -178 q 512 -304 544 -275 q 431 -333 479 -333 z "},"ẞ":{"ha":833,"x_min":99,"x_max":783,"o":"m 99 607 q 118 732 99 674 q 177 833 138 790 q 278 900 217 875 q 426 925 340 925 q 615 860 542 925 q 715 690 688 796 l 585 500 q 730 406 676 469 q 783 242 783 343 q 767 140 783 188 q 722 58 751 93 q 647 3 692 24 q 544 -17 603 -17 q 415 10 469 -17 q 326 78 360 38 l 413 178 q 469 130 442 144 q 526 115 497 115 q 591 151 567 115 q 615 243 615 186 q 574 339 615 296 q 429 406 532 382 l 419 503 l 553 696 q 505 765 538 736 q 422 793 472 793 q 304 742 344 793 q 264 582 264 690 l 264 0 l 99 0 l 99 607 z "},"Ť":{"ha":833,"x_min":50,"x_max":783,"o":"m 336 772 l 50 772 l 50 908 l 783 908 l 783 772 l 497 772 l 497 0 l 336 0 l 336 772 m 628 1139 l 494 978 l 339 978 l 206 1139 l 331 1139 l 414 1050 l 419 1050 l 503 1139 l 628 1139 z "},"Ţ":{"ha":833,"x_min":50,"x_max":783,"o":"m 336 772 l 50 772 l 50 908 l 783 908 l 783 772 l 497 772 l 497 0 l 336 0 l 336 772 m 372 4 l 469 4 l 438 -64 q 496 -99 472 -76 q 519 -165 519 -122 q 501 -222 519 -199 q 452 -262 483 -246 q 380 -289 421 -279 q 294 -301 339 -299 l 282 -232 q 367 -210 335 -225 q 400 -168 400 -196 q 381 -131 400 -146 q 317 -104 361 -115 l 372 4 z "},"Ț":{"ha":833,"x_min":50,"x_max":783,"o":"m 336 772 l 50 772 l 50 908 l 783 908 l 783 772 l 497 772 l 497 0 l 336 0 l 336 772 m 372 -62 q 489 -99 454 -72 q 524 -174 524 -125 q 506 -231 524 -207 q 456 -271 488 -254 q 385 -297 425 -287 q 300 -310 344 -307 l 286 -240 q 372 -221 339 -233 q 406 -183 406 -208 q 388 -147 406 -160 q 339 -126 371 -133 l 372 -62 l 372 -62 z "},"Ṭ":{"ha":833,"x_min":50,"x_max":783,"o":"m 336 772 l 50 772 l 50 908 l 783 908 l 783 772 l 497 772 l 497 0 l 336 0 l 336 772 m 417 -333 q 335 -304 368 -333 q 303 -226 303 -275 q 335 -148 303 -178 q 417 -118 368 -118 q 498 -148 465 -118 q 531 -226 531 -178 q 498 -304 531 -275 q 417 -333 465 -333 z "},"Ṯ":{"ha":833,"x_min":50,"x_max":783,"o":"m 336 772 l 50 772 l 50 908 l 783 908 l 783 772 l 497 772 l 497 0 l 336 0 l 336 772 m 597 -250 l 235 -250 l 235 -144 l 597 -144 l 597 -250 z "},"Ù":{"ha":833,"x_min":100,"x_max":733,"o":"m 100 908 l 261 908 l 261 335 q 303 173 261 222 q 418 124 344 124 q 536 173 493 124 q 579 335 579 222 l 579 908 l 733 908 l 733 347 q 651 72 733 160 q 418 -17 569 -17 q 185 72 269 -17 q 100 347 100 161 l 100 908 m 213 1139 l 388 1139 l 504 978 l 375 978 l 213 1139 z "},"Ú":{"ha":833,"x_min":100,"x_max":733,"o":"m 100 908 l 261 908 l 261 335 q 303 173 261 222 q 418 124 344 124 q 536 173 493 124 q 579 335 579 222 l 579 908 l 733 908 l 733 347 q 651 72 733 160 q 418 -17 569 -17 q 185 72 269 -17 q 100 347 100 161 l 100 908 m 458 978 l 329 978 l 446 1139 l 621 1139 l 458 978 z "},"Û":{"ha":833,"x_min":100,"x_max":733,"o":"m 100 908 l 261 908 l 261 335 q 303 173 261 222 q 418 124 344 124 q 536 173 493 124 q 579 335 579 222 l 579 908 l 733 908 l 733 347 q 651 72 733 160 q 418 -17 569 -17 q 185 72 269 -17 q 100 347 100 161 l 100 908 m 206 978 l 339 1139 l 494 1139 l 628 978 l 503 978 l 419 1067 l 414 1067 l 331 978 l 206 978 z "},"Ũ":{"ha":833,"x_min":100,"x_max":733,"o":"m 100 908 l 261 908 l 261 335 q 303 173 261 222 q 418 124 344 124 q 536 173 493 124 q 579 335 579 222 l 579 908 l 733 908 l 733 347 q 651 72 733 160 q 418 -17 569 -17 q 185 72 269 -17 q 100 347 100 161 l 100 908 m 503 982 q 452 992 475 982 q 409 1016 429 1003 q 372 1040 389 1029 q 336 1050 354 1050 q 303 1033 317 1050 q 282 982 289 1017 l 197 982 q 242 1107 206 1063 q 331 1151 278 1151 q 381 1141 358 1151 q 424 1118 404 1131 q 462 1095 444 1106 q 497 1085 479 1085 q 531 1101 517 1085 q 551 1151 544 1117 l 636 1151 q 592 1027 628 1072 q 503 982 556 982 z "},"Ü":{"ha":833,"x_min":100,"x_max":733,"o":"m 100 908 l 261 908 l 261 335 q 303 173 261 222 q 418 124 344 124 q 536 173 493 124 q 579 335 579 222 l 579 908 l 733 908 l 733 347 q 651 72 733 160 q 418 -17 569 -17 q 185 72 269 -17 q 100 347 100 161 l 100 908 m 288 983 q 228 1006 251 983 q 206 1065 206 1029 q 228 1125 206 1101 q 288 1149 251 1149 q 347 1125 324 1149 q 371 1065 371 1101 q 347 1006 371 1029 q 288 983 324 983 m 546 983 q 486 1006 510 983 q 463 1065 463 1029 q 486 1125 463 1101 q 546 1149 510 1149 q 605 1125 582 1149 q 628 1065 628 1101 q 605 1006 628 1029 q 546 983 582 983 z "},"Ū":{"ha":833,"x_min":100,"x_max":733,"o":"m 100 908 l 261 908 l 261 335 q 303 173 261 222 q 418 124 344 124 q 536 173 493 124 q 579 335 579 222 l 579 908 l 733 908 l 733 347 q 651 72 733 160 q 418 -17 569 -17 q 185 72 269 -17 q 100 347 100 161 l 100 908 m 232 1111 l 601 1111 l 601 1006 l 232 1006 l 232 1111 z "},"Ŭ":{"ha":833,"x_min":100,"x_max":733,"o":"m 100 908 l 261 908 l 261 335 q 303 173 261 222 q 418 124 344 124 q 536 173 493 124 q 579 335 579 222 l 579 908 l 733 908 l 733 347 q 651 72 733 160 q 418 -17 569 -17 q 185 72 269 -17 q 100 347 100 161 l 100 908 m 417 979 q 286 1026 329 979 q 236 1139 243 1072 l 328 1139 q 355 1086 335 1108 q 417 1064 375 1064 q 478 1086 458 1064 q 506 1139 499 1108 l 597 1139 q 547 1026 590 1072 q 417 979 504 979 z "},"Ů":{"ha":833,"x_min":100,"x_max":733,"o":"m 100 908 l 261 908 l 261 335 q 303 173 261 222 q 418 124 344 124 q 536 173 493 124 q 579 335 579 222 l 579 908 l 733 908 l 733 347 q 651 72 733 160 q 418 -17 569 -17 q 185 72 269 -17 q 100 347 100 161 l 100 908 m 417 969 q 313 1004 353 969 q 274 1099 274 1039 q 313 1192 274 1157 q 417 1228 353 1228 q 519 1192 479 1228 q 560 1099 560 1157 q 519 1004 560 1039 q 417 969 479 969 m 417 1033 q 460 1050 442 1033 q 478 1099 478 1067 q 460 1147 478 1129 q 417 1164 442 1164 q 373 1147 390 1164 q 356 1099 356 1129 q 373 1050 356 1067 q 417 1033 390 1033 z "},"Ű":{"ha":833,"x_min":100,"x_max":733,"o":"m 100 908 l 261 908 l 261 335 q 303 173 261 222 q 418 124 344 124 q 536 173 493 124 q 579 335 579 222 l 579 908 l 733 908 l 733 347 q 651 72 733 160 q 418 -17 569 -17 q 185 72 269 -17 q 100 347 100 161 l 100 908 m 246 978 l 335 1139 l 476 1139 l 356 978 l 246 978 m 569 1139 l 711 1139 l 590 978 l 481 978 l 569 1139 z "},"Ǔ":{"ha":833,"x_min":100,"x_max":733,"o":"m 100 908 l 261 908 l 261 335 q 303 173 261 222 q 418 124 344 124 q 536 173 493 124 q 579 335 579 222 l 579 908 l 733 908 l 733 347 q 651 72 733 160 q 418 -17 569 -17 q 185 72 269 -17 q 100 347 100 161 l 100 908 m 628 1139 l 494 978 l 339 978 l 206 1139 l 331 1139 l 414 1050 l 419 1050 l 503 1139 l 628 1139 z "},"Ǖ":{"ha":833,"x_min":100,"x_max":733,"o":"m 100 908 l 261 908 l 261 335 q 303 173 261 222 q 418 124 344 124 q 536 173 493 124 q 579 335 579 222 l 579 908 l 733 908 l 733 347 q 651 72 733 160 q 418 -17 569 -17 q 185 72 269 -17 q 100 347 100 161 l 100 908 m 232 1283 l 601 1283 l 601 1203 l 232 1203 l 232 1283 m 288 983 q 235 1004 256 983 q 214 1057 214 1025 q 235 1110 214 1089 q 288 1132 256 1132 q 341 1110 319 1132 q 363 1057 363 1089 q 341 1004 363 1025 q 288 983 319 983 m 546 983 q 492 1004 514 983 q 471 1057 471 1025 q 492 1110 471 1089 q 546 1132 514 1132 q 599 1110 578 1132 q 619 1057 619 1089 q 599 1004 619 1025 q 546 983 578 983 z "},"Ǘ":{"ha":833,"x_min":100,"x_max":733,"o":"m 100 908 l 261 908 l 261 335 q 303 173 261 222 q 418 124 344 124 q 536 173 493 124 q 579 335 579 222 l 579 908 l 733 908 l 733 347 q 651 72 733 160 q 418 -17 569 -17 q 185 72 269 -17 q 100 347 100 161 l 100 908 m 447 1336 l 618 1336 l 458 1175 l 329 1175 l 447 1336 m 288 983 q 235 1004 256 983 q 214 1057 214 1025 q 235 1110 214 1089 q 288 1132 256 1132 q 341 1110 319 1132 q 363 1057 363 1089 q 341 1004 363 1025 q 288 983 319 983 m 546 983 q 492 1004 514 983 q 471 1057 471 1025 q 492 1110 471 1089 q 546 1132 514 1132 q 599 1110 578 1132 q 619 1057 619 1089 q 599 1004 619 1025 q 546 983 578 983 z "},"Ǚ":{"ha":833,"x_min":100,"x_max":733,"o":"m 100 908 l 261 908 l 261 335 q 303 173 261 222 q 418 124 344 124 q 536 173 493 124 q 579 335 579 222 l 579 908 l 733 908 l 733 347 q 651 72 733 160 q 418 -17 569 -17 q 185 72 269 -17 q 100 347 100 161 l 100 908 m 288 983 q 235 1004 256 983 q 214 1057 214 1025 q 235 1110 214 1089 q 288 1132 256 1132 q 341 1110 319 1132 q 363 1057 363 1089 q 341 1004 363 1025 q 288 983 319 983 m 546 983 q 492 1004 514 983 q 471 1057 471 1025 q 492 1110 471 1089 q 546 1132 514 1132 q 599 1110 578 1132 q 619 1057 619 1089 q 599 1004 619 1025 q 546 983 578 983 m 628 1336 l 494 1175 l 339 1175 l 206 1336 l 331 1336 l 414 1247 l 419 1247 l 503 1336 l 628 1336 z "},"Ǜ":{"ha":833,"x_min":100,"x_max":733,"o":"m 100 908 l 261 908 l 261 335 q 303 173 261 222 q 418 124 344 124 q 536 173 493 124 q 579 335 579 222 l 579 908 l 733 908 l 733 347 q 651 72 733 160 q 418 -17 569 -17 q 185 72 269 -17 q 100 347 100 161 l 100 908 m 504 1175 l 375 1175 l 215 1336 l 386 1336 l 504 1175 m 546 983 q 492 1004 514 983 q 471 1057 471 1025 q 492 1110 471 1089 q 546 1132 514 1132 q 599 1110 578 1132 q 619 1057 619 1089 q 599 1004 619 1025 q 546 983 578 983 m 288 983 q 235 1004 256 983 q 214 1057 214 1025 q 235 1110 214 1089 q 288 1132 256 1132 q 341 1110 319 1132 q 363 1057 363 1089 q 341 1004 363 1025 q 288 983 319 983 z "},"Ụ":{"ha":833,"x_min":100,"x_max":733,"o":"m 100 908 l 261 908 l 261 335 q 303 173 261 222 q 418 124 344 124 q 536 173 493 124 q 579 335 579 222 l 579 908 l 733 908 l 733 347 q 651 72 733 160 q 418 -17 569 -17 q 185 72 269 -17 q 100 347 100 161 l 100 908 m 417 -333 q 335 -304 368 -333 q 303 -226 303 -275 q 335 -148 303 -178 q 417 -118 368 -118 q 498 -148 465 -118 q 531 -226 531 -178 q 498 -304 531 -275 q 417 -333 465 -333 z "},"Ủ":{"ha":833,"x_min":100,"x_max":733,"o":"m 100 908 l 261 908 l 261 335 q 303 173 261 222 q 418 124 344 124 q 536 173 493 124 q 579 335 579 222 l 579 908 l 733 908 l 733 347 q 651 72 733 160 q 418 -17 569 -17 q 185 72 269 -17 q 100 347 100 161 l 100 908 m 358 1032 q 408 1050 388 1039 q 428 1083 428 1061 q 401 1120 428 1107 q 315 1136 375 1133 l 333 1221 q 496 1187 444 1218 q 547 1101 547 1156 q 533 1044 547 1068 q 494 1004 518 1021 q 439 978 471 988 q 372 964 407 968 l 358 1032 z "},"Ų":{"ha":833,"x_min":100,"x_max":733,"o":"m 100 908 l 261 908 l 261 335 q 303 173 261 222 q 418 124 344 124 q 535 173 492 124 q 579 335 579 222 l 579 908 l 733 908 l 733 347 q 689 128 733 210 q 561 10 644 47 q 456 -65 485 -26 q 426 -136 426 -103 q 446 -181 426 -167 q 489 -194 465 -194 q 517 -189 504 -194 q 542 -175 531 -183 l 581 -258 q 521 -290 557 -278 q 453 -303 485 -303 q 348 -271 390 -303 q 306 -176 306 -239 q 315 -121 306 -146 q 340 -76 325 -96 q 369 -40 354 -56 q 396 -14 385 -25 q 172 85 244 -8 q 100 347 100 178 l 100 908 z "},"Ư":{"ha":833,"x_min":100,"x_max":897,"o":"m 860 1108 q 886 1064 875 1089 q 897 1008 897 1039 q 849 897 897 935 q 733 846 801 860 l 733 347 q 651 72 733 160 q 418 -17 569 -17 q 185 72 269 -17 q 100 347 100 161 l 100 908 l 261 908 l 261 335 q 303 173 261 222 q 418 124 344 124 q 536 173 493 124 q 579 335 579 222 l 579 908 l 653 908 q 735 930 701 913 q 769 997 769 947 q 763 1031 769 1015 q 749 1058 757 1046 l 860 1108 z "},"Ứ":{"ha":833,"x_min":100,"x_max":897,"o":"m 860 1108 q 886 1064 875 1089 q 897 1008 897 1039 q 849 897 897 935 q 733 846 801 860 l 733 347 q 651 72 733 160 q 418 -17 569 -17 q 185 72 269 -17 q 100 347 100 161 l 100 908 l 261 908 l 261 335 q 303 173 261 222 q 418 124 344 124 q 536 173 493 124 q 579 335 579 222 l 579 908 l 653 908 q 735 930 701 913 q 769 997 769 947 q 763 1031 769 1015 q 749 1058 757 1046 l 860 1108 m 458 978 l 329 978 l 446 1139 l 621 1139 l 458 978 z "},"Ừ":{"ha":833,"x_min":100,"x_max":897,"o":"m 860 1108 q 886 1064 875 1089 q 897 1008 897 1039 q 849 897 897 935 q 733 846 801 860 l 733 347 q 651 72 733 160 q 418 -17 569 -17 q 185 72 269 -17 q 100 347 100 161 l 100 908 l 261 908 l 261 335 q 303 173 261 222 q 418 124 344 124 q 536 173 493 124 q 579 335 579 222 l 579 908 l 653 908 q 735 930 701 913 q 769 997 769 947 q 763 1031 769 1015 q 749 1058 757 1046 l 860 1108 m 213 1139 l 388 1139 l 504 978 l 375 978 l 213 1139 z "},"Ử":{"ha":833,"x_min":100,"x_max":897,"o":"m 860 1108 q 886 1064 875 1089 q 897 1008 897 1039 q 849 897 897 935 q 733 846 801 860 l 733 347 q 651 72 733 160 q 418 -17 569 -17 q 185 72 269 -17 q 100 347 100 161 l 100 908 l 261 908 l 261 335 q 303 173 261 222 q 418 124 344 124 q 536 173 493 124 q 579 335 579 222 l 579 908 l 653 908 q 735 930 701 913 q 769 997 769 947 q 763 1031 769 1015 q 749 1058 757 1046 l 860 1108 m 358 1032 q 408 1050 388 1039 q 428 1083 428 1061 q 401 1120 428 1107 q 315 1136 375 1133 l 333 1221 q 496 1187 444 1218 q 547 1101 547 1156 q 533 1044 547 1068 q 494 1004 518 1021 q 439 978 471 988 q 372 964 407 968 l 358 1032 z "},"Ữ":{"ha":833,"x_min":100,"x_max":897,"o":"m 860 1108 q 886 1064 875 1089 q 897 1008 897 1039 q 849 897 897 935 q 733 846 801 860 l 733 347 q 651 72 733 160 q 418 -17 569 -17 q 185 72 269 -17 q 100 347 100 161 l 100 908 l 261 908 l 261 335 q 303 173 261 222 q 418 124 344 124 q 536 173 493 124 q 579 335 579 222 l 579 908 l 653 908 q 735 930 701 913 q 769 997 769 947 q 763 1031 769 1015 q 749 1058 757 1046 l 860 1108 m 503 982 q 452 992 475 982 q 409 1016 429 1003 q 372 1040 389 1029 q 336 1050 354 1050 q 303 1033 317 1050 q 282 982 289 1017 l 197 982 q 242 1107 206 1063 q 331 1151 278 1151 q 381 1141 358 1151 q 424 1118 404 1131 q 462 1095 444 1106 q 497 1085 479 1085 q 531 1101 517 1085 q 551 1151 544 1117 l 636 1151 q 592 1027 628 1072 q 503 982 556 982 z "},"Ự":{"ha":833,"x_min":100,"x_max":897,"o":"m 860 1108 q 886 1064 875 1089 q 897 1008 897 1039 q 849 897 897 935 q 733 846 801 860 l 733 347 q 651 72 733 160 q 418 -17 569 -17 q 185 72 269 -17 q 100 347 100 161 l 100 908 l 261 908 l 261 335 q 303 173 261 222 q 418 124 344 124 q 536 173 493 124 q 579 335 579 222 l 579 908 l 653 908 q 735 930 701 913 q 769 997 769 947 q 763 1031 769 1015 q 749 1058 757 1046 l 860 1108 m 417 -333 q 335 -304 368 -333 q 303 -226 303 -275 q 335 -148 303 -178 q 417 -118 368 -118 q 498 -148 465 -118 q 531 -226 531 -178 q 498 -304 531 -275 q 417 -333 465 -333 z "},"Ẁ":{"ha":833,"x_min":10,"x_max":824,"o":"m 10 908 l 172 908 l 222 382 q 229 268 225 324 q 236 154 233 213 l 240 154 q 266 269 251 213 q 293 382 281 325 l 372 676 l 475 676 l 553 382 q 578 269 564 326 q 604 154 593 213 l 610 154 q 617 269 613 213 q 624 382 621 326 l 671 908 l 824 908 l 700 0 l 529 0 l 449 332 q 432 418 439 375 q 419 501 425 461 l 415 501 q 401 418 408 461 q 385 332 394 375 l 308 0 l 140 0 l 10 908 m 213 1139 l 388 1139 l 504 978 l 375 978 l 213 1139 z "},"Ẃ":{"ha":833,"x_min":10,"x_max":824,"o":"m 10 908 l 172 908 l 222 382 q 229 268 225 324 q 236 154 233 213 l 240 154 q 266 269 251 213 q 293 382 281 325 l 372 676 l 475 676 l 553 382 q 578 269 564 326 q 604 154 593 213 l 610 154 q 617 269 613 213 q 624 382 621 326 l 671 908 l 824 908 l 700 0 l 529 0 l 449 332 q 432 418 439 375 q 419 501 425 461 l 415 501 q 401 418 408 461 q 385 332 394 375 l 308 0 l 140 0 l 10 908 m 458 978 l 329 978 l 446 1139 l 621 1139 l 458 978 z "},"Ŵ":{"ha":833,"x_min":10,"x_max":824,"o":"m 10 908 l 172 908 l 222 382 q 229 268 225 324 q 236 154 233 213 l 240 154 q 266 269 251 213 q 293 382 281 325 l 372 676 l 475 676 l 553 382 q 578 269 564 326 q 604 154 593 213 l 610 154 q 617 269 613 213 q 624 382 621 326 l 671 908 l 824 908 l 700 0 l 529 0 l 449 332 q 432 418 439 375 q 419 501 425 461 l 415 501 q 401 418 408 461 q 385 332 394 375 l 308 0 l 140 0 l 10 908 m 206 978 l 339 1139 l 494 1139 l 628 978 l 503 978 l 419 1067 l 414 1067 l 331 978 l 206 978 z "},"Ẅ":{"ha":833,"x_min":10,"x_max":824,"o":"m 10 908 l 172 908 l 222 382 q 229 268 225 324 q 236 154 233 213 l 240 154 q 266 269 251 213 q 293 382 281 325 l 372 676 l 475 676 l 553 382 q 578 269 564 326 q 604 154 593 213 l 610 154 q 617 269 613 213 q 624 382 621 326 l 671 908 l 824 908 l 700 0 l 529 0 l 449 332 q 432 418 439 375 q 419 501 425 461 l 415 501 q 401 418 408 461 q 385 332 394 375 l 308 0 l 140 0 l 10 908 m 288 983 q 228 1006 251 983 q 206 1065 206 1029 q 228 1125 206 1101 q 288 1149 251 1149 q 347 1125 324 1149 q 371 1065 371 1101 q 347 1006 371 1029 q 288 983 324 983 m 546 983 q 486 1006 510 983 q 463 1065 463 1029 q 486 1125 463 1101 q 546 1149 510 1149 q 605 1125 582 1149 q 628 1065 628 1101 q 605 1006 628 1029 q 546 983 582 983 z "},"Ỳ":{"ha":833,"x_min":38,"x_max":796,"o":"m 336 315 l 38 908 l 208 908 l 322 664 q 369 560 346 611 q 415 454 392 510 l 421 454 q 469 561 446 510 q 517 665 493 613 l 629 908 l 796 908 l 497 315 l 497 0 l 336 0 l 336 315 m 213 1139 l 388 1139 l 504 978 l 375 978 l 213 1139 z "},"Ý":{"ha":833,"x_min":38,"x_max":796,"o":"m 336 315 l 38 908 l 208 908 l 322 664 q 369 560 346 611 q 415 454 392 510 l 421 454 q 469 561 446 510 q 517 665 493 613 l 629 908 l 796 908 l 497 315 l 497 0 l 336 0 l 336 315 m 458 978 l 329 978 l 446 1139 l 621 1139 l 458 978 z "},"Ŷ":{"ha":833,"x_min":38,"x_max":796,"o":"m 336 315 l 38 908 l 208 908 l 322 664 q 369 560 346 611 q 415 454 392 510 l 421 454 q 469 561 446 510 q 517 665 493 613 l 629 908 l 796 908 l 497 315 l 497 0 l 336 0 l 336 315 m 206 978 l 339 1139 l 494 1139 l 628 978 l 503 978 l 419 1067 l 414 1067 l 331 978 l 206 978 z "},"Ÿ":{"ha":833,"x_min":38,"x_max":796,"o":"m 336 315 l 38 908 l 208 908 l 322 664 q 369 560 346 611 q 415 454 392 510 l 421 454 q 469 561 446 510 q 517 665 493 613 l 629 908 l 796 908 l 497 315 l 497 0 l 336 0 l 336 315 m 288 983 q 228 1006 251 983 q 206 1065 206 1029 q 228 1125 206 1101 q 288 1149 251 1149 q 347 1125 324 1149 q 371 1065 371 1101 q 347 1006 371 1029 q 288 983 324 983 m 546 983 q 486 1006 510 983 q 463 1065 463 1029 q 486 1125 463 1101 q 546 1149 510 1149 q 605 1125 582 1149 q 628 1065 628 1101 q 605 1006 628 1029 q 546 983 582 983 z "},"Ẏ":{"ha":833,"x_min":38,"x_max":796,"o":"m 336 315 l 38 908 l 208 908 l 322 664 q 369 560 346 611 q 415 454 392 510 l 421 454 q 469 561 446 510 q 517 665 493 613 l 629 908 l 796 908 l 497 315 l 497 0 l 336 0 l 336 315 m 417 982 q 346 1008 374 982 q 318 1074 318 1033 q 346 1139 318 1114 q 417 1164 374 1164 q 488 1139 460 1164 q 515 1074 515 1114 q 488 1008 515 1033 q 417 982 460 982 z "},"Ỵ":{"ha":833,"x_min":38,"x_max":796,"o":"m 336 315 l 38 908 l 208 908 l 322 664 q 369 560 346 611 q 415 454 392 510 l 421 454 q 469 561 446 510 q 517 665 493 613 l 629 908 l 796 908 l 497 315 l 497 0 l 336 0 l 336 315 m 417 -333 q 335 -304 368 -333 q 303 -226 303 -275 q 335 -148 303 -178 q 417 -118 368 -118 q 498 -148 465 -118 q 531 -226 531 -178 q 498 -304 531 -275 q 417 -333 465 -333 z "},"Ỷ":{"ha":833,"x_min":38,"x_max":796,"o":"m 336 315 l 38 908 l 208 908 l 322 664 q 369 560 346 611 q 415 454 392 510 l 421 454 q 469 561 446 510 q 517 665 493 613 l 629 908 l 796 908 l 497 315 l 497 0 l 336 0 l 336 315 m 358 1032 q 408 1050 388 1039 q 428 1083 428 1061 q 401 1120 428 1107 q 315 1136 375 1133 l 333 1221 q 496 1187 444 1218 q 547 1101 547 1156 q 533 1044 547 1068 q 494 1004 518 1021 q 439 978 471 988 q 372 964 407 968 l 358 1032 z "},"Ỹ":{"ha":833,"x_min":38,"x_max":796,"o":"m 336 315 l 38 908 l 208 908 l 322 664 q 369 560 346 611 q 415 454 392 510 l 421 454 q 469 561 446 510 q 517 665 493 613 l 629 908 l 796 908 l 497 315 l 497 0 l 336 0 l 336 315 m 503 982 q 452 992 475 982 q 409 1016 429 1003 q 372 1040 389 1029 q 336 1050 354 1050 q 303 1033 317 1050 q 282 982 289 1017 l 197 982 q 242 1107 206 1063 q 331 1151 278 1151 q 381 1141 358 1151 q 424 1118 404 1131 q 462 1095 444 1106 q 497 1085 479 1085 q 531 1101 517 1085 q 551 1151 544 1117 l 636 1151 q 592 1027 628 1072 q 503 982 556 982 z "},"Ź":{"ha":833,"x_min":85,"x_max":754,"o":"m 85 97 l 550 774 l 126 774 l 126 908 l 749 908 l 749 811 l 282 136 l 754 136 l 754 0 l 85 0 l 85 97 m 479 978 l 350 978 l 467 1139 l 642 1139 l 479 978 z "},"Ž":{"ha":833,"x_min":85,"x_max":754,"o":"m 85 97 l 550 774 l 126 774 l 126 908 l 749 908 l 749 811 l 282 136 l 754 136 l 754 0 l 85 0 l 85 97 m 649 1139 l 515 978 l 360 978 l 226 1139 l 351 1139 l 435 1050 l 440 1050 l 524 1139 l 649 1139 z "},"Ż":{"ha":833,"x_min":85,"x_max":754,"o":"m 85 97 l 550 774 l 126 774 l 126 908 l 749 908 l 749 811 l 282 136 l 754 136 l 754 0 l 85 0 l 85 97 m 438 982 q 367 1008 394 982 q 339 1074 339 1033 q 367 1139 339 1114 q 438 1164 394 1164 q 508 1139 481 1164 q 536 1074 536 1114 q 508 1008 536 1033 q 438 982 481 982 z "},"Ẓ":{"ha":833,"x_min":85,"x_max":754,"o":"m 85 97 l 550 774 l 126 774 l 126 908 l 749 908 l 749 811 l 282 136 l 754 136 l 754 0 l 85 0 l 85 97 m 432 -333 q 351 -304 383 -333 q 318 -226 318 -275 q 351 -148 318 -178 q 432 -118 383 -118 q 513 -148 481 -118 q 546 -226 546 -178 q 513 -304 546 -275 q 432 -333 481 -333 z "},"Ð":{"ha":833,"x_min":13,"x_max":775,"o":"m 113 432 l 13 432 l 13 507 l 113 514 l 113 908 l 347 908 q 661 796 547 908 q 775 458 775 683 q 746 260 775 346 q 663 116 717 174 q 531 29 608 58 q 356 0 453 0 l 113 0 l 113 432 m 338 131 q 539 210 468 131 q 610 458 610 290 q 538 701 610 625 q 338 778 467 778 l 274 778 l 274 514 l 447 514 l 447 432 l 274 432 l 274 131 l 338 131 z "},"Þ":{"ha":833,"x_min":121,"x_max":772,"o":"m 121 908 l 282 908 l 282 764 l 426 764 q 565 749 501 764 q 674 702 628 735 q 746 616 719 669 q 772 483 772 563 q 746 351 772 407 q 673 260 719 296 q 563 206 626 224 q 426 189 500 189 l 282 189 l 282 0 l 121 0 l 121 908 m 413 318 q 564 359 515 318 q 613 483 613 400 q 563 601 613 568 q 413 635 513 635 l 282 635 l 282 318 l 413 318 z "},"Ə":{"ha":833,"x_min":83,"x_max":771,"o":"m 247 379 q 302 188 256 254 q 424 121 349 121 q 547 188 499 121 q 608 381 596 256 l 247 379 m 178 824 q 284 897 222 868 q 429 925 346 925 q 570 893 507 925 q 678 801 633 861 q 747 653 722 740 q 771 456 771 565 q 746 258 771 346 q 675 110 721 171 q 565 16 629 49 q 424 -17 501 -17 q 283 16 346 -17 q 176 109 221 49 q 108 256 132 169 q 83 450 83 343 q 84 474 83 461 q 86 499 85 486 l 610 499 q 553 713 603 638 q 413 788 504 788 q 320 767 360 788 q 249 714 281 746 l 178 824 z "},"à":{"ha":833,"x_min":99,"x_max":729,"o":"m 99 183 q 125 284 99 240 q 208 358 151 328 q 354 408 265 389 q 569 436 443 428 q 528 532 565 494 q 407 569 490 569 q 292 548 349 569 q 183 497 236 526 l 125 604 q 268 669 188 640 q 436 699 349 699 q 654 623 579 699 q 729 404 729 547 l 729 0 l 599 0 l 586 85 l 582 85 q 462 13 528 43 q 326 -17 396 -17 q 235 -2 276 -17 q 163 39 193 13 q 115 102 132 65 q 99 183 99 139 m 253 196 q 288 129 253 150 q 375 108 324 108 q 474 131 426 108 q 569 192 522 154 l 569 336 q 417 317 478 329 q 319 288 356 306 q 268 247 283 269 q 253 196 253 224 m 243 1015 l 410 1015 l 535 796 l 415 796 l 243 1015 z "},"á":{"ha":833,"x_min":99,"x_max":729,"o":"m 99 183 q 125 284 99 240 q 208 358 151 328 q 354 408 265 389 q 569 436 443 428 q 528 532 565 494 q 407 569 490 569 q 292 548 349 569 q 183 497 236 526 l 125 604 q 268 669 188 640 q 436 699 349 699 q 654 623 579 699 q 729 404 729 547 l 729 0 l 599 0 l 586 85 l 582 85 q 462 13 528 43 q 326 -17 396 -17 q 235 -2 276 -17 q 163 39 193 13 q 115 102 132 65 q 99 183 99 139 m 253 196 q 288 129 253 150 q 375 108 324 108 q 474 131 426 108 q 569 192 522 154 l 569 336 q 417 317 478 329 q 319 288 356 306 q 268 247 283 269 q 253 196 253 224 m 449 796 l 329 796 l 454 1015 l 621 1015 l 449 796 z "},"â":{"ha":833,"x_min":99,"x_max":729,"o":"m 99 183 q 125 284 99 240 q 208 358 151 328 q 354 408 265 389 q 569 436 443 428 q 528 532 565 494 q 407 569 490 569 q 292 548 349 569 q 183 497 236 526 l 125 604 q 268 669 188 640 q 436 699 349 699 q 654 623 579 699 q 729 404 729 547 l 729 0 l 599 0 l 586 85 l 582 85 q 462 13 528 43 q 326 -17 396 -17 q 235 -2 276 -17 q 163 39 193 13 q 115 102 132 65 q 99 183 99 139 m 253 196 q 288 129 253 150 q 375 108 324 108 q 474 131 426 108 q 569 192 522 154 l 569 336 q 417 317 478 329 q 319 288 356 306 q 268 247 283 269 q 253 196 253 224 m 364 1015 l 500 1015 l 638 796 l 518 796 l 435 931 l 429 931 l 346 796 l 226 796 l 364 1015 z "},"ã":{"ha":833,"x_min":99,"x_max":729,"o":"m 99 183 q 125 284 99 240 q 208 358 151 328 q 354 408 265 389 q 569 436 443 428 q 528 532 565 494 q 407 569 490 569 q 292 548 349 569 q 183 497 236 526 l 125 604 q 268 669 188 640 q 436 699 349 699 q 654 623 579 699 q 729 404 729 547 l 729 0 l 599 0 l 586 85 l 582 85 q 462 13 528 43 q 326 -17 396 -17 q 235 -2 276 -17 q 163 39 193 13 q 115 102 132 65 q 99 183 99 139 m 253 196 q 288 129 253 150 q 375 108 324 108 q 474 131 426 108 q 569 192 522 154 l 569 336 q 417 317 478 329 q 319 288 356 306 q 268 247 283 269 q 253 196 253 224 m 215 801 q 261 931 225 885 q 357 978 297 978 q 403 966 382 978 q 442 940 424 954 q 476 915 460 926 q 507 903 492 903 q 543 920 529 903 q 564 978 557 938 l 649 978 q 603 848 639 894 q 507 801 567 801 q 461 813 482 801 q 422 839 440 825 q 389 865 404 853 q 357 876 374 876 q 321 859 335 876 q 300 801 307 842 l 215 801 l 215 801 z "},"ä":{"ha":833,"x_min":99,"x_max":729,"o":"m 99 183 q 125 284 99 240 q 208 358 151 328 q 354 408 265 389 q 569 436 443 428 q 528 532 565 494 q 407 569 490 569 q 292 548 349 569 q 183 497 236 526 l 125 604 q 268 669 188 640 q 436 699 349 699 q 654 623 579 699 q 729 404 729 547 l 729 0 l 599 0 l 586 85 l 582 85 q 462 13 528 43 q 326 -17 396 -17 q 235 -2 276 -17 q 163 39 193 13 q 115 102 132 65 q 99 183 99 139 m 253 196 q 288 129 253 150 q 375 108 324 108 q 474 131 426 108 q 569 192 522 154 l 569 336 q 417 317 478 329 q 319 288 356 306 q 268 247 283 269 q 253 196 253 224 m 289 804 q 223 831 249 804 q 197 897 197 857 q 223 965 197 938 q 289 992 249 992 q 356 965 329 992 q 382 897 382 938 q 356 831 382 857 q 289 804 329 804 m 575 804 q 508 831 535 804 q 482 897 482 857 q 508 965 482 938 q 575 992 535 992 q 641 965 615 992 q 667 897 667 938 q 641 831 667 857 q 575 804 615 804 z "},"ā":{"ha":833,"x_min":99,"x_max":729,"o":"m 99 183 q 125 284 99 240 q 208 358 151 328 q 354 408 265 389 q 569 436 443 428 q 528 532 565 494 q 407 569 490 569 q 292 548 349 569 q 183 497 236 526 l 125 604 q 268 669 188 640 q 436 699 349 699 q 654 623 579 699 q 729 404 729 547 l 729 0 l 599 0 l 586 85 l 582 85 q 462 13 528 43 q 326 -17 396 -17 q 235 -2 276 -17 q 163 39 193 13 q 115 102 132 65 q 99 183 99 139 m 253 196 q 288 129 253 150 q 375 108 324 108 q 474 131 426 108 q 569 192 522 154 l 569 336 q 417 317 478 329 q 319 288 356 306 q 268 247 283 269 q 253 196 253 224 m 251 933 l 613 933 l 613 828 l 251 828 l 251 933 z "},"ă":{"ha":833,"x_min":99,"x_max":729,"o":"m 99 183 q 125 284 99 240 q 208 358 151 328 q 354 408 265 389 q 569 436 443 428 q 528 532 565 494 q 407 569 490 569 q 292 548 349 569 q 183 497 236 526 l 125 604 q 268 669 188 640 q 436 699 349 699 q 654 623 579 699 q 729 404 729 547 l 729 0 l 599 0 l 586 85 l 582 85 q 462 13 528 43 q 326 -17 396 -17 q 235 -2 276 -17 q 163 39 193 13 q 115 102 132 65 q 99 183 99 139 m 253 196 q 288 129 253 150 q 375 108 324 108 q 474 131 426 108 q 569 192 522 154 l 569 336 q 417 317 478 329 q 319 288 356 306 q 268 247 283 269 q 253 196 253 224 m 432 799 q 348 816 383 799 q 289 862 313 833 q 253 926 265 890 q 239 1000 240 963 l 332 1000 q 361 922 338 956 q 432 889 385 889 q 503 922 479 889 q 532 1000 526 956 l 625 1000 q 610 926 622 963 q 575 862 599 890 q 516 816 551 833 q 432 799 481 799 z "},"å":{"ha":833,"x_min":99,"x_max":729,"o":"m 99 183 q 125 284 99 240 q 208 358 151 328 q 354 408 265 389 q 569 436 443 428 q 528 532 565 494 q 407 569 490 569 q 292 548 349 569 q 183 497 236 526 l 125 604 q 268 669 188 640 q 436 699 349 699 q 654 623 579 699 q 729 404 729 547 l 729 0 l 599 0 l 586 85 l 582 85 q 462 13 528 43 q 326 -17 396 -17 q 235 -2 276 -17 q 163 39 193 13 q 115 102 132 65 q 99 183 99 139 m 253 196 q 288 129 253 150 q 375 108 324 108 q 474 131 426 108 q 569 192 522 154 l 569 336 q 417 317 478 329 q 319 288 356 306 q 268 247 283 269 q 253 196 253 224 m 432 757 q 328 794 368 757 q 289 892 289 831 q 328 991 289 954 q 432 1028 368 1028 q 535 991 496 1028 q 575 892 575 954 q 535 794 575 831 q 432 757 496 757 m 432 821 q 476 840 458 821 q 493 892 493 860 q 476 944 493 924 q 432 964 458 964 q 388 944 406 964 q 371 892 371 924 q 388 840 371 860 q 432 821 406 821 z "},"ǎ":{"ha":833,"x_min":99,"x_max":729,"o":"m 99 183 q 125 284 99 240 q 208 358 151 328 q 354 408 265 389 q 569 436 443 428 q 528 532 565 494 q 407 569 490 569 q 292 548 349 569 q 183 497 236 526 l 125 604 q 268 669 188 640 q 436 699 349 699 q 654 623 579 699 q 729 404 729 547 l 729 0 l 599 0 l 586 85 l 582 85 q 462 13 528 43 q 326 -17 396 -17 q 235 -2 276 -17 q 163 39 193 13 q 115 102 132 65 q 99 183 99 139 m 253 196 q 288 129 253 150 q 375 108 324 108 q 474 131 426 108 q 569 192 522 154 l 569 336 q 417 317 478 329 q 319 288 356 306 q 268 247 283 269 q 253 196 253 224 m 226 1015 l 346 1015 l 429 881 l 435 881 l 518 1015 l 638 1015 l 500 796 l 364 796 l 226 1015 z "},"ạ":{"ha":833,"x_min":99,"x_max":729,"o":"m 99 183 q 125 284 99 240 q 208 358 151 328 q 354 408 265 389 q 569 436 443 428 q 528 532 565 494 q 407 569 490 569 q 292 548 349 569 q 183 497 236 526 l 125 604 q 268 669 188 640 q 436 699 349 699 q 654 623 579 699 q 729 404 729 547 l 729 0 l 599 0 l 586 85 l 582 85 q 462 13 528 43 q 326 -17 396 -17 q 235 -2 276 -17 q 163 39 193 13 q 115 102 132 65 q 99 183 99 139 m 253 196 q 288 129 253 150 q 375 108 324 108 q 474 131 426 108 q 569 192 522 154 l 569 336 q 417 317 478 329 q 319 288 356 306 q 268 247 283 269 q 253 196 253 224 m 425 -333 q 344 -304 376 -333 q 311 -226 311 -275 q 344 -148 311 -178 q 425 -118 376 -118 q 506 -148 474 -118 q 539 -226 539 -178 q 506 -304 539 -275 q 425 -333 474 -333 z "},"ả":{"ha":833,"x_min":99,"x_max":729,"o":"m 99 183 q 125 284 99 240 q 208 358 151 328 q 354 408 265 389 q 569 436 443 428 q 528 532 565 494 q 407 569 490 569 q 292 548 349 569 q 183 497 236 526 l 125 604 q 268 669 188 640 q 436 699 349 699 q 654 623 579 699 q 729 404 729 547 l 729 0 l 599 0 l 586 85 l 582 85 q 462 13 528 43 q 326 -17 396 -17 q 235 -2 276 -17 q 163 39 193 13 q 115 102 132 65 q 99 183 99 139 m 253 196 q 288 129 253 150 q 375 108 324 108 q 474 131 426 108 q 569 192 522 154 l 569 336 q 417 317 478 329 q 319 288 356 306 q 268 247 283 269 q 253 196 253 224 m 374 838 q 423 856 403 844 q 443 890 443 867 q 417 927 443 914 q 331 943 390 940 l 349 1028 q 511 993 460 1024 q 563 907 563 963 q 548 850 563 874 q 510 810 533 826 q 454 785 486 794 q 388 771 422 775 l 374 838 z "},"ấ":{"ha":833,"x_min":99,"x_max":790,"o":"m 99 183 q 125 284 99 240 q 208 358 151 328 q 354 408 265 389 q 569 436 443 428 q 528 532 565 494 q 407 569 490 569 q 292 548 349 569 q 183 497 236 526 l 125 604 q 268 669 188 640 q 436 699 349 699 q 654 623 579 699 q 729 404 729 547 l 729 0 l 599 0 l 586 85 l 582 85 q 462 13 528 43 q 326 -17 396 -17 q 235 -2 276 -17 q 163 39 193 13 q 115 102 132 65 q 99 183 99 139 m 253 196 q 288 129 253 150 q 375 108 324 108 q 474 131 426 108 q 569 192 522 154 l 569 336 q 417 317 478 329 q 319 288 356 306 q 268 247 283 269 q 253 196 253 224 m 368 968 l 496 968 l 610 796 l 507 796 l 435 892 l 429 892 l 357 796 l 254 796 l 368 968 m 667 1054 l 790 1054 l 661 893 l 568 893 l 667 1054 z "},"ầ":{"ha":833,"x_min":99,"x_max":746,"o":"m 99 183 q 125 284 99 240 q 208 358 151 328 q 354 408 265 389 q 569 436 443 428 q 528 532 565 494 q 407 569 490 569 q 292 548 349 569 q 183 497 236 526 l 125 604 q 268 669 188 640 q 436 699 349 699 q 654 623 579 699 q 729 404 729 547 l 729 0 l 599 0 l 586 85 l 582 85 q 462 13 528 43 q 326 -17 396 -17 q 235 -2 276 -17 q 163 39 193 13 q 115 102 132 65 q 99 183 99 139 m 253 196 q 288 129 253 150 q 375 108 324 108 q 474 131 426 108 q 569 192 522 154 l 569 336 q 417 317 478 329 q 319 288 356 306 q 268 247 283 269 q 253 196 253 224 m 368 968 l 496 968 l 610 796 l 507 796 l 435 892 l 429 892 l 357 796 l 254 796 l 368 968 m 746 893 l 653 893 l 522 1054 l 647 1054 l 746 893 z "},"ẩ":{"ha":833,"x_min":99,"x_max":754,"o":"m 99 183 q 125 284 99 240 q 208 358 151 328 q 354 408 265 389 q 569 436 443 428 q 528 532 565 494 q 407 569 490 569 q 292 548 349 569 q 183 497 236 526 l 125 604 q 268 669 188 640 q 436 699 349 699 q 654 623 579 699 q 729 404 729 547 l 729 0 l 599 0 l 586 85 l 582 85 q 462 13 528 43 q 326 -17 396 -17 q 235 -2 276 -17 q 163 39 193 13 q 115 102 132 65 q 99 183 99 139 m 253 196 q 288 129 253 150 q 375 108 324 108 q 474 131 426 108 q 569 192 522 154 l 569 336 q 417 317 478 329 q 319 288 356 306 q 268 247 283 269 q 253 196 253 224 m 368 968 l 496 968 l 610 796 l 507 796 l 435 892 l 429 892 l 357 796 l 254 796 l 368 968 m 596 931 q 632 948 618 938 q 646 978 646 958 q 626 1014 646 1001 q 553 1029 606 1026 l 567 1101 q 710 1071 665 1099 q 754 994 754 1043 q 742 943 754 964 q 710 908 731 922 q 664 886 690 894 q 608 872 638 878 l 596 931 z "},"ẫ":{"ha":833,"x_min":99,"x_max":729,"o":"m 99 183 q 125 284 99 240 q 208 358 151 328 q 354 408 265 389 q 569 436 443 428 q 528 532 565 494 q 407 569 490 569 q 292 548 349 569 q 183 497 236 526 l 125 604 q 268 669 188 640 q 436 699 349 699 q 654 623 579 699 q 729 404 729 547 l 729 0 l 599 0 l 586 85 l 582 85 q 462 13 528 43 q 326 -17 396 -17 q 235 -2 276 -17 q 163 39 193 13 q 115 102 132 65 q 99 183 99 139 m 253 196 q 288 129 253 150 q 375 108 324 108 q 474 131 426 108 q 569 192 522 154 l 569 336 q 417 317 478 329 q 319 288 356 306 q 268 247 283 269 q 253 196 253 224 m 360 944 l 504 944 l 621 794 l 514 794 l 435 881 l 429 881 l 350 794 l 243 794 l 360 944 m 240 994 q 278 1100 247 1064 q 357 1136 310 1136 q 403 1127 383 1136 q 440 1108 424 1118 q 469 1089 456 1097 q 499 1081 483 1081 q 551 1136 539 1081 l 624 1136 q 585 1031 617 1067 q 507 994 554 994 q 460 1003 479 994 q 424 1022 440 1011 q 394 1041 408 1032 q 365 1050 381 1050 q 313 994 325 1050 l 240 994 z "},"ậ":{"ha":833,"x_min":99,"x_max":729,"o":"m 99 183 q 125 284 99 240 q 208 358 151 328 q 354 408 265 389 q 569 436 443 428 q 528 532 565 494 q 407 569 490 569 q 292 548 349 569 q 183 497 236 526 l 125 604 q 268 669 188 640 q 436 699 349 699 q 654 623 579 699 q 729 404 729 547 l 729 0 l 599 0 l 586 85 l 582 85 q 462 13 528 43 q 326 -17 396 -17 q 235 -2 276 -17 q 163 39 193 13 q 115 102 132 65 q 99 183 99 139 m 253 196 q 288 129 253 150 q 375 108 324 108 q 474 131 426 108 q 569 192 522 154 l 569 336 q 417 317 478 329 q 319 288 356 306 q 268 247 283 269 q 253 196 253 224 m 364 1015 l 500 1015 l 638 796 l 518 796 l 435 931 l 429 931 l 346 796 l 226 796 l 364 1015 m 425 -333 q 344 -304 376 -333 q 311 -226 311 -275 q 344 -148 311 -178 q 425 -118 376 -118 q 506 -148 474 -118 q 539 -226 539 -178 q 506 -304 539 -275 q 425 -333 474 -333 z "},"ắ":{"ha":833,"x_min":99,"x_max":729,"o":"m 99 183 q 125 284 99 240 q 208 358 151 328 q 354 408 265 389 q 569 436 443 428 q 528 532 565 494 q 407 569 490 569 q 292 548 349 569 q 183 497 236 526 l 125 604 q 268 669 188 640 q 436 699 349 699 q 654 623 579 699 q 729 404 729 547 l 729 0 l 599 0 l 586 85 l 582 85 q 462 13 528 43 q 326 -17 396 -17 q 235 -2 276 -17 q 163 39 193 13 q 115 102 132 65 q 99 183 99 139 m 253 196 q 288 129 253 150 q 375 108 324 108 q 474 131 426 108 q 569 192 522 154 l 569 336 q 417 317 478 329 q 319 288 356 306 q 268 247 283 269 q 253 196 253 224 m 461 1111 l 582 1111 l 460 950 l 374 950 l 461 1111 m 432 799 q 351 815 385 799 q 294 856 317 831 q 260 915 272 882 q 247 983 249 949 l 324 983 q 356 911 331 942 q 432 881 382 881 q 508 911 482 881 q 540 983 533 942 l 617 983 q 603 915 614 949 q 569 856 592 882 q 513 815 547 831 q 432 799 479 799 z "},"ằ":{"ha":833,"x_min":99,"x_max":729,"o":"m 99 183 q 125 284 99 240 q 208 358 151 328 q 354 408 265 389 q 569 436 443 428 q 528 532 565 494 q 407 569 490 569 q 292 548 349 569 q 183 497 236 526 l 125 604 q 268 669 188 640 q 436 699 349 699 q 654 623 579 699 q 729 404 729 547 l 729 0 l 599 0 l 586 85 l 582 85 q 462 13 528 43 q 326 -17 396 -17 q 235 -2 276 -17 q 163 39 193 13 q 115 102 132 65 q 99 183 99 139 m 253 196 q 288 129 253 150 q 375 108 324 108 q 474 131 426 108 q 569 192 522 154 l 569 336 q 417 317 478 329 q 319 288 356 306 q 268 247 283 269 q 253 196 253 224 m 490 950 l 404 950 l 282 1111 l 403 1111 l 490 950 m 432 799 q 351 815 385 799 q 294 856 317 831 q 260 915 272 882 q 247 983 249 949 l 324 983 q 356 911 331 942 q 432 881 382 881 q 508 911 482 881 q 540 983 533 942 l 617 983 q 603 915 614 949 q 569 856 592 882 q 513 815 547 831 q 432 799 479 799 z "},"ẳ":{"ha":833,"x_min":99,"x_max":729,"o":"m 99 183 q 125 284 99 240 q 208 358 151 328 q 354 408 265 389 q 569 436 443 428 q 528 532 565 494 q 407 569 490 569 q 292 548 349 569 q 183 497 236 526 l 125 604 q 268 669 188 640 q 436 699 349 699 q 654 623 579 699 q 729 404 729 547 l 729 0 l 599 0 l 586 85 l 582 85 q 462 13 528 43 q 326 -17 396 -17 q 235 -2 276 -17 q 163 39 193 13 q 115 102 132 65 q 99 183 99 139 m 253 196 q 288 129 253 150 q 375 108 324 108 q 474 131 426 108 q 569 192 522 154 l 569 336 q 417 317 478 329 q 319 288 356 306 q 268 247 283 269 q 253 196 253 224 m 432 799 q 351 815 385 799 q 294 856 317 831 q 260 915 272 882 q 247 983 249 949 l 324 983 q 356 911 331 942 q 432 881 382 881 q 508 911 482 881 q 540 983 533 942 l 617 983 q 603 915 614 949 q 569 856 592 882 q 513 815 547 831 q 432 799 479 799 m 376 1018 q 413 1035 400 1025 q 426 1065 426 1044 q 406 1101 426 1089 q 333 1117 386 1114 l 349 1188 q 491 1158 447 1185 q 535 1082 535 1131 q 523 1029 535 1050 q 491 994 511 1008 q 444 972 471 981 q 389 960 418 964 l 376 1018 z "},"ẵ":{"ha":833,"x_min":99,"x_max":729,"o":"m 99 183 q 125 284 99 240 q 208 358 151 328 q 354 408 265 389 q 569 436 443 428 q 528 532 565 494 q 407 569 490 569 q 292 548 349 569 q 183 497 236 526 l 125 604 q 268 669 188 640 q 436 699 349 699 q 654 623 579 699 q 729 404 729 547 l 729 0 l 599 0 l 586 85 l 582 85 q 462 13 528 43 q 326 -17 396 -17 q 235 -2 276 -17 q 163 39 193 13 q 115 102 132 65 q 99 183 99 139 m 253 196 q 288 129 253 150 q 375 108 324 108 q 474 131 426 108 q 569 192 522 154 l 569 336 q 417 317 478 329 q 319 288 356 306 q 268 247 283 269 q 253 196 253 224 m 432 799 q 351 812 385 799 q 296 847 318 825 q 262 897 274 868 q 249 956 250 925 l 328 956 q 359 901 335 925 q 432 878 383 878 q 505 901 481 878 q 536 956 529 925 l 615 956 q 601 897 613 925 q 568 847 590 868 q 513 812 546 825 q 432 799 479 799 m 240 994 q 278 1100 247 1064 q 357 1136 310 1136 q 403 1127 383 1136 q 440 1108 424 1118 q 469 1089 456 1097 q 499 1081 483 1081 q 551 1136 539 1081 l 624 1136 q 585 1031 617 1067 q 507 994 554 994 q 460 1003 479 994 q 424 1022 440 1011 q 394 1041 408 1032 q 365 1050 381 1050 q 313 994 325 1050 l 240 994 z "},"ặ":{"ha":833,"x_min":99,"x_max":729,"o":"m 99 183 q 125 284 99 240 q 208 358 151 328 q 354 408 265 389 q 569 436 443 428 q 528 532 565 494 q 407 569 490 569 q 292 548 349 569 q 183 497 236 526 l 125 604 q 268 669 188 640 q 436 699 349 699 q 654 623 579 699 q 729 404 729 547 l 729 0 l 599 0 l 586 85 l 582 85 q 462 13 528 43 q 326 -17 396 -17 q 235 -2 276 -17 q 163 39 193 13 q 115 102 132 65 q 99 183 99 139 m 253 196 q 288 129 253 150 q 375 108 324 108 q 474 131 426 108 q 569 192 522 154 l 569 336 q 417 317 478 329 q 319 288 356 306 q 268 247 283 269 q 253 196 253 224 m 432 799 q 348 816 383 799 q 289 862 313 833 q 253 926 265 890 q 239 1000 240 963 l 332 1000 q 361 922 338 956 q 432 889 385 889 q 503 922 479 889 q 532 1000 526 956 l 625 1000 q 610 926 622 963 q 575 862 599 890 q 516 816 551 833 q 432 799 481 799 m 425 -333 q 344 -304 376 -333 q 311 -226 311 -275 q 344 -148 311 -178 q 425 -118 376 -118 q 506 -148 474 -118 q 539 -226 539 -178 q 506 -304 539 -275 q 425 -333 474 -333 z "},"ą":{"ha":833,"x_min":99,"x_max":758,"o":"m 99 183 q 125 284 99 240 q 208 358 151 328 q 354 408 265 389 q 569 436 443 428 q 528 532 565 494 q 407 569 490 569 q 292 548 349 569 q 183 497 236 526 l 125 604 q 268 669 188 640 q 436 699 349 699 q 654 623 579 699 q 729 404 729 547 l 729 0 q 638 -58 667 -21 q 608 -132 608 -96 q 627 -176 608 -162 q 669 -190 646 -190 q 722 -172 700 -190 l 758 -247 q 699 -278 735 -267 q 633 -289 663 -289 q 536 -258 575 -289 q 497 -167 497 -228 q 507 -112 497 -137 q 532 -65 517 -86 q 565 -26 547 -43 q 600 1 583 -10 l 586 85 l 582 85 q 462 13 528 43 q 326 -17 396 -17 q 235 -2 276 -17 q 163 39 193 13 q 115 102 132 65 q 99 183 99 139 m 253 196 q 288 129 253 150 q 375 108 324 108 q 474 131 426 108 q 569 192 522 154 l 569 336 q 417 317 478 329 q 319 288 356 306 q 268 247 283 269 q 253 196 253 224 z "},"æ":{"ha":833,"x_min":22,"x_max":826,"o":"m 22 186 q 104 349 22 290 q 351 436 186 408 q 326 535 349 499 q 251 571 304 571 q 178 556 219 571 q 101 518 136 540 l 43 625 q 149 677 93 656 q 265 699 204 699 q 369 666 329 699 q 429 581 408 633 q 508 669 464 639 q 617 699 553 699 q 708 673 668 699 q 774 603 747 647 q 813 501 800 560 q 826 378 826 443 q 824 333 826 354 q 819 297 822 313 l 482 297 q 527 160 490 210 q 631 110 564 110 q 693 120 664 110 q 750 150 722 131 l 806 46 q 720 1 768 18 q 625 -17 672 -17 q 500 15 550 -17 q 417 100 450 46 q 310 13 360 42 q 208 -17 260 -17 q 72 40 121 -17 q 22 186 22 96 m 697 399 q 692 467 697 435 q 676 523 688 499 q 647 561 665 547 q 601 575 629 575 q 520 531 553 575 q 481 399 488 486 l 697 399 m 168 197 q 190 131 168 153 q 250 108 213 108 q 311 127 278 108 q 372 181 344 146 q 358 240 363 208 q 351 304 353 272 l 350 336 q 210 283 253 318 q 168 197 168 249 z "},"ƀ":{"ha":833,"x_min":18,"x_max":760,"o":"m 275 178 q 353 129 313 143 q 425 115 393 115 q 546 171 497 115 q 594 336 594 226 q 557 485 594 432 q 436 539 519 539 q 357 519 397 539 q 275 457 317 500 l 275 178 m 269 581 q 369 647 314 622 q 481 671 425 671 q 599 647 547 671 q 686 581 650 624 q 741 476 722 538 q 760 339 760 414 q 735 188 760 254 q 667 76 710 122 q 570 7 625 31 q 457 -17 515 -17 q 356 7 408 -17 q 258 75 303 31 l 254 75 l 240 0 l 114 0 l 114 783 l 18 783 l 18 858 l 114 864 l 114 981 l 275 981 l 275 865 l 547 865 l 547 783 l 275 783 l 275 700 l 269 581 z "},"ç":{"ha":833,"x_min":101,"x_max":754,"o":"m 101 340 q 133 492 101 425 q 217 604 164 558 q 340 674 269 650 q 489 699 411 699 q 635 671 572 699 q 742 603 699 643 l 665 503 q 584 551 625 535 q 497 568 543 568 q 331 506 394 568 q 267 340 267 444 q 283 247 267 289 q 330 176 300 206 q 401 130 360 146 q 493 114 443 114 q 599 136 551 114 q 688 189 647 158 l 754 86 q 624 9 696 35 q 478 -17 551 -17 q 328 7 397 -17 q 209 76 260 31 q 130 189 158 122 q 101 340 101 256 m 433 4 l 531 4 l 499 -64 q 557 -99 533 -76 q 581 -165 581 -122 q 563 -222 581 -199 q 513 -262 544 -246 q 442 -289 482 -279 q 357 -301 401 -299 l 343 -232 q 429 -210 396 -225 q 463 -168 463 -196 q 442 -131 463 -146 q 378 -104 422 -115 l 433 4 z "},"ć":{"ha":833,"x_min":101,"x_max":754,"o":"m 101 340 q 133 492 101 425 q 217 604 164 558 q 340 674 269 650 q 489 699 411 699 q 635 671 572 699 q 742 603 699 643 l 665 503 q 584 551 625 535 q 497 568 543 568 q 331 506 394 568 q 267 340 267 444 q 283 247 267 289 q 330 176 300 206 q 401 130 360 146 q 493 114 443 114 q 599 136 551 114 q 688 189 647 158 l 754 86 q 624 9 696 35 q 478 -17 551 -17 q 328 7 397 -17 q 209 76 260 31 q 130 189 158 122 q 101 340 101 256 m 492 796 l 372 796 l 497 1015 l 664 1015 l 492 796 z "},"ĉ":{"ha":833,"x_min":101,"x_max":754,"o":"m 101 340 q 133 492 101 425 q 217 604 164 558 q 340 674 269 650 q 489 699 411 699 q 635 671 572 699 q 742 603 699 643 l 665 503 q 584 551 625 535 q 497 568 543 568 q 331 506 394 568 q 267 340 267 444 q 283 247 267 289 q 330 176 300 206 q 401 130 360 146 q 493 114 443 114 q 599 136 551 114 q 688 189 647 158 l 754 86 q 624 9 696 35 q 478 -17 551 -17 q 328 7 397 -17 q 209 76 260 31 q 130 189 158 122 q 101 340 101 256 m 407 1015 l 543 1015 l 681 796 l 561 796 l 478 931 l 472 931 l 389 796 l 269 796 l 407 1015 z "},"č":{"ha":833,"x_min":101,"x_max":754,"o":"m 101 340 q 133 492 101 425 q 217 604 164 558 q 340 674 269 650 q 489 699 411 699 q 635 671 572 699 q 742 603 699 643 l 665 503 q 584 551 625 535 q 497 568 543 568 q 331 506 394 568 q 267 340 267 444 q 283 247 267 289 q 330 176 300 206 q 401 130 360 146 q 493 114 443 114 q 599 136 551 114 q 688 189 647 158 l 754 86 q 624 9 696 35 q 478 -17 551 -17 q 328 7 397 -17 q 209 76 260 31 q 130 189 158 122 q 101 340 101 256 m 269 1015 l 389 1015 l 472 881 l 478 881 l 561 1015 l 681 1015 l 543 796 l 407 796 l 269 1015 z "},"ċ":{"ha":833,"x_min":101,"x_max":754,"o":"m 101 340 q 133 492 101 425 q 217 604 164 558 q 340 674 269 650 q 489 699 411 699 q 635 671 572 699 q 742 603 699 643 l 665 503 q 584 551 625 535 q 497 568 543 568 q 331 506 394 568 q 267 340 267 444 q 283 247 267 289 q 330 176 300 206 q 401 130 360 146 q 493 114 443 114 q 599 136 551 114 q 688 189 647 158 l 754 86 q 624 9 696 35 q 478 -17 551 -17 q 328 7 397 -17 q 209 76 260 31 q 130 189 158 122 q 101 340 101 256 m 475 801 q 394 831 426 801 q 361 908 361 860 q 394 987 361 957 q 475 1017 426 1017 q 556 987 524 1017 q 589 908 589 957 q 556 831 589 860 q 475 801 524 801 z "},"ď":{"ha":833,"x_min":53,"x_max":853,"o":"m 53 340 q 78 490 53 424 q 145 603 103 557 q 242 674 188 649 q 354 699 296 699 q 459 677 415 699 q 544 618 503 656 l 538 733 l 538 981 l 699 981 l 699 0 l 567 0 l 554 79 l 550 79 q 456 11 510 39 q 344 -17 403 -17 q 225 8 279 -17 q 133 78 171 32 q 74 190 94 124 q 53 340 53 256 m 218 342 q 261 173 218 231 q 383 115 304 115 q 538 197 468 115 l 538 504 q 465 553 501 539 q 392 567 429 567 q 324 551 356 567 q 269 508 293 536 q 232 438 246 479 q 218 342 218 396 m 753 761 l 746 1063 l 853 1063 l 851 975 l 825 761 l 753 761 z "},"ḍ":{"ha":833,"x_min":74,"x_max":719,"o":"m 74 340 q 99 490 74 424 q 166 603 124 557 q 263 674 208 649 q 375 699 317 699 q 480 677 436 699 q 565 618 524 656 l 558 733 l 558 981 l 719 981 l 719 0 l 588 0 l 575 79 l 571 79 q 477 11 531 39 q 365 -17 424 -17 q 246 8 300 -17 q 153 78 192 32 q 94 190 115 124 q 74 340 74 256 m 239 342 q 282 173 239 231 q 404 115 325 115 q 558 197 489 115 l 558 504 q 486 553 522 539 q 413 567 450 567 q 345 551 376 567 q 290 508 314 536 q 253 438 267 479 q 239 342 239 396 m 428 -333 q 347 -304 379 -333 q 314 -226 314 -275 q 347 -148 314 -178 q 428 -118 379 -118 q 509 -148 476 -118 q 542 -226 542 -178 q 509 -304 542 -275 q 428 -333 476 -333 z "},"ḏ":{"ha":833,"x_min":74,"x_max":719,"o":"m 74 340 q 99 490 74 424 q 166 603 124 557 q 263 674 208 649 q 375 699 317 699 q 480 677 436 699 q 565 618 524 656 l 558 733 l 558 981 l 719 981 l 719 0 l 588 0 l 575 79 l 571 79 q 477 11 531 39 q 365 -17 424 -17 q 246 8 300 -17 q 153 78 192 32 q 94 190 115 124 q 74 340 74 256 m 239 342 q 282 173 239 231 q 404 115 325 115 q 558 197 489 115 l 558 504 q 486 553 522 539 q 413 567 450 567 q 345 551 376 567 q 290 508 314 536 q 253 438 267 479 q 239 342 239 396 m 608 -250 l 246 -250 l 246 -144 l 608 -144 l 608 -250 z "},"đ":{"ha":833,"x_min":74,"x_max":814,"o":"m 558 476 q 487 524 522 510 q 415 539 451 539 q 347 524 379 539 q 290 483 314 510 q 253 417 267 456 q 239 328 239 378 q 282 169 239 224 q 404 115 325 115 q 558 197 489 115 l 558 476 m 814 790 l 719 783 l 719 0 l 588 0 l 575 79 l 571 79 q 477 11 531 39 q 365 -17 424 -17 q 246 6 300 -17 q 153 74 192 29 q 94 181 115 118 q 74 326 74 244 q 99 471 74 407 q 166 579 124 535 q 263 647 208 624 q 375 671 317 671 q 480 649 436 671 q 565 590 524 628 l 558 706 l 558 783 l 331 783 l 331 865 l 558 865 l 558 981 l 719 981 l 719 865 l 814 865 l 814 790 z "},"è":{"ha":833,"x_min":86,"x_max":753,"o":"m 86 340 q 116 490 86 424 q 194 603 146 557 q 306 674 243 650 q 436 699 369 699 q 572 674 513 699 q 671 608 631 650 q 732 506 711 565 q 753 375 753 446 q 751 331 753 351 q 746 297 749 310 l 250 297 q 322 156 258 206 q 479 107 386 107 q 578 122 532 107 q 671 163 624 136 l 725 63 q 601 6 669 28 q 458 -17 533 -17 q 313 8 381 -17 q 194 78 244 32 q 115 190 144 124 q 86 340 86 256 m 606 406 q 564 530 606 485 q 440 575 522 575 q 317 532 371 575 q 249 406 263 489 l 606 406 m 247 1015 l 414 1015 l 539 796 l 419 796 l 247 1015 z "},"é":{"ha":833,"x_min":86,"x_max":753,"o":"m 86 340 q 116 490 86 424 q 194 603 146 557 q 306 674 243 650 q 436 699 369 699 q 572 674 513 699 q 671 608 631 650 q 732 506 711 565 q 753 375 753 446 q 751 331 753 351 q 746 297 749 310 l 250 297 q 322 156 258 206 q 479 107 386 107 q 578 122 532 107 q 671 163 624 136 l 725 63 q 601 6 669 28 q 458 -17 533 -17 q 313 8 381 -17 q 194 78 244 32 q 115 190 144 124 q 86 340 86 256 m 606 406 q 564 530 606 485 q 440 575 522 575 q 317 532 371 575 q 249 406 263 489 l 606 406 m 453 796 l 333 796 l 458 1015 l 625 1015 l 453 796 z "},"ê":{"ha":833,"x_min":86,"x_max":753,"o":"m 86 340 q 116 490 86 424 q 194 603 146 557 q 306 674 243 650 q 436 699 369 699 q 572 674 513 699 q 671 608 631 650 q 732 506 711 565 q 753 375 753 446 q 751 331 753 351 q 746 297 749 310 l 250 297 q 322 156 258 206 q 479 107 386 107 q 578 122 532 107 q 671 163 624 136 l 725 63 q 601 6 669 28 q 458 -17 533 -17 q 313 8 381 -17 q 194 78 244 32 q 115 190 144 124 q 86 340 86 256 m 606 406 q 564 530 606 485 q 440 575 522 575 q 317 532 371 575 q 249 406 263 489 l 606 406 m 368 1015 l 504 1015 l 642 796 l 522 796 l 439 931 l 433 931 l 350 796 l 231 796 l 368 1015 z "},"ě":{"ha":833,"x_min":86,"x_max":753,"o":"m 86 340 q 116 490 86 424 q 194 603 146 557 q 306 674 243 650 q 436 699 369 699 q 572 674 513 699 q 671 608 631 650 q 732 506 711 565 q 753 375 753 446 q 751 331 753 351 q 746 297 749 310 l 250 297 q 322 156 258 206 q 479 107 386 107 q 578 122 532 107 q 671 163 624 136 l 725 63 q 601 6 669 28 q 458 -17 533 -17 q 313 8 381 -17 q 194 78 244 32 q 115 190 144 124 q 86 340 86 256 m 606 406 q 564 530 606 485 q 440 575 522 575 q 317 532 371 575 q 249 406 263 489 l 606 406 m 231 1015 l 350 1015 l 433 881 l 439 881 l 522 1015 l 642 1015 l 504 796 l 368 796 l 231 1015 z "},"ë":{"ha":833,"x_min":86,"x_max":753,"o":"m 86 340 q 116 490 86 424 q 194 603 146 557 q 306 674 243 650 q 436 699 369 699 q 572 674 513 699 q 671 608 631 650 q 732 506 711 565 q 753 375 753 446 q 751 331 753 351 q 746 297 749 310 l 250 297 q 322 156 258 206 q 479 107 386 107 q 578 122 532 107 q 671 163 624 136 l 725 63 q 601 6 669 28 q 458 -17 533 -17 q 313 8 381 -17 q 194 78 244 32 q 115 190 144 124 q 86 340 86 256 m 606 406 q 564 530 606 485 q 440 575 522 575 q 317 532 371 575 q 249 406 263 489 l 606 406 m 292 804 q 226 831 251 804 q 200 897 200 857 q 226 965 200 938 q 292 992 251 992 q 358 965 332 992 q 385 897 385 938 q 358 831 385 857 q 292 804 332 804 m 578 804 q 511 831 538 804 q 485 897 485 857 q 511 965 485 938 q 578 992 538 992 q 644 965 618 992 q 669 897 669 938 q 644 831 669 857 q 578 804 618 804 z "},"ē":{"ha":833,"x_min":86,"x_max":753,"o":"m 86 340 q 116 490 86 424 q 194 603 146 557 q 306 674 243 650 q 436 699 369 699 q 572 674 513 699 q 671 608 631 650 q 732 506 711 565 q 753 375 753 446 q 751 331 753 351 q 746 297 749 310 l 250 297 q 322 156 258 206 q 479 107 386 107 q 578 122 532 107 q 671 163 624 136 l 725 63 q 601 6 669 28 q 458 -17 533 -17 q 313 8 381 -17 q 194 78 244 32 q 115 190 144 124 q 86 340 86 256 m 606 406 q 564 530 606 485 q 440 575 522 575 q 317 532 371 575 q 249 406 263 489 l 606 406 m 256 933 l 617 933 l 617 828 l 256 828 l 256 933 z "},"ĕ":{"ha":833,"x_min":86,"x_max":753,"o":"m 86 340 q 116 490 86 424 q 194 603 146 557 q 306 674 243 650 q 436 699 369 699 q 572 674 513 699 q 671 608 631 650 q 732 506 711 565 q 753 375 753 446 q 751 331 753 351 q 746 297 749 310 l 250 297 q 322 156 258 206 q 479 107 386 107 q 578 122 532 107 q 671 163 624 136 l 725 63 q 601 6 669 28 q 458 -17 533 -17 q 313 8 381 -17 q 194 78 244 32 q 115 190 144 124 q 86 340 86 256 m 606 406 q 564 530 606 485 q 440 575 522 575 q 317 532 371 575 q 249 406 263 489 l 606 406 m 436 799 q 352 816 388 799 q 293 862 317 833 q 257 926 269 890 q 243 1000 244 963 l 336 1000 q 365 922 342 956 q 436 889 389 889 q 507 922 483 889 q 536 1000 531 956 l 629 1000 q 615 926 626 963 q 579 862 603 890 q 520 816 556 833 q 436 799 485 799 z "},"ė":{"ha":833,"x_min":86,"x_max":753,"o":"m 86 340 q 116 490 86 424 q 194 603 146 557 q 306 674 243 650 q 436 699 369 699 q 572 674 513 699 q 671 608 631 650 q 732 506 711 565 q 753 375 753 446 q 751 331 753 351 q 746 297 749 310 l 250 297 q 322 156 258 206 q 479 107 386 107 q 578 122 532 107 q 671 163 624 136 l 725 63 q 601 6 669 28 q 458 -17 533 -17 q 313 8 381 -17 q 194 78 244 32 q 115 190 144 124 q 86 340 86 256 m 606 406 q 564 530 606 485 q 440 575 522 575 q 317 532 371 575 q 249 406 263 489 l 606 406 m 436 801 q 355 831 388 801 q 322 908 322 860 q 355 987 322 957 q 436 1017 388 1017 q 517 987 485 1017 q 550 908 550 957 q 517 831 550 860 q 436 801 485 801 z "},"ẹ":{"ha":833,"x_min":86,"x_max":753,"o":"m 86 340 q 116 490 86 424 q 194 603 146 557 q 306 674 243 650 q 436 699 369 699 q 572 674 513 699 q 671 608 631 650 q 732 506 711 565 q 753 375 753 446 q 751 331 753 351 q 746 297 749 310 l 250 297 q 322 156 258 206 q 479 107 386 107 q 578 122 532 107 q 671 163 624 136 l 725 63 q 601 6 669 28 q 458 -17 533 -17 q 313 8 381 -17 q 194 78 244 32 q 115 190 144 124 q 86 340 86 256 m 606 406 q 564 530 606 485 q 440 575 522 575 q 317 532 371 575 q 249 406 263 489 l 606 406 m 436 -333 q 355 -304 388 -333 q 322 -226 322 -275 q 355 -148 322 -178 q 436 -118 388 -118 q 517 -148 485 -118 q 550 -226 550 -178 q 517 -304 550 -275 q 436 -333 485 -333 z "},"ẻ":{"ha":833,"x_min":86,"x_max":753,"o":"m 86 340 q 116 490 86 424 q 194 603 146 557 q 306 674 243 650 q 436 699 369 699 q 572 674 513 699 q 671 608 631 650 q 732 506 711 565 q 753 375 753 446 q 751 331 753 351 q 746 297 749 310 l 250 297 q 322 156 258 206 q 479 107 386 107 q 578 122 532 107 q 671 163 624 136 l 725 63 q 601 6 669 28 q 458 -17 533 -17 q 313 8 381 -17 q 194 78 244 32 q 115 190 144 124 q 86 340 86 256 m 606 406 q 564 530 606 485 q 440 575 522 575 q 317 532 371 575 q 249 406 263 489 l 606 406 m 378 838 q 427 856 407 844 q 447 890 447 867 q 421 927 447 914 q 335 943 394 940 l 353 1028 q 515 993 464 1024 q 567 907 567 963 q 552 850 567 874 q 514 810 538 826 q 458 785 490 794 q 392 771 426 775 l 378 838 z "},"ẽ":{"ha":833,"x_min":86,"x_max":753,"o":"m 86 340 q 116 490 86 424 q 194 603 146 557 q 306 674 243 650 q 436 699 369 699 q 572 674 513 699 q 671 608 631 650 q 732 506 711 565 q 753 375 753 446 q 751 331 753 351 q 746 297 749 310 l 250 297 q 322 156 258 206 q 479 107 386 107 q 578 122 532 107 q 671 163 624 136 l 725 63 q 601 6 669 28 q 458 -17 533 -17 q 313 8 381 -17 q 194 78 244 32 q 115 190 144 124 q 86 340 86 256 m 606 406 q 564 530 606 485 q 440 575 522 575 q 317 532 371 575 q 249 406 263 489 l 606 406 m 219 801 q 265 931 229 885 q 361 978 301 978 q 407 966 386 978 q 446 940 428 954 q 480 915 464 926 q 511 903 496 903 q 547 920 533 903 q 568 978 561 938 l 653 978 q 607 848 643 894 q 511 801 571 801 q 465 813 486 801 q 426 839 444 825 q 393 865 408 853 q 361 876 378 876 q 325 859 339 876 q 304 801 311 842 l 219 801 l 219 801 z "},"ế":{"ha":833,"x_min":86,"x_max":794,"o":"m 86 340 q 116 490 86 424 q 194 603 146 557 q 306 674 243 650 q 436 699 369 699 q 572 674 513 699 q 671 608 631 650 q 732 506 711 565 q 753 375 753 446 q 751 331 753 351 q 746 297 749 310 l 250 297 q 322 156 258 206 q 479 107 386 107 q 578 122 532 107 q 671 163 624 136 l 725 63 q 601 6 669 28 q 458 -17 533 -17 q 313 8 381 -17 q 194 78 244 32 q 115 190 144 124 q 86 340 86 256 m 606 406 q 564 530 606 485 q 440 575 522 575 q 317 532 371 575 q 249 406 263 489 l 606 406 m 372 968 l 500 968 l 614 796 l 511 796 l 439 892 l 433 892 l 361 796 l 258 796 l 372 968 m 671 1054 l 794 1054 l 665 893 l 572 893 l 671 1054 z "},"ề":{"ha":833,"x_min":86,"x_max":753,"o":"m 86 340 q 116 490 86 424 q 194 603 146 557 q 306 674 243 650 q 436 699 369 699 q 572 674 513 699 q 671 608 631 650 q 732 506 711 565 q 753 375 753 446 q 751 331 753 351 q 746 297 749 310 l 250 297 q 322 156 258 206 q 479 107 386 107 q 578 122 532 107 q 671 163 624 136 l 725 63 q 601 6 669 28 q 458 -17 533 -17 q 313 8 381 -17 q 194 78 244 32 q 115 190 144 124 q 86 340 86 256 m 606 406 q 564 530 606 485 q 440 575 522 575 q 317 532 371 575 q 249 406 263 489 l 606 406 m 372 968 l 500 968 l 614 796 l 511 796 l 439 892 l 433 892 l 361 796 l 258 796 l 372 968 m 750 893 l 657 893 l 526 1054 l 651 1054 l 750 893 z "},"ể":{"ha":833,"x_min":86,"x_max":758,"o":"m 86 340 q 116 490 86 424 q 194 603 146 557 q 306 674 243 650 q 436 699 369 699 q 572 674 513 699 q 671 608 631 650 q 732 506 711 565 q 753 375 753 446 q 751 331 753 351 q 746 297 749 310 l 250 297 q 322 156 258 206 q 479 107 386 107 q 578 122 532 107 q 671 163 624 136 l 725 63 q 601 6 669 28 q 458 -17 533 -17 q 313 8 381 -17 q 194 78 244 32 q 115 190 144 124 q 86 340 86 256 m 606 406 q 564 530 606 485 q 440 575 522 575 q 317 532 371 575 q 249 406 263 489 l 606 406 m 372 968 l 500 968 l 614 796 l 511 796 l 439 892 l 433 892 l 361 796 l 258 796 l 372 968 m 600 931 q 636 948 622 938 q 650 978 650 958 q 630 1014 650 1001 q 557 1029 610 1026 l 571 1101 q 714 1071 669 1099 q 758 994 758 1043 q 747 943 758 964 q 715 908 735 922 q 668 886 694 894 q 613 872 642 878 l 600 931 z "},"ễ":{"ha":833,"x_min":86,"x_max":753,"o":"m 86 340 q 116 490 86 424 q 194 603 146 557 q 306 674 243 650 q 436 699 369 699 q 572 674 513 699 q 671 608 631 650 q 732 506 711 565 q 753 375 753 446 q 751 331 753 351 q 746 297 749 310 l 250 297 q 322 156 258 206 q 479 107 386 107 q 578 122 532 107 q 671 163 624 136 l 725 63 q 601 6 669 28 q 458 -17 533 -17 q 313 8 381 -17 q 194 78 244 32 q 115 190 144 124 q 86 340 86 256 m 606 406 q 564 530 606 485 q 440 575 522 575 q 317 532 371 575 q 249 406 263 489 l 606 406 m 364 944 l 508 944 l 625 794 l 518 794 l 439 881 l 433 881 l 354 794 l 247 794 l 364 944 m 244 994 q 283 1100 251 1064 q 361 1136 314 1136 q 408 1127 388 1136 q 444 1108 428 1118 q 474 1089 460 1097 q 503 1081 488 1081 q 556 1136 543 1081 l 628 1136 q 590 1031 621 1067 q 511 994 558 994 q 464 1003 483 994 q 428 1022 444 1011 q 399 1041 413 1032 q 369 1050 385 1050 q 317 994 329 1050 l 244 994 z "},"ệ":{"ha":833,"x_min":86,"x_max":753,"o":"m 86 340 q 116 490 86 424 q 194 603 146 557 q 306 674 243 650 q 436 699 369 699 q 572 674 513 699 q 671 608 631 650 q 732 506 711 565 q 753 375 753 446 q 751 331 753 351 q 746 297 749 310 l 250 297 q 322 156 258 206 q 479 107 386 107 q 578 122 532 107 q 671 163 624 136 l 725 63 q 601 6 669 28 q 458 -17 533 -17 q 313 8 381 -17 q 194 78 244 32 q 115 190 144 124 q 86 340 86 256 m 606 406 q 564 530 606 485 q 440 575 522 575 q 317 532 371 575 q 249 406 263 489 l 606 406 m 368 1015 l 504 1015 l 642 796 l 522 796 l 439 931 l 433 931 l 350 796 l 231 796 l 368 1015 m 436 -333 q 355 -304 388 -333 q 322 -226 322 -275 q 355 -148 322 -178 q 436 -118 388 -118 q 517 -148 485 -118 q 550 -226 550 -178 q 517 -304 550 -275 q 436 -333 485 -333 z "},"ę":{"ha":833,"x_min":86,"x_max":753,"o":"m 725 63 q 647 3 678 29 q 599 -45 617 -22 q 575 -89 582 -68 q 568 -132 568 -110 q 586 -176 568 -161 q 629 -190 604 -190 q 682 -172 657 -190 l 718 -247 q 658 -278 694 -267 q 593 -289 622 -289 q 497 -258 535 -289 q 458 -167 458 -228 q 487 -72 458 -114 q 544 -6 515 -29 q 498 -15 517 -12 q 458 -17 479 -17 q 313 8 381 -17 q 194 78 244 32 q 115 190 144 124 q 86 340 86 256 q 116 490 86 424 q 194 603 146 557 q 306 674 243 650 q 436 699 369 699 q 572 674 513 699 q 671 608 631 650 q 732 506 711 565 q 753 375 753 446 q 751 331 753 351 q 746 297 749 310 l 250 297 q 322 156 258 206 q 479 107 386 107 q 578 122 532 107 q 671 163 624 136 l 725 63 m 606 406 q 564 530 606 485 q 440 575 522 575 q 317 532 371 575 q 249 406 263 489 l 606 406 z "},"ĝ":{"ha":833,"x_min":86,"x_max":790,"o":"m 219 -99 q 270 -171 219 -144 q 417 -197 321 -197 q 507 -188 467 -197 q 576 -164 547 -179 q 621 -128 606 -149 q 636 -86 636 -108 q 601 -33 636 -46 q 499 -19 567 -19 l 390 -19 q 331 -17 357 -19 q 286 -8 306 -15 q 235 -53 250 -31 q 219 -99 219 -75 m 86 -119 q 114 -42 86 -79 q 194 24 142 -4 l 194 29 q 146 72 167 44 q 125 143 125 100 q 147 212 125 178 q 207 272 169 246 l 207 278 q 145 347 171 303 q 119 453 119 392 q 142 557 119 511 q 203 634 165 603 q 292 682 242 665 q 400 699 343 699 q 507 682 461 699 l 786 682 l 786 564 l 626 564 q 658 513 644 543 q 672 447 672 483 q 651 347 672 390 q 594 275 631 304 q 507 231 557 246 q 400 217 457 217 q 296 235 349 217 q 254 172 254 208 q 383 107 254 107 l 522 107 q 723 68 656 107 q 790 -60 790 29 q 763 -154 790 -110 q 684 -231 735 -199 q 560 -283 633 -264 q 397 -301 488 -301 q 269 -290 326 -301 q 172 -256 213 -279 q 108 -199 131 -233 q 86 -119 86 -165 m 400 317 q 492 352 453 317 q 531 453 531 388 q 492 552 531 515 q 400 589 453 589 q 309 552 347 589 q 271 453 271 515 q 309 352 271 388 q 400 317 347 317 m 357 1015 l 493 1015 l 631 796 l 511 796 l 428 931 l 422 931 l 339 796 l 219 796 l 357 1015 z "},"ğ":{"ha":833,"x_min":86,"x_max":790,"o":"m 219 -99 q 270 -171 219 -144 q 417 -197 321 -197 q 507 -188 467 -197 q 576 -164 547 -179 q 621 -128 606 -149 q 636 -86 636 -108 q 601 -33 636 -46 q 499 -19 567 -19 l 390 -19 q 331 -17 357 -19 q 286 -8 306 -15 q 235 -53 250 -31 q 219 -99 219 -75 m 86 -119 q 114 -42 86 -79 q 194 24 142 -4 l 194 29 q 146 72 167 44 q 125 143 125 100 q 147 212 125 178 q 207 272 169 246 l 207 278 q 145 347 171 303 q 119 453 119 392 q 142 557 119 511 q 203 634 165 603 q 292 682 242 665 q 400 699 343 699 q 507 682 461 699 l 786 682 l 786 564 l 626 564 q 658 513 644 543 q 672 447 672 483 q 651 347 672 390 q 594 275 631 304 q 507 231 557 246 q 400 217 457 217 q 296 235 349 217 q 254 172 254 208 q 383 107 254 107 l 522 107 q 723 68 656 107 q 790 -60 790 29 q 763 -154 790 -110 q 684 -231 735 -199 q 560 -283 633 -264 q 397 -301 488 -301 q 269 -290 326 -301 q 172 -256 213 -279 q 108 -199 131 -233 q 86 -119 86 -165 m 400 317 q 492 352 453 317 q 531 453 531 388 q 492 552 531 515 q 400 589 453 589 q 309 552 347 589 q 271 453 271 515 q 309 352 271 388 q 400 317 347 317 m 425 799 q 341 816 376 799 q 282 862 306 833 q 246 926 258 890 q 232 1000 233 963 l 325 1000 q 354 922 331 956 q 425 889 378 889 q 496 922 472 889 q 525 1000 519 956 l 618 1000 q 603 926 615 963 q 568 862 592 890 q 509 816 544 833 q 425 799 474 799 z "},"ġ":{"ha":833,"x_min":86,"x_max":790,"o":"m 219 -99 q 270 -171 219 -144 q 417 -197 321 -197 q 507 -188 467 -197 q 576 -164 547 -179 q 621 -128 606 -149 q 636 -86 636 -108 q 601 -33 636 -46 q 499 -19 567 -19 l 390 -19 q 331 -17 357 -19 q 286 -8 306 -15 q 235 -53 250 -31 q 219 -99 219 -75 m 86 -119 q 114 -42 86 -79 q 194 24 142 -4 l 194 29 q 146 72 167 44 q 125 143 125 100 q 147 212 125 178 q 207 272 169 246 l 207 278 q 145 347 171 303 q 119 453 119 392 q 142 557 119 511 q 203 634 165 603 q 292 682 242 665 q 400 699 343 699 q 507 682 461 699 l 786 682 l 786 564 l 626 564 q 658 513 644 543 q 672 447 672 483 q 651 347 672 390 q 594 275 631 304 q 507 231 557 246 q 400 217 457 217 q 296 235 349 217 q 254 172 254 208 q 383 107 254 107 l 522 107 q 723 68 656 107 q 790 -60 790 29 q 763 -154 790 -110 q 684 -231 735 -199 q 560 -283 633 -264 q 397 -301 488 -301 q 269 -290 326 -301 q 172 -256 213 -279 q 108 -199 131 -233 q 86 -119 86 -165 m 400 317 q 492 352 453 317 q 531 453 531 388 q 492 552 531 515 q 400 589 453 589 q 309 552 347 589 q 271 453 271 515 q 309 352 271 388 q 400 317 347 317 m 425 801 q 344 831 376 801 q 311 908 311 860 q 344 987 311 957 q 425 1017 376 1017 q 506 987 474 1017 q 539 908 539 957 q 506 831 539 860 q 425 801 474 801 z "},"ģ":{"ha":833,"x_min":86,"x_max":790,"o":"m 219 -99 q 270 -171 219 -144 q 417 -197 321 -197 q 507 -188 467 -197 q 576 -164 547 -179 q 621 -128 606 -149 q 636 -86 636 -108 q 601 -33 636 -46 q 499 -19 567 -19 l 390 -19 q 331 -17 357 -19 q 286 -8 306 -15 q 235 -53 250 -31 q 219 -99 219 -75 m 86 -119 q 114 -42 86 -79 q 194 24 142 -4 l 194 29 q 146 72 167 44 q 125 143 125 100 q 147 212 125 178 q 207 272 169 246 l 207 278 q 145 347 171 303 q 119 453 119 392 q 142 557 119 511 q 203 634 165 603 q 292 682 242 665 q 400 699 343 699 q 507 682 461 699 l 786 682 l 786 564 l 626 564 q 658 513 644 543 q 672 447 672 483 q 651 347 672 390 q 594 275 631 304 q 507 231 557 246 q 400 217 457 217 q 296 235 349 217 q 254 172 254 208 q 383 107 254 107 l 522 107 q 723 68 656 107 q 790 -60 790 29 q 763 -154 790 -110 q 684 -231 735 -199 q 560 -283 633 -264 q 397 -301 488 -301 q 269 -290 326 -301 q 172 -256 213 -279 q 108 -199 131 -233 q 86 -119 86 -165 m 400 317 q 492 352 453 317 q 531 453 531 388 q 492 552 531 515 q 400 589 453 589 q 309 552 347 589 q 271 453 271 515 q 309 352 271 388 q 400 317 347 317 m 469 754 q 351 790 386 764 q 317 865 317 817 q 335 922 317 899 q 384 963 353 946 q 456 989 415 979 q 542 1001 497 999 l 554 932 q 469 913 501 925 q 436 875 436 900 q 453 838 436 851 q 501 818 471 825 l 469 754 l 469 754 z "},"ǧ":{"ha":833,"x_min":86,"x_max":790,"o":"m 219 -99 q 270 -171 219 -144 q 417 -197 321 -197 q 507 -188 467 -197 q 576 -164 547 -179 q 621 -128 606 -149 q 636 -86 636 -108 q 601 -33 636 -46 q 499 -19 567 -19 l 390 -19 q 331 -17 357 -19 q 286 -8 306 -15 q 235 -53 250 -31 q 219 -99 219 -75 m 86 -119 q 114 -42 86 -79 q 194 24 142 -4 l 194 29 q 146 72 167 44 q 125 143 125 100 q 147 212 125 178 q 207 272 169 246 l 207 278 q 145 347 171 303 q 119 453 119 392 q 142 557 119 511 q 203 634 165 603 q 292 682 242 665 q 400 699 343 699 q 507 682 461 699 l 786 682 l 786 564 l 626 564 q 658 513 644 543 q 672 447 672 483 q 651 347 672 390 q 594 275 631 304 q 507 231 557 246 q 400 217 457 217 q 296 235 349 217 q 254 172 254 208 q 383 107 254 107 l 522 107 q 723 68 656 107 q 790 -60 790 29 q 763 -154 790 -110 q 684 -231 735 -199 q 560 -283 633 -264 q 397 -301 488 -301 q 269 -290 326 -301 q 172 -256 213 -279 q 108 -199 131 -233 q 86 -119 86 -165 m 400 317 q 492 352 453 317 q 531 453 531 388 q 492 552 531 515 q 400 589 453 589 q 309 552 347 589 q 271 453 271 515 q 309 352 271 388 q 400 317 347 317 m 219 1015 l 339 1015 l 422 881 l 428 881 l 511 1015 l 631 1015 l 493 796 l 357 796 l 219 1015 z "},"ḡ":{"ha":833,"x_min":86,"x_max":790,"o":"m 219 -99 q 270 -171 219 -144 q 417 -197 321 -197 q 507 -188 467 -197 q 576 -164 547 -179 q 621 -128 606 -149 q 636 -86 636 -108 q 601 -33 636 -46 q 499 -19 567 -19 l 390 -19 q 331 -17 357 -19 q 286 -8 306 -15 q 235 -53 250 -31 q 219 -99 219 -75 m 86 -119 q 114 -42 86 -79 q 194 24 142 -4 l 194 29 q 146 72 167 44 q 125 143 125 100 q 147 212 125 178 q 207 272 169 246 l 207 278 q 145 347 171 303 q 119 453 119 392 q 142 557 119 511 q 203 634 165 603 q 292 682 242 665 q 400 699 343 699 q 507 682 461 699 l 786 682 l 786 564 l 626 564 q 658 513 644 543 q 672 447 672 483 q 651 347 672 390 q 594 275 631 304 q 507 231 557 246 q 400 217 457 217 q 296 235 349 217 q 254 172 254 208 q 383 107 254 107 l 522 107 q 723 68 656 107 q 790 -60 790 29 q 763 -154 790 -110 q 684 -231 735 -199 q 560 -283 633 -264 q 397 -301 488 -301 q 269 -290 326 -301 q 172 -256 213 -279 q 108 -199 131 -233 q 86 -119 86 -165 m 400 317 q 492 352 453 317 q 531 453 531 388 q 492 552 531 515 q 400 589 453 589 q 309 552 347 589 q 271 453 271 515 q 309 352 271 388 q 400 317 347 317 m 244 933 l 606 933 l 606 828 l 244 828 l 244 933 z "},"ĥ":{"ha":833,"x_min":-6,"x_max":739,"o":"m 114 981 l 275 981 l 275 728 l 265 582 q 372 664 313 629 q 510 699 431 699 q 683 627 628 699 q 739 422 739 556 l 739 0 l 578 0 l 578 401 q 549 523 578 485 q 450 561 521 561 q 361 538 400 561 q 275 465 322 514 l 275 0 l 114 0 l 114 981 m -6 1040 l 128 1201 l 283 1201 l 417 1040 l 292 1040 l 208 1129 l 203 1129 l 119 1040 l -6 1040 z "},"ḥ":{"ha":833,"x_min":114,"x_max":739,"o":"m 114 981 l 275 981 l 275 728 l 265 582 q 372 664 313 629 q 510 699 431 699 q 683 627 628 699 q 739 422 739 556 l 739 0 l 578 0 l 578 401 q 549 523 578 485 q 450 561 521 561 q 361 538 400 561 q 275 465 322 514 l 275 0 l 114 0 l 114 981 m 432 -333 q 351 -304 383 -333 q 318 -226 318 -275 q 351 -148 318 -178 q 432 -118 383 -118 q 513 -148 481 -118 q 546 -226 546 -178 q 513 -304 546 -275 q 432 -333 481 -333 z "},"ḫ":{"ha":833,"x_min":114,"x_max":739,"o":"m 114 981 l 275 981 l 275 728 l 265 582 q 372 664 313 629 q 510 699 431 699 q 683 627 628 699 q 739 422 739 556 l 739 0 l 578 0 l 578 401 q 549 523 578 485 q 450 561 521 561 q 361 538 400 561 q 275 465 322 514 l 275 0 l 114 0 l 114 981 m 431 -289 q 349 -273 383 -289 q 293 -231 315 -257 q 259 -172 271 -206 q 246 -104 247 -139 l 339 -104 q 366 -169 344 -142 q 431 -197 388 -197 q 495 -169 474 -197 q 522 -104 517 -142 l 615 -104 q 601 -172 613 -139 q 568 -231 590 -206 q 512 -273 546 -257 q 431 -289 478 -289 z "},"ħ":{"ha":833,"x_min":18,"x_max":739,"o":"m 265 554 q 372 636 313 601 q 510 671 431 671 q 683 599 628 671 q 739 394 739 528 l 739 0 l 578 0 l 578 374 q 549 495 578 457 q 450 533 521 533 q 361 510 400 533 q 275 438 322 486 l 275 0 l 114 0 l 114 783 l 18 783 l 18 858 l 114 864 l 114 981 l 275 981 l 275 865 l 547 865 l 547 783 l 275 783 l 275 700 l 265 554 z "},"ì":{"ha":833,"x_min":117,"x_max":583,"o":"m 117 682 l 572 682 l 572 0 l 413 0 l 413 556 l 117 556 l 117 682 m 292 1015 l 458 1015 l 583 796 l 464 796 l 292 1015 z "},"í":{"ha":833,"x_min":117,"x_max":669,"o":"m 117 682 l 572 682 l 572 0 l 413 0 l 413 556 l 117 556 l 117 682 m 497 796 l 378 796 l 503 1015 l 669 1015 l 497 796 z "},"î":{"ha":833,"x_min":117,"x_max":686,"o":"m 117 682 l 572 682 l 572 0 l 413 0 l 413 556 l 117 556 l 117 682 m 413 1015 l 549 1015 l 686 796 l 567 796 l 483 931 l 478 931 l 394 796 l 275 796 l 413 1015 z "},"ĩ":{"ha":833,"x_min":117,"x_max":697,"o":"m 117 682 l 572 682 l 572 0 l 413 0 l 413 556 l 117 556 l 117 682 m 264 801 q 310 931 274 885 q 406 978 346 978 q 451 966 431 978 q 490 940 472 954 q 524 915 508 926 q 556 903 540 903 q 592 920 578 903 q 613 978 606 938 l 697 978 q 651 848 688 894 q 556 801 615 801 q 510 813 531 801 q 471 839 489 825 q 438 865 453 853 q 406 876 422 876 q 369 859 383 876 q 349 801 356 842 l 264 801 l 264 801 z "},"ï":{"ha":833,"x_min":117,"x_max":715,"o":"m 117 682 l 572 682 l 572 0 l 413 0 l 413 556 l 117 556 l 117 682 m 338 804 q 272 831 297 804 q 246 897 246 857 q 272 965 246 938 q 338 992 297 992 q 404 965 378 992 q 431 897 431 938 q 404 831 431 857 q 338 804 378 804 m 624 804 q 557 831 583 804 q 531 897 531 857 q 557 965 531 938 q 624 992 583 992 q 690 965 664 992 q 715 897 715 938 q 690 831 715 857 q 624 804 664 804 z "},"ī":{"ha":833,"x_min":117,"x_max":661,"o":"m 117 682 l 572 682 l 572 0 l 413 0 l 413 556 l 117 556 l 117 682 m 300 933 l 661 933 l 661 828 l 300 828 l 300 933 z "},"ĭ":{"ha":833,"x_min":117,"x_max":674,"o":"m 117 682 l 572 682 l 572 0 l 413 0 l 413 556 l 117 556 l 117 682 m 481 799 q 397 816 432 799 q 338 862 361 833 q 301 926 314 890 q 288 1000 289 963 l 381 1000 q 410 922 386 956 q 481 889 433 889 q 551 922 528 889 q 581 1000 575 956 l 674 1000 q 659 926 671 963 q 624 862 647 890 q 565 816 600 833 q 481 799 529 799 z "},"ǐ":{"ha":833,"x_min":117,"x_max":686,"o":"m 117 682 l 572 682 l 572 0 l 413 0 l 413 556 l 117 556 l 117 682 m 275 1015 l 394 1015 l 478 881 l 483 881 l 567 1015 l 686 1015 l 549 796 l 413 796 l 275 1015 z "},"ỉ":{"ha":833,"x_min":117,"x_max":611,"o":"m 117 682 l 572 682 l 572 0 l 413 0 l 413 556 l 117 556 l 117 682 m 422 838 q 472 856 451 844 q 492 890 492 867 q 465 927 492 914 q 379 943 439 940 l 397 1028 q 560 993 508 1024 q 611 907 611 963 q 597 850 611 874 q 558 810 582 826 q 503 785 535 794 q 436 771 471 775 l 422 838 z "},"ị":{"ha":833,"x_min":117,"x_max":594,"o":"m 117 682 l 572 682 l 572 0 l 413 0 l 413 556 l 117 556 l 117 682 m 481 801 q 399 831 432 801 q 367 908 367 860 q 399 987 367 957 q 481 1017 432 1017 q 563 987 531 1017 q 594 908 594 957 q 563 831 594 860 q 481 801 531 801 m 481 -333 q 399 -304 432 -333 q 367 -226 367 -275 q 399 -148 367 -178 q 481 -118 432 -118 q 562 -148 529 -118 q 594 -226 594 -178 q 562 -304 594 -275 q 481 -333 529 -333 z "},"į":{"ha":833,"x_min":117,"x_max":628,"o":"m 413 556 l 117 556 l 117 682 l 572 682 l 572 0 q 501 -60 524 -25 q 478 -132 478 -96 q 497 -176 478 -161 q 539 -190 515 -190 q 566 -185 554 -190 q 592 -172 578 -181 l 628 -247 q 568 -278 604 -267 q 503 -289 532 -289 q 405 -258 444 -289 q 365 -167 365 -228 q 374 -112 365 -137 q 397 -67 383 -87 q 426 -29 410 -46 q 456 0 442 -12 l 413 0 l 413 556 m 481 801 q 399 831 432 801 q 367 908 367 860 q 399 987 367 957 q 481 1017 432 1017 q 563 987 531 1017 q 594 908 594 957 q 563 831 594 860 q 481 801 531 801 z "},"ı":{"ha":833,"x_min":117,"x_max":572,"o":"m 117 682 l 572 682 l 572 0 l 413 0 l 413 556 l 117 556 l 117 682 z "},"ĵ":{"ha":833,"x_min":68,"x_max":686,"o":"m 117 682 l 572 682 l 572 13 q 558 -104 572 -50 q 509 -199 543 -158 q 417 -263 475 -240 q 271 -286 358 -286 q 160 -273 211 -286 q 68 -240 110 -260 l 117 -125 q 192 -151 156 -143 q 263 -160 229 -160 q 381 -118 350 -160 q 413 4 413 -76 l 413 556 l 117 556 l 117 682 m 413 1015 l 549 1015 l 686 796 l 567 796 l 483 931 l 478 931 l 394 796 l 275 796 l 413 1015 z "},"ķ":{"ha":833,"x_min":125,"x_max":806,"o":"m 125 981 l 286 981 l 286 367 l 292 367 l 599 682 l 776 682 l 513 407 l 806 0 l 631 0 l 417 308 l 286 178 l 286 0 l 125 0 l 125 981 m 414 -62 q 531 -99 496 -72 q 565 -174 565 -125 q 547 -231 565 -207 q 498 -271 529 -254 q 426 -297 467 -287 q 342 -310 386 -307 l 328 -240 q 414 -221 381 -233 q 447 -183 447 -208 q 430 -147 447 -160 q 381 -126 413 -133 l 414 -62 l 414 -62 z "},"ĸ":{"ha":833,"x_min":125,"x_max":806,"o":"m 125 682 l 286 682 l 286 368 l 290 369 l 599 682 l 776 682 l 513 407 l 806 0 l 631 0 l 417 301 l 286 175 l 286 0 l 125 0 l 125 682 z "},"ĺ":{"ha":833,"x_min":99,"x_max":750,"o":"m 99 981 l 474 981 l 474 240 q 508 142 474 171 q 596 114 543 114 q 713 140 646 114 l 750 22 q 659 -6 701 6 q 557 -17 617 -17 q 375 53 436 -17 q 314 249 314 122 l 314 854 l 99 854 l 99 981 m 418 1053 l 289 1053 l 406 1214 l 581 1214 l 418 1053 z "},"ľ":{"ha":833,"x_min":99,"x_max":750,"o":"m 99 981 l 474 981 l 474 240 q 508 142 474 171 q 596 114 543 114 q 713 140 646 114 l 750 22 q 659 -6 701 6 q 557 -17 617 -17 q 375 53 436 -17 q 314 249 314 122 l 314 854 l 99 854 l 99 981 m 567 761 l 560 1063 l 667 1063 l 665 975 l 639 761 l 567 761 z "},"ŀ":{"ha":833,"x_min":39,"x_max":744,"o":"m 39 981 l 414 981 l 414 240 q 449 142 414 171 q 536 114 483 114 q 653 140 586 114 l 690 22 q 599 -6 642 6 q 497 -17 557 -17 q 315 53 376 -17 q 254 249 254 122 l 254 854 l 39 854 l 39 981 m 631 379 q 549 408 582 379 q 517 486 517 438 q 549 565 517 535 q 631 594 582 594 q 712 565 679 594 q 744 486 744 535 q 712 408 744 438 q 631 379 679 379 z "},"ļ":{"ha":833,"x_min":99,"x_max":750,"o":"m 99 981 l 474 981 l 474 240 q 508 142 474 171 q 596 114 543 114 q 713 140 646 114 l 750 22 q 659 -6 701 6 q 557 -17 617 -17 q 375 53 436 -17 q 314 249 314 122 l 314 854 l 99 854 l 99 981 m 464 -62 q 581 -99 546 -72 q 615 -174 615 -125 q 597 -231 615 -207 q 548 -271 579 -254 q 476 -297 517 -287 q 392 -310 436 -307 l 378 -240 q 464 -221 431 -233 q 497 -183 497 -208 q 480 -147 497 -160 q 431 -126 463 -133 l 464 -62 l 464 -62 z "},"ḷ":{"ha":833,"x_min":99,"x_max":750,"o":"m 99 981 l 474 981 l 474 240 q 508 142 474 171 q 596 114 543 114 q 713 140 646 114 l 750 22 q 659 -6 701 6 q 557 -17 617 -17 q 375 53 436 -17 q 314 249 314 122 l 314 854 l 99 854 l 99 981 m 508 -333 q 427 -304 460 -333 q 394 -226 394 -275 q 427 -148 394 -178 q 508 -118 460 -118 q 590 -148 557 -118 q 622 -226 622 -178 q 590 -304 622 -275 q 508 -333 557 -333 z "},"ḹ":{"ha":833,"x_min":99,"x_max":750,"o":"m 99 981 l 474 981 l 474 240 q 508 142 474 171 q 596 114 543 114 q 713 140 646 114 l 750 22 q 659 -6 701 6 q 557 -17 617 -17 q 375 53 436 -17 q 314 249 314 122 l 314 854 l 99 854 l 99 981 m 206 1235 l 567 1235 l 567 1129 l 206 1129 l 206 1235 m 508 -333 q 427 -304 460 -333 q 394 -226 394 -275 q 427 -148 394 -178 q 508 -118 460 -118 q 590 -148 557 -118 q 622 -226 622 -178 q 590 -304 622 -275 q 508 -333 557 -333 z "},"ḻ":{"ha":833,"x_min":99,"x_max":750,"o":"m 99 981 l 474 981 l 474 240 q 508 142 474 171 q 596 114 543 114 q 713 140 646 114 l 750 22 q 659 -6 701 6 q 557 -17 617 -17 q 375 53 436 -17 q 314 249 314 122 l 314 854 l 99 854 l 99 981 m 689 -250 l 326 -250 l 326 -144 l 689 -144 l 689 -250 z "},"ł":{"ha":833,"x_min":99,"x_max":750,"o":"m 750 22 q 659 -6 701 6 q 557 -17 617 -17 q 375 53 436 -17 q 314 249 314 122 l 314 422 l 150 328 l 150 460 l 314 553 l 314 854 l 99 854 l 99 981 l 474 981 l 474 633 l 690 753 l 690 621 l 474 501 l 474 240 q 508 142 474 171 q 596 114 543 114 q 713 140 646 114 l 750 22 z "},"ṃ":{"ha":833,"x_min":67,"x_max":785,"o":"m 67 682 l 188 682 l 200 594 l 204 594 q 262 669 228 639 q 354 699 296 699 q 479 585 454 699 q 540 666 503 633 q 633 699 576 699 q 745 642 706 699 q 785 483 785 586 l 785 0 l 633 0 l 633 471 q 576 561 633 561 q 528 540 549 561 q 488 476 507 519 l 488 0 l 363 0 l 363 471 q 304 561 363 561 q 257 540 276 561 q 218 476 238 519 l 218 0 l 67 0 l 67 682 m 422 -333 q 341 -304 374 -333 q 308 -226 308 -275 q 341 -148 308 -178 q 422 -118 374 -118 q 503 -148 471 -118 q 536 -226 536 -178 q 503 -304 536 -275 q 422 -333 471 -333 z "},"ń":{"ha":833,"x_min":114,"x_max":739,"o":"m 114 682 l 246 682 l 258 579 l 264 579 q 372 663 313 628 q 510 699 431 699 q 683 627 628 699 q 739 422 739 556 l 739 0 l 578 0 l 578 401 q 549 523 578 485 q 450 561 521 561 q 361 538 400 561 q 275 465 322 514 l 275 0 l 114 0 l 114 682 m 456 796 l 336 796 l 461 1015 l 628 1015 l 456 796 z "},"ň":{"ha":833,"x_min":114,"x_max":739,"o":"m 114 682 l 246 682 l 258 579 l 264 579 q 372 663 313 628 q 510 699 431 699 q 683 627 628 699 q 739 422 739 556 l 739 0 l 578 0 l 578 401 q 549 523 578 485 q 450 561 521 561 q 361 538 400 561 q 275 465 322 514 l 275 0 l 114 0 l 114 682 m 233 1015 l 353 1015 l 436 881 l 442 881 l 525 1015 l 644 1015 l 507 796 l 371 796 l 233 1015 z "},"ñ":{"ha":833,"x_min":114,"x_max":739,"o":"m 114 682 l 246 682 l 258 579 l 264 579 q 372 663 313 628 q 510 699 431 699 q 683 627 628 699 q 739 422 739 556 l 739 0 l 578 0 l 578 401 q 549 523 578 485 q 450 561 521 561 q 361 538 400 561 q 275 465 322 514 l 275 0 l 114 0 l 114 682 m 222 801 q 268 931 232 885 q 364 978 304 978 q 410 966 389 978 q 449 940 431 954 q 483 915 467 926 q 514 903 499 903 q 550 920 536 903 q 571 978 564 938 l 656 978 q 610 848 646 894 q 514 801 574 801 q 468 813 489 801 q 429 839 447 825 q 396 865 411 853 q 364 876 381 876 q 328 859 342 876 q 307 801 314 842 l 222 801 l 222 801 z "},"ņ":{"ha":833,"x_min":114,"x_max":739,"o":"m 114 682 l 246 682 l 258 579 l 264 579 q 372 663 313 628 q 510 699 431 699 q 683 627 628 699 q 739 422 739 556 l 739 0 l 578 0 l 578 401 q 549 523 578 485 q 450 561 521 561 q 361 538 400 561 q 275 465 322 514 l 275 0 l 114 0 l 114 682 m 386 -62 q 503 -99 468 -72 q 538 -174 538 -125 q 519 -231 538 -207 q 470 -271 501 -254 q 399 -297 439 -287 q 314 -310 358 -307 l 300 -240 q 386 -221 353 -233 q 419 -183 419 -208 q 402 -147 419 -160 q 353 -126 385 -133 l 386 -62 l 386 -62 z "},"ṅ":{"ha":833,"x_min":114,"x_max":739,"o":"m 114 682 l 246 682 l 258 579 l 264 579 q 372 663 313 628 q 510 699 431 699 q 683 627 628 699 q 739 422 739 556 l 739 0 l 578 0 l 578 401 q 549 523 578 485 q 450 561 521 561 q 361 538 400 561 q 275 465 322 514 l 275 0 l 114 0 l 114 682 m 439 801 q 358 831 390 801 q 325 908 325 860 q 358 987 325 957 q 439 1017 390 1017 q 520 987 488 1017 q 553 908 553 957 q 520 831 553 860 q 439 801 488 801 z "},"ṇ":{"ha":833,"x_min":114,"x_max":739,"o":"m 114 682 l 246 682 l 258 579 l 264 579 q 372 663 313 628 q 510 699 431 699 q 683 627 628 699 q 739 422 739 556 l 739 0 l 578 0 l 578 401 q 549 523 578 485 q 450 561 521 561 q 361 538 400 561 q 275 465 322 514 l 275 0 l 114 0 l 114 682 m 431 -333 q 349 -304 382 -333 q 317 -226 317 -275 q 349 -148 317 -178 q 431 -118 382 -118 q 512 -148 479 -118 q 544 -226 544 -178 q 512 -304 544 -275 q 431 -333 479 -333 z "},"ṉ":{"ha":833,"x_min":114,"x_max":739,"o":"m 114 682 l 246 682 l 258 579 l 264 579 q 372 663 313 628 q 510 699 431 699 q 683 627 628 699 q 739 422 739 556 l 739 0 l 578 0 l 578 401 q 549 523 578 485 q 450 561 521 561 q 361 538 400 561 q 275 465 322 514 l 275 0 l 114 0 l 114 682 m 611 -250 l 249 -250 l 249 -144 l 611 -144 l 611 -250 z "},"ŉ":{"ha":833,"x_min":-47,"x_max":863,"o":"m -47 531 q 59 617 21 567 q 101 738 97 668 q 71 732 89 732 q -10 763 21 732 q -42 844 -42 794 q -9 935 -42 901 q 76 969 24 969 q 182 917 143 969 q 221 774 221 865 q 164 581 221 665 q -1 443 107 496 l -47 531 m 436 585 q 533 665 481 632 q 656 699 585 699 q 813 628 763 699 q 863 428 863 558 l 863 0 l 703 0 l 703 407 q 678 524 703 486 q 597 561 654 561 q 521 538 553 561 q 447 471 489 515 l 447 0 l 286 0 l 286 682 l 418 682 l 431 585 l 436 585 z "},"ò":{"ha":833,"x_min":74,"x_max":760,"o":"m 74 340 q 102 492 74 425 q 178 604 131 558 q 288 674 225 650 q 417 699 350 699 q 546 674 483 699 q 656 604 608 650 q 731 492 703 558 q 760 340 760 425 q 731 189 760 256 q 656 76 703 122 q 546 7 608 31 q 417 -17 483 -17 q 288 7 350 -17 q 178 76 225 31 q 102 189 131 122 q 74 340 74 256 m 239 340 q 286 176 239 238 q 417 114 333 114 q 547 176 500 114 q 594 340 594 238 q 547 506 594 444 q 417 568 500 568 q 286 506 333 568 q 239 340 239 444 m 228 1015 l 394 1015 l 519 796 l 400 796 l 228 1015 z "},"ó":{"ha":833,"x_min":74,"x_max":760,"o":"m 74 340 q 102 492 74 425 q 178 604 131 558 q 288 674 225 650 q 417 699 350 699 q 546 674 483 699 q 656 604 608 650 q 731 492 703 558 q 760 340 760 425 q 731 189 760 256 q 656 76 703 122 q 546 7 608 31 q 417 -17 483 -17 q 288 7 350 -17 q 178 76 225 31 q 102 189 131 122 q 74 340 74 256 m 239 340 q 286 176 239 238 q 417 114 333 114 q 547 176 500 114 q 594 340 594 238 q 547 506 594 444 q 417 568 500 568 q 286 506 333 568 q 239 340 239 444 m 433 796 l 314 796 l 439 1015 l 606 1015 l 433 796 z "},"ô":{"ha":833,"x_min":74,"x_max":760,"o":"m 74 340 q 102 492 74 425 q 178 604 131 558 q 288 674 225 650 q 417 699 350 699 q 546 674 483 699 q 656 604 608 650 q 731 492 703 558 q 760 340 760 425 q 731 189 760 256 q 656 76 703 122 q 546 7 608 31 q 417 -17 483 -17 q 288 7 350 -17 q 178 76 225 31 q 102 189 131 122 q 74 340 74 256 m 239 340 q 286 176 239 238 q 417 114 333 114 q 547 176 500 114 q 594 340 594 238 q 547 506 594 444 q 417 568 500 568 q 286 506 333 568 q 239 340 239 444 m 349 1015 l 485 1015 l 622 796 l 503 796 l 419 931 l 414 931 l 331 796 l 211 796 l 349 1015 z "},"õ":{"ha":833,"x_min":74,"x_max":760,"o":"m 74 340 q 102 492 74 425 q 178 604 131 558 q 288 674 225 650 q 417 699 350 699 q 546 674 483 699 q 656 604 608 650 q 731 492 703 558 q 760 340 760 425 q 731 189 760 256 q 656 76 703 122 q 546 7 608 31 q 417 -17 483 -17 q 288 7 350 -17 q 178 76 225 31 q 102 189 131 122 q 74 340 74 256 m 239 340 q 286 176 239 238 q 417 114 333 114 q 547 176 500 114 q 594 340 594 238 q 547 506 594 444 q 417 568 500 568 q 286 506 333 568 q 239 340 239 444 m 200 801 q 246 931 210 885 q 342 978 282 978 q 388 966 367 978 q 426 940 408 954 q 460 915 444 926 q 492 903 476 903 q 528 920 514 903 q 549 978 542 938 l 633 978 q 588 848 624 894 q 492 801 551 801 q 446 813 467 801 q 407 839 425 825 q 374 865 389 853 q 342 876 358 876 q 306 859 319 876 q 285 801 292 842 l 200 801 l 200 801 z "},"ö":{"ha":833,"x_min":74,"x_max":760,"o":"m 74 340 q 102 492 74 425 q 178 604 131 558 q 288 674 225 650 q 417 699 350 699 q 546 674 483 699 q 656 604 608 650 q 731 492 703 558 q 760 340 760 425 q 731 189 760 256 q 656 76 703 122 q 546 7 608 31 q 417 -17 483 -17 q 288 7 350 -17 q 178 76 225 31 q 102 189 131 122 q 74 340 74 256 m 239 340 q 286 176 239 238 q 417 114 333 114 q 547 176 500 114 q 594 340 594 238 q 547 506 594 444 q 417 568 500 568 q 286 506 333 568 q 239 340 239 444 m 274 804 q 208 831 233 804 q 182 897 182 857 q 208 965 182 938 q 274 992 233 992 q 340 965 314 992 q 367 897 367 938 q 340 831 367 857 q 274 804 314 804 m 560 804 q 493 831 519 804 q 467 897 467 857 q 493 965 467 938 q 560 992 519 992 q 626 965 600 992 q 651 897 651 938 q 626 831 651 857 q 560 804 600 804 z "},"ō":{"ha":833,"x_min":74,"x_max":760,"o":"m 74 340 q 102 492 74 425 q 178 604 131 558 q 288 674 225 650 q 417 699 350 699 q 546 674 483 699 q 656 604 608 650 q 731 492 703 558 q 760 340 760 425 q 731 189 760 256 q 656 76 703 122 q 546 7 608 31 q 417 -17 483 -17 q 288 7 350 -17 q 178 76 225 31 q 102 189 131 122 q 74 340 74 256 m 239 340 q 286 176 239 238 q 417 114 333 114 q 547 176 500 114 q 594 340 594 238 q 547 506 594 444 q 417 568 500 568 q 286 506 333 568 q 239 340 239 444 m 236 933 l 597 933 l 597 828 l 236 828 l 236 933 z "},"ŏ":{"ha":833,"x_min":74,"x_max":760,"o":"m 74 340 q 102 492 74 425 q 178 604 131 558 q 288 674 225 650 q 417 699 350 699 q 546 674 483 699 q 656 604 608 650 q 731 492 703 558 q 760 340 760 425 q 731 189 760 256 q 656 76 703 122 q 546 7 608 31 q 417 -17 483 -17 q 288 7 350 -17 q 178 76 225 31 q 102 189 131 122 q 74 340 74 256 m 239 340 q 286 176 239 238 q 417 114 333 114 q 547 176 500 114 q 594 340 594 238 q 547 506 594 444 q 417 568 500 568 q 286 506 333 568 q 239 340 239 444 m 417 799 q 333 816 368 799 q 274 862 297 833 q 238 926 250 890 q 224 1000 225 963 l 317 1000 q 346 922 322 956 q 417 889 369 889 q 488 922 464 889 q 517 1000 511 956 l 610 1000 q 595 926 607 963 q 560 862 583 890 q 501 816 536 833 q 417 799 465 799 z "},"ő":{"ha":833,"x_min":74,"x_max":760,"o":"m 74 340 q 102 492 74 425 q 178 604 131 558 q 288 674 225 650 q 417 699 350 699 q 546 674 483 699 q 656 604 608 650 q 731 492 703 558 q 760 340 760 425 q 731 189 760 256 q 656 76 703 122 q 546 7 608 31 q 417 -17 483 -17 q 288 7 350 -17 q 178 76 225 31 q 102 189 131 122 q 74 340 74 256 m 239 340 q 286 176 239 238 q 417 114 333 114 q 547 176 500 114 q 594 340 594 238 q 547 506 594 444 q 417 568 500 568 q 286 506 333 568 q 239 340 239 444 m 358 999 l 489 999 l 363 794 l 261 794 l 358 999 m 579 999 l 711 999 l 583 794 l 482 794 l 579 999 z "},"ǒ":{"ha":833,"x_min":74,"x_max":760,"o":"m 74 340 q 102 492 74 425 q 178 604 131 558 q 288 674 225 650 q 417 699 350 699 q 546 674 483 699 q 656 604 608 650 q 731 492 703 558 q 760 340 760 425 q 731 189 760 256 q 656 76 703 122 q 546 7 608 31 q 417 -17 483 -17 q 288 7 350 -17 q 178 76 225 31 q 102 189 131 122 q 74 340 74 256 m 239 340 q 286 176 239 238 q 417 114 333 114 q 547 176 500 114 q 594 340 594 238 q 547 506 594 444 q 417 568 500 568 q 286 506 333 568 q 239 340 239 444 m 211 1015 l 331 1015 l 414 881 l 419 881 l 503 1015 l 622 1015 l 485 796 l 349 796 l 211 1015 z "},"ọ":{"ha":833,"x_min":74,"x_max":760,"o":"m 74 340 q 102 492 74 425 q 178 604 131 558 q 288 674 225 650 q 417 699 350 699 q 546 674 483 699 q 656 604 608 650 q 731 492 703 558 q 760 340 760 425 q 731 189 760 256 q 656 76 703 122 q 546 7 608 31 q 417 -17 483 -17 q 288 7 350 -17 q 178 76 225 31 q 102 189 131 122 q 74 340 74 256 m 239 340 q 286 176 239 238 q 417 114 333 114 q 547 176 500 114 q 594 340 594 238 q 547 506 594 444 q 417 568 500 568 q 286 506 333 568 q 239 340 239 444 m 417 -333 q 335 -304 368 -333 q 303 -226 303 -275 q 335 -148 303 -178 q 417 -118 368 -118 q 498 -148 465 -118 q 531 -226 531 -178 q 498 -304 531 -275 q 417 -333 465 -333 z "},"ỏ":{"ha":833,"x_min":74,"x_max":760,"o":"m 74 340 q 102 492 74 425 q 178 604 131 558 q 288 674 225 650 q 417 699 350 699 q 546 674 483 699 q 656 604 608 650 q 731 492 703 558 q 760 340 760 425 q 731 189 760 256 q 656 76 703 122 q 546 7 608 31 q 417 -17 483 -17 q 288 7 350 -17 q 178 76 225 31 q 102 189 131 122 q 74 340 74 256 m 239 340 q 286 176 239 238 q 417 114 333 114 q 547 176 500 114 q 594 340 594 238 q 547 506 594 444 q 417 568 500 568 q 286 506 333 568 q 239 340 239 444 m 358 838 q 408 856 388 844 q 428 890 428 867 q 401 927 428 914 q 315 943 375 940 l 333 1028 q 496 993 444 1024 q 547 907 547 963 q 533 850 547 874 q 494 810 518 826 q 439 785 471 794 q 372 771 407 775 l 358 838 z "},"ố":{"ha":833,"x_min":74,"x_max":775,"o":"m 74 340 q 102 492 74 425 q 178 604 131 558 q 288 674 225 650 q 417 699 350 699 q 546 674 483 699 q 656 604 608 650 q 731 492 703 558 q 760 340 760 425 q 731 189 760 256 q 656 76 703 122 q 546 7 608 31 q 417 -17 483 -17 q 288 7 350 -17 q 178 76 225 31 q 102 189 131 122 q 74 340 74 256 m 239 340 q 286 176 239 238 q 417 114 333 114 q 547 176 500 114 q 594 340 594 238 q 547 506 594 444 q 417 568 500 568 q 286 506 333 568 q 239 340 239 444 m 353 968 l 481 968 l 594 796 l 492 796 l 419 892 l 414 892 l 342 796 l 239 796 l 353 968 m 651 1054 l 775 1054 l 646 893 l 553 893 l 651 1054 z "},"ồ":{"ha":833,"x_min":74,"x_max":760,"o":"m 74 340 q 102 492 74 425 q 178 604 131 558 q 288 674 225 650 q 417 699 350 699 q 546 674 483 699 q 656 604 608 650 q 731 492 703 558 q 760 340 760 425 q 731 189 760 256 q 656 76 703 122 q 546 7 608 31 q 417 -17 483 -17 q 288 7 350 -17 q 178 76 225 31 q 102 189 131 122 q 74 340 74 256 m 239 340 q 286 176 239 238 q 417 114 333 114 q 547 176 500 114 q 594 340 594 238 q 547 506 594 444 q 417 568 500 568 q 286 506 333 568 q 239 340 239 444 m 353 968 l 481 968 l 594 796 l 492 796 l 419 892 l 414 892 l 342 796 l 239 796 l 353 968 m 731 893 l 638 893 l 507 1054 l 632 1054 l 731 893 z "},"ổ":{"ha":833,"x_min":74,"x_max":760,"o":"m 74 340 q 102 492 74 425 q 178 604 131 558 q 288 674 225 650 q 417 699 350 699 q 546 674 483 699 q 656 604 608 650 q 731 492 703 558 q 760 340 760 425 q 731 189 760 256 q 656 76 703 122 q 546 7 608 31 q 417 -17 483 -17 q 288 7 350 -17 q 178 76 225 31 q 102 189 131 122 q 74 340 74 256 m 239 340 q 286 176 239 238 q 417 114 333 114 q 547 176 500 114 q 594 340 594 238 q 547 506 594 444 q 417 568 500 568 q 286 506 333 568 q 239 340 239 444 m 353 968 l 481 968 l 594 796 l 492 796 l 419 892 l 414 892 l 342 796 l 239 796 l 353 968 m 581 931 q 617 948 603 938 q 631 978 631 958 q 610 1014 631 1001 q 538 1029 590 1026 l 551 1101 q 694 1071 650 1099 q 739 994 739 1043 q 727 943 739 964 q 695 908 715 922 q 649 886 675 894 q 593 872 622 878 l 581 931 z "},"ỗ":{"ha":833,"x_min":74,"x_max":760,"o":"m 74 340 q 102 492 74 425 q 178 604 131 558 q 288 674 225 650 q 417 699 350 699 q 546 674 483 699 q 656 604 608 650 q 731 492 703 558 q 760 340 760 425 q 731 189 760 256 q 656 76 703 122 q 546 7 608 31 q 417 -17 483 -17 q 288 7 350 -17 q 178 76 225 31 q 102 189 131 122 q 74 340 74 256 m 239 340 q 286 176 239 238 q 417 114 333 114 q 547 176 500 114 q 594 340 594 238 q 547 506 594 444 q 417 568 500 568 q 286 506 333 568 q 239 340 239 444 m 344 944 l 489 944 l 606 794 l 499 794 l 419 881 l 414 881 l 335 794 l 228 794 l 344 944 m 225 994 q 263 1100 232 1064 q 342 1136 294 1136 q 388 1127 368 1136 q 424 1108 408 1118 q 454 1089 440 1097 q 483 1081 468 1081 q 536 1136 524 1081 l 608 1136 q 570 1031 601 1067 q 492 994 539 994 q 444 1003 464 994 q 409 1022 425 1011 q 379 1041 393 1032 q 350 1050 365 1050 q 297 994 310 1050 l 225 994 z "},"ộ":{"ha":833,"x_min":74,"x_max":760,"o":"m 74 340 q 102 492 74 425 q 178 604 131 558 q 288 674 225 650 q 417 699 350 699 q 546 674 483 699 q 656 604 608 650 q 731 492 703 558 q 760 340 760 425 q 731 189 760 256 q 656 76 703 122 q 546 7 608 31 q 417 -17 483 -17 q 288 7 350 -17 q 178 76 225 31 q 102 189 131 122 q 74 340 74 256 m 239 340 q 286 176 239 238 q 417 114 333 114 q 547 176 500 114 q 594 340 594 238 q 547 506 594 444 q 417 568 500 568 q 286 506 333 568 q 239 340 239 444 m 349 1015 l 485 1015 l 622 796 l 503 796 l 419 931 l 414 931 l 331 796 l 211 796 l 349 1015 m 417 -333 q 335 -304 368 -333 q 303 -226 303 -275 q 335 -148 303 -178 q 417 -118 368 -118 q 498 -148 465 -118 q 531 -226 531 -178 q 498 -304 531 -275 q 417 -333 465 -333 z "},"ø":{"ha":833,"x_min":74,"x_max":760,"o":"m 307 150 q 417 108 353 108 q 491 126 458 108 q 547 174 524 143 q 582 247 569 204 q 594 340 594 289 q 572 464 594 411 l 307 150 m 525 533 q 476 563 504 553 q 417 574 449 574 q 342 556 375 574 q 285 508 308 539 q 251 435 263 478 q 239 340 239 392 q 260 219 239 271 l 525 533 m 675 585 q 737 478 714 540 q 760 340 760 417 q 731 189 760 256 q 656 76 703 122 q 546 7 608 31 q 417 -17 483 -17 q 312 -1 363 -17 q 218 44 261 14 l 153 -33 l 89 17 l 158 99 q 96 204 118 143 q 74 340 74 265 q 102 492 74 425 q 178 604 131 558 q 288 674 225 650 q 417 699 350 699 q 614 639 526 699 l 681 717 l 744 667 l 675 585 z "},"œ":{"ha":833,"x_min":15,"x_max":825,"o":"m 161 342 q 190 175 161 238 q 275 113 218 113 q 353 175 325 113 q 382 342 382 238 q 353 507 382 444 q 275 569 325 569 q 190 507 218 569 q 161 342 161 444 m 15 342 q 35 493 15 426 q 89 606 54 560 q 169 675 124 651 q 268 699 215 699 q 375 662 331 699 q 446 558 419 625 q 518 662 474 625 q 621 699 563 699 q 709 673 671 699 q 773 603 747 647 q 812 501 799 560 q 825 378 825 443 q 824 337 825 354 q 819 297 822 319 l 497 297 q 542 160 506 210 q 640 110 578 110 q 697 120 672 110 q 750 150 722 131 l 806 46 q 724 1 769 18 q 633 -17 679 -17 q 525 17 574 -17 q 447 114 476 50 q 373 17 417 50 q 265 -17 329 -17 q 167 7 213 -17 q 88 76 121 31 q 35 189 54 122 q 15 342 15 256 m 697 399 q 693 466 697 433 q 678 522 689 499 q 651 560 668 546 q 608 575 633 575 q 531 529 560 575 q 496 399 503 483 l 697 399 z "},"ơ":{"ha":833,"x_min":74,"x_max":792,"o":"m 417 114 q 547 176 500 114 q 594 340 594 238 q 547 506 594 444 q 417 568 500 568 q 286 506 333 568 q 239 340 239 444 q 286 176 239 238 q 417 114 333 114 m 756 869 q 781 824 771 850 q 792 768 792 799 q 751 665 792 703 q 649 611 711 628 q 729 497 699 565 q 760 340 760 429 q 731 189 760 256 q 656 76 703 122 q 546 7 608 31 q 417 -17 483 -17 q 288 7 350 -17 q 178 76 225 31 q 102 189 131 122 q 74 340 74 256 q 102 492 74 425 q 178 604 131 558 q 288 674 225 650 q 417 699 350 699 q 563 668 490 699 q 640 696 614 676 q 665 757 665 715 q 659 790 665 775 q 644 818 653 806 l 756 869 z "},"ớ":{"ha":833,"x_min":74,"x_max":792,"o":"m 417 114 q 547 176 500 114 q 594 340 594 238 q 547 506 594 444 q 417 568 500 568 q 286 506 333 568 q 239 340 239 444 q 286 176 239 238 q 417 114 333 114 m 756 869 q 781 824 771 850 q 792 768 792 799 q 751 665 792 703 q 649 611 711 628 q 729 497 699 565 q 760 340 760 429 q 731 189 760 256 q 656 76 703 122 q 546 7 608 31 q 417 -17 483 -17 q 288 7 350 -17 q 178 76 225 31 q 102 189 131 122 q 74 340 74 256 q 102 492 74 425 q 178 604 131 558 q 288 674 225 650 q 417 699 350 699 q 563 668 490 699 q 640 696 614 676 q 665 757 665 715 q 659 790 665 775 q 644 818 653 806 l 756 869 m 433 796 l 314 796 l 439 1015 l 606 1015 l 433 796 z "},"ờ":{"ha":833,"x_min":74,"x_max":792,"o":"m 417 114 q 547 176 500 114 q 594 340 594 238 q 547 506 594 444 q 417 568 500 568 q 286 506 333 568 q 239 340 239 444 q 286 176 239 238 q 417 114 333 114 m 756 869 q 781 824 771 850 q 792 768 792 799 q 751 665 792 703 q 649 611 711 628 q 729 497 699 565 q 760 340 760 429 q 731 189 760 256 q 656 76 703 122 q 546 7 608 31 q 417 -17 483 -17 q 288 7 350 -17 q 178 76 225 31 q 102 189 131 122 q 74 340 74 256 q 102 492 74 425 q 178 604 131 558 q 288 674 225 650 q 417 699 350 699 q 563 668 490 699 q 640 696 614 676 q 665 757 665 715 q 659 790 665 775 q 644 818 653 806 l 756 869 m 228 1015 l 394 1015 l 519 796 l 400 796 l 228 1015 z "},"ở":{"ha":833,"x_min":74,"x_max":792,"o":"m 417 114 q 547 176 500 114 q 594 340 594 238 q 547 506 594 444 q 417 568 500 568 q 286 506 333 568 q 239 340 239 444 q 286 176 239 238 q 417 114 333 114 m 756 869 q 781 824 771 850 q 792 768 792 799 q 751 665 792 703 q 649 611 711 628 q 729 497 699 565 q 760 340 760 429 q 731 189 760 256 q 656 76 703 122 q 546 7 608 31 q 417 -17 483 -17 q 288 7 350 -17 q 178 76 225 31 q 102 189 131 122 q 74 340 74 256 q 102 492 74 425 q 178 604 131 558 q 288 674 225 650 q 417 699 350 699 q 563 668 490 699 q 640 696 614 676 q 665 757 665 715 q 659 790 665 775 q 644 818 653 806 l 756 869 m 358 838 q 408 856 388 844 q 428 890 428 867 q 401 927 428 914 q 315 943 375 940 l 333 1028 q 496 993 444 1024 q 547 907 547 963 q 533 850 547 874 q 494 810 518 826 q 439 785 471 794 q 372 771 407 775 l 358 838 z "},"ỡ":{"ha":833,"x_min":74,"x_max":792,"o":"m 417 114 q 547 176 500 114 q 594 340 594 238 q 547 506 594 444 q 417 568 500 568 q 286 506 333 568 q 239 340 239 444 q 286 176 239 238 q 417 114 333 114 m 756 869 q 781 824 771 850 q 792 768 792 799 q 751 665 792 703 q 649 611 711 628 q 729 497 699 565 q 760 340 760 429 q 731 189 760 256 q 656 76 703 122 q 546 7 608 31 q 417 -17 483 -17 q 288 7 350 -17 q 178 76 225 31 q 102 189 131 122 q 74 340 74 256 q 102 492 74 425 q 178 604 131 558 q 288 674 225 650 q 417 699 350 699 q 563 668 490 699 q 640 696 614 676 q 665 757 665 715 q 659 790 665 775 q 644 818 653 806 l 756 869 m 200 801 q 246 931 210 885 q 342 978 282 978 q 388 966 367 978 q 426 940 408 954 q 460 915 444 926 q 492 903 476 903 q 528 920 514 903 q 549 978 542 938 l 633 978 q 588 848 624 894 q 492 801 551 801 q 446 813 467 801 q 407 839 425 825 q 374 865 389 853 q 342 876 358 876 q 306 859 319 876 q 285 801 292 842 l 200 801 l 200 801 z "},"ợ":{"ha":833,"x_min":74,"x_max":792,"o":"m 417 114 q 547 176 500 114 q 594 340 594 238 q 547 506 594 444 q 417 568 500 568 q 286 506 333 568 q 239 340 239 444 q 286 176 239 238 q 417 114 333 114 m 756 869 q 781 824 771 850 q 792 768 792 799 q 751 665 792 703 q 649 611 711 628 q 729 497 699 565 q 760 340 760 429 q 731 189 760 256 q 656 76 703 122 q 546 7 608 31 q 417 -17 483 -17 q 288 7 350 -17 q 178 76 225 31 q 102 189 131 122 q 74 340 74 256 q 102 492 74 425 q 178 604 131 558 q 288 674 225 650 q 417 699 350 699 q 563 668 490 699 q 640 696 614 676 q 665 757 665 715 q 659 790 665 775 q 644 818 653 806 l 756 869 m 418 -333 q 337 -304 369 -333 q 304 -226 304 -275 q 337 -148 304 -178 q 418 -118 369 -118 q 499 -148 467 -118 q 532 -226 532 -178 q 499 -304 532 -275 q 418 -333 467 -333 z "},"ǫ":{"ha":833,"x_min":74,"x_max":760,"o":"m 311 -167 q 319 -117 311 -140 q 338 -75 326 -94 q 362 -40 349 -56 q 388 -14 375 -25 q 267 17 324 -10 q 167 89 210 43 q 99 198 124 135 q 74 340 74 261 q 102 492 74 425 q 178 604 131 558 q 287 674 225 650 q 417 699 349 699 q 547 674 485 699 q 656 604 608 650 q 731 492 703 558 q 760 340 760 425 q 742 217 760 271 q 694 122 725 164 q 617 50 663 81 q 518 -3 572 19 q 446 -62 469 -26 q 422 -132 422 -97 q 441 -176 422 -162 q 483 -190 460 -190 q 536 -172 511 -190 l 572 -247 q 513 -278 549 -267 q 447 -289 476 -289 q 350 -258 389 -289 q 311 -167 311 -228 m 239 340 q 286 176 239 238 q 417 114 333 114 q 547 176 500 114 q 594 340 594 238 q 547 506 594 444 q 417 568 500 568 q 286 506 333 568 q 239 340 239 444 z "},"ŕ":{"ha":833,"x_min":181,"x_max":753,"o":"m 181 682 l 313 682 l 326 528 l 331 528 q 458 655 383 611 q 621 699 532 699 q 692 692 663 699 q 753 671 722 686 l 719 536 q 660 552 686 547 q 596 557 635 557 q 460 517 525 557 q 342 376 394 476 l 342 0 l 181 0 l 181 682 m 489 796 l 369 796 l 494 1015 l 661 1015 l 489 796 z "},"ŗ":{"ha":833,"x_min":151,"x_max":753,"o":"m 181 682 l 313 682 l 326 528 l 331 528 q 458 655 383 611 q 621 699 532 699 q 692 692 663 699 q 753 671 722 686 l 719 536 q 660 552 686 547 q 596 557 635 557 q 460 517 525 557 q 342 376 394 476 l 342 0 l 181 0 l 181 682 m 238 -62 q 354 -99 319 -72 q 389 -174 389 -125 q 371 -231 389 -207 q 322 -271 353 -254 q 250 -297 290 -287 q 165 -310 210 -307 l 151 -240 q 238 -221 204 -233 q 271 -183 271 -208 q 253 -147 271 -160 q 204 -126 236 -133 l 238 -62 l 238 -62 z "},"ř":{"ha":833,"x_min":181,"x_max":753,"o":"m 181 682 l 313 682 l 326 528 l 331 528 q 458 655 383 611 q 621 699 532 699 q 692 692 663 699 q 753 671 722 686 l 719 536 q 660 552 686 547 q 596 557 635 557 q 460 517 525 557 q 342 376 394 476 l 342 0 l 181 0 l 181 682 m 267 1015 l 386 1015 l 469 881 l 475 881 l 558 1015 l 678 1015 l 540 796 l 404 796 l 267 1015 z "},"ṛ":{"ha":833,"x_min":168,"x_max":753,"o":"m 181 682 l 313 682 l 326 528 l 331 528 q 458 655 383 611 q 621 699 532 699 q 692 692 663 699 q 753 671 722 686 l 719 536 q 660 552 686 547 q 596 557 635 557 q 460 517 525 557 q 342 376 394 476 l 342 0 l 181 0 l 181 682 m 282 -333 q 201 -304 233 -333 q 168 -226 168 -275 q 201 -148 168 -178 q 282 -118 233 -118 q 363 -148 331 -118 q 396 -226 396 -178 q 363 -304 396 -275 q 282 -333 331 -333 z "},"ṝ":{"ha":833,"x_min":168,"x_max":753,"o":"m 181 682 l 313 682 l 326 528 l 331 528 q 458 655 383 611 q 621 699 532 699 q 692 692 663 699 q 753 671 722 686 l 719 536 q 660 552 686 547 q 596 557 635 557 q 460 517 525 557 q 342 376 394 476 l 342 0 l 181 0 l 181 682 m 292 933 l 653 933 l 653 828 l 292 828 l 292 933 m 282 -333 q 201 -304 233 -333 q 168 -226 168 -275 q 201 -148 168 -178 q 282 -118 233 -118 q 363 -148 331 -118 q 396 -226 396 -178 q 363 -304 396 -275 q 282 -333 331 -333 z "},"ṟ":{"ha":833,"x_min":100,"x_max":753,"o":"m 181 682 l 313 682 l 326 528 l 331 528 q 458 655 383 611 q 621 699 532 699 q 692 692 663 699 q 753 671 722 686 l 719 536 q 660 552 686 547 q 596 557 635 557 q 460 517 525 557 q 342 376 394 476 l 342 0 l 181 0 l 181 682 m 463 -250 l 100 -250 l 100 -144 l 463 -144 l 463 -250 z "},"ś":{"ha":833,"x_min":86,"x_max":740,"o":"m 161 190 q 283 127 219 150 q 425 104 346 104 q 543 127 506 104 q 581 186 581 150 q 532 247 581 222 q 379 299 483 271 q 285 329 331 311 q 204 371 239 347 q 149 425 169 394 q 128 494 128 456 q 206 642 128 585 q 429 699 283 699 q 586 671 513 699 q 713 608 660 643 l 639 510 q 541 559 593 540 q 431 578 489 578 q 319 556 351 578 q 288 503 288 535 q 302 470 288 485 q 342 444 317 456 q 403 421 368 432 q 479 400 438 410 q 587 366 539 385 q 669 324 635 347 q 722 268 703 300 q 740 194 740 236 q 719 112 740 150 q 658 45 699 74 q 558 0 618 17 q 421 -17 499 -17 q 238 14 325 -17 q 86 89 150 44 l 161 190 m 444 796 l 325 796 l 450 1015 l 617 1015 l 444 796 z "},"ŝ":{"ha":833,"x_min":86,"x_max":740,"o":"m 161 190 q 283 127 219 150 q 425 104 346 104 q 543 127 506 104 q 581 186 581 150 q 532 247 581 222 q 379 299 483 271 q 285 329 331 311 q 204 371 239 347 q 149 425 169 394 q 128 494 128 456 q 206 642 128 585 q 429 699 283 699 q 586 671 513 699 q 713 608 660 643 l 639 510 q 541 559 593 540 q 431 578 489 578 q 319 556 351 578 q 288 503 288 535 q 302 470 288 485 q 342 444 317 456 q 403 421 368 432 q 479 400 438 410 q 587 366 539 385 q 669 324 635 347 q 722 268 703 300 q 740 194 740 236 q 719 112 740 150 q 658 45 699 74 q 558 0 618 17 q 421 -17 499 -17 q 238 14 325 -17 q 86 89 150 44 l 161 190 m 360 1015 l 496 1015 l 633 796 l 514 796 l 431 931 l 425 931 l 342 796 l 222 796 l 360 1015 z "},"š":{"ha":833,"x_min":86,"x_max":740,"o":"m 161 190 q 283 127 219 150 q 425 104 346 104 q 543 127 506 104 q 581 186 581 150 q 532 247 581 222 q 379 299 483 271 q 285 329 331 311 q 204 371 239 347 q 149 425 169 394 q 128 494 128 456 q 206 642 128 585 q 429 699 283 699 q 586 671 513 699 q 713 608 660 643 l 639 510 q 541 559 593 540 q 431 578 489 578 q 319 556 351 578 q 288 503 288 535 q 302 470 288 485 q 342 444 317 456 q 403 421 368 432 q 479 400 438 410 q 587 366 539 385 q 669 324 635 347 q 722 268 703 300 q 740 194 740 236 q 719 112 740 150 q 658 45 699 74 q 558 0 618 17 q 421 -17 499 -17 q 238 14 325 -17 q 86 89 150 44 l 161 190 m 222 1015 l 342 1015 l 425 881 l 431 881 l 514 1015 l 633 1015 l 496 796 l 360 796 l 222 1015 z "},"ş":{"ha":833,"x_min":86,"x_max":740,"o":"m 161 190 q 283 127 219 150 q 425 104 346 104 q 543 127 506 104 q 581 186 581 150 q 532 247 581 222 q 379 299 483 271 q 285 329 331 311 q 204 371 239 347 q 149 425 169 394 q 128 494 128 456 q 206 642 128 585 q 429 699 283 699 q 586 671 513 699 q 713 608 660 643 l 639 510 q 541 559 593 540 q 431 578 489 578 q 319 556 351 578 q 288 503 288 535 q 302 470 288 485 q 342 444 317 456 q 403 421 368 432 q 479 400 438 410 q 587 366 539 385 q 669 324 635 347 q 722 268 703 300 q 740 194 740 236 q 719 112 740 150 q 658 45 699 74 q 558 0 618 17 q 421 -17 499 -17 q 238 14 325 -17 q 86 89 150 44 l 161 190 m 393 4 l 490 4 l 458 -64 q 517 -99 493 -76 q 540 -165 540 -122 q 522 -222 540 -199 q 473 -262 504 -246 q 401 -289 442 -279 q 317 -301 361 -299 l 303 -232 q 389 -210 356 -225 q 422 -168 422 -196 q 402 -131 422 -146 q 338 -104 382 -115 l 393 4 z "},"ș":{"ha":833,"x_min":86,"x_max":740,"o":"m 161 190 q 283 127 219 150 q 425 104 346 104 q 543 127 506 104 q 581 186 581 150 q 532 247 581 222 q 379 299 483 271 q 285 329 331 311 q 204 371 239 347 q 149 425 169 394 q 128 494 128 456 q 206 642 128 585 q 429 699 283 699 q 586 671 513 699 q 713 608 660 643 l 639 510 q 541 559 593 540 q 431 578 489 578 q 319 556 351 578 q 288 503 288 535 q 302 470 288 485 q 342 444 317 456 q 403 421 368 432 q 479 400 438 410 q 587 366 539 385 q 669 324 635 347 q 722 268 703 300 q 740 194 740 236 q 719 112 740 150 q 658 45 699 74 q 558 0 618 17 q 421 -17 499 -17 q 238 14 325 -17 q 86 89 150 44 l 161 190 m 383 -62 q 500 -99 465 -72 q 535 -174 535 -125 q 517 -231 535 -207 q 467 -271 499 -254 q 396 -297 436 -287 q 311 -310 356 -307 l 297 -240 q 383 -221 350 -233 q 417 -183 417 -208 q 399 -147 417 -160 q 350 -126 382 -133 l 383 -62 l 383 -62 z "},"ṡ":{"ha":833,"x_min":86,"x_max":740,"o":"m 161 190 q 283 127 219 150 q 425 104 346 104 q 543 127 506 104 q 581 186 581 150 q 532 247 581 222 q 379 299 483 271 q 285 329 331 311 q 204 371 239 347 q 149 425 169 394 q 128 494 128 456 q 206 642 128 585 q 429 699 283 699 q 586 671 513 699 q 713 608 660 643 l 639 510 q 541 559 593 540 q 431 578 489 578 q 319 556 351 578 q 288 503 288 535 q 302 470 288 485 q 342 444 317 456 q 403 421 368 432 q 479 400 438 410 q 587 366 539 385 q 669 324 635 347 q 722 268 703 300 q 740 194 740 236 q 719 112 740 150 q 658 45 699 74 q 558 0 618 17 q 421 -17 499 -17 q 238 14 325 -17 q 86 89 150 44 l 161 190 m 428 801 q 347 831 379 801 q 314 908 314 860 q 347 987 314 957 q 428 1017 379 1017 q 509 987 476 1017 q 542 908 542 957 q 509 831 542 860 q 428 801 476 801 z "},"ṣ":{"ha":833,"x_min":86,"x_max":740,"o":"m 161 190 q 283 127 219 150 q 425 104 346 104 q 543 127 506 104 q 581 186 581 150 q 532 247 581 222 q 379 299 483 271 q 285 329 331 311 q 204 371 239 347 q 149 425 169 394 q 128 494 128 456 q 206 642 128 585 q 429 699 283 699 q 586 671 513 699 q 713 608 660 643 l 639 510 q 541 559 593 540 q 431 578 489 578 q 319 556 351 578 q 288 503 288 535 q 302 470 288 485 q 342 444 317 456 q 403 421 368 432 q 479 400 438 410 q 587 366 539 385 q 669 324 635 347 q 722 268 703 300 q 740 194 740 236 q 719 112 740 150 q 658 45 699 74 q 558 0 618 17 q 421 -17 499 -17 q 238 14 325 -17 q 86 89 150 44 l 161 190 m 428 -333 q 347 -304 379 -333 q 314 -226 314 -275 q 347 -148 314 -178 q 428 -118 379 -118 q 509 -148 476 -118 q 542 -226 542 -178 q 509 -304 542 -275 q 428 -333 476 -333 z "},"ß":{"ha":833,"x_min":103,"x_max":789,"o":"m 103 704 q 122 822 103 768 q 179 915 142 876 q 272 976 217 954 q 400 997 328 997 q 508 979 461 997 q 585 931 554 961 q 631 860 615 900 q 646 778 646 821 q 630 691 646 726 q 594 627 614 656 q 558 572 574 599 q 542 515 542 546 q 560 467 542 488 q 606 430 578 447 q 665 394 633 413 q 725 351 697 376 q 771 289 753 325 q 789 200 789 253 q 773 115 789 154 q 726 46 757 75 q 653 0 696 17 q 554 -17 610 -17 q 449 -2 496 -17 q 358 40 403 13 l 415 150 q 483 115 450 126 q 549 104 515 104 q 615 128 592 104 q 639 188 639 153 q 621 243 639 221 q 575 284 603 265 q 515 321 547 303 q 456 362 483 339 q 410 417 428 385 q 392 496 392 449 q 408 572 392 540 q 444 634 424 604 q 480 695 464 664 q 496 768 496 726 q 470 842 496 813 q 399 871 444 871 q 297 824 332 871 q 263 689 263 776 l 263 0 l 103 0 l 103 704 z "},"ť":{"ha":833,"x_min":82,"x_max":761,"o":"m 264 556 l 82 556 l 82 675 l 271 682 l 292 868 l 424 868 l 424 682 l 735 682 l 735 556 l 424 556 l 424 275 q 458 151 424 190 q 581 111 493 111 q 661 119 625 111 q 731 139 697 126 l 761 22 q 660 -5 715 7 q 542 -17 604 -17 q 411 4 464 -17 q 326 63 358 25 q 278 156 293 101 q 264 275 264 210 l 264 556 m 546 761 l 539 1063 l 646 1063 l 644 975 l 618 761 l 546 761 z "},"ţ":{"ha":833,"x_min":82,"x_max":761,"o":"m 264 556 l 82 556 l 82 675 l 271 682 l 292 868 l 424 868 l 424 682 l 735 682 l 735 556 l 424 556 l 424 275 q 458 151 424 190 q 581 111 493 111 q 661 119 625 111 q 731 139 697 126 l 761 22 q 660 -5 715 7 q 542 -17 604 -17 q 411 4 464 -17 q 326 63 358 25 q 278 156 293 101 q 264 275 264 210 l 264 556 m 479 4 l 576 4 l 544 -64 q 603 -99 579 -76 q 626 -165 626 -122 q 608 -222 626 -199 q 559 -262 590 -246 q 488 -289 528 -279 q 403 -301 447 -299 l 389 -232 q 475 -210 442 -225 q 508 -168 508 -196 q 488 -131 508 -146 q 424 -104 468 -115 l 479 4 z "},"ț":{"ha":833,"x_min":82,"x_max":761,"o":"m 264 556 l 82 556 l 82 675 l 271 682 l 292 868 l 424 868 l 424 682 l 735 682 l 735 556 l 424 556 l 424 275 q 458 151 424 190 q 581 111 493 111 q 661 119 625 111 q 731 139 697 126 l 761 22 q 660 -5 715 7 q 542 -17 604 -17 q 411 4 464 -17 q 326 63 358 25 q 278 156 293 101 q 264 275 264 210 l 264 556 m 475 -62 q 592 -99 557 -72 q 626 -174 626 -125 q 608 -231 626 -207 q 559 -271 590 -254 q 488 -297 528 -287 q 403 -310 447 -307 l 389 -240 q 475 -221 442 -233 q 508 -183 508 -208 q 491 -147 508 -160 q 442 -126 474 -133 l 475 -62 l 475 -62 z "},"ṭ":{"ha":833,"x_min":82,"x_max":761,"o":"m 264 556 l 82 556 l 82 675 l 271 682 l 292 868 l 424 868 l 424 682 l 735 682 l 735 556 l 424 556 l 424 275 q 458 151 424 190 q 581 111 493 111 q 661 119 625 111 q 731 139 697 126 l 761 22 q 660 -5 715 7 q 542 -17 604 -17 q 411 4 464 -17 q 326 63 358 25 q 278 156 293 101 q 264 275 264 210 l 264 556 m 519 -333 q 438 -304 471 -333 q 406 -226 406 -275 q 438 -148 406 -178 q 519 -118 471 -118 q 601 -148 568 -118 q 633 -226 633 -178 q 601 -304 633 -275 q 519 -333 568 -333 z "},"ṯ":{"ha":833,"x_min":82,"x_max":761,"o":"m 264 556 l 82 556 l 82 675 l 271 682 l 292 868 l 424 868 l 424 682 l 735 682 l 735 556 l 424 556 l 424 275 q 458 151 424 190 q 581 111 493 111 q 661 119 625 111 q 731 139 697 126 l 761 22 q 660 -5 715 7 q 542 -17 604 -17 q 411 4 464 -17 q 326 63 358 25 q 278 156 293 101 q 264 275 264 210 l 264 556 m 700 -250 l 338 -250 l 338 -144 l 700 -144 l 700 -250 z "}}}
